<?xml version="1.0" encoding="UTF-8"?> <svg xmlns="http://www.w3.org/2000/svg" width="484" height="462" viewBox="0 0 484 462"><g fill="none" fill-rule="evenodd"><path fill="#AEB8C6" d="M214.251 458.551h54.177v-25.38H214.25z"></path><path fill="#BFCDDF" d="M378.526 283.029v151.646c0 4.816-3.918 8.736-8.732 8.736H112.885c-4.813 0-8.733-3.92-8.733-8.736V283.029c0-4.826 3.92-8.733 8.733-8.733h256.909c4.814 0 8.733 3.907 8.733 8.733"></path><path fill="#5235AD" d="M370.032 433.075c0 2.884-2.364 5.245-5.246 5.245H117.89c-2.885 0-5.246-2.361-5.246-5.245V287.338c0-2.885 2.36-5.246 5.246-5.246h246.897c2.882 0 5.246 2.361 5.246 5.246v145.737"></path><path fill="#D4D4CF" d="M378.874 407v27.575c0 4.816-3.918 8.736-8.733 8.736H113.233c-4.814 0-8.733-3.92-8.733-8.736V407h274.374"></path><path fill="#8D8D8D" d="M296.84 458.026a3.49 3.49 0 0 1-3.489 3.488h-104.59a3.49 3.49 0 0 1 0-6.976h104.59a3.486 3.486 0 0 1 3.488 3.488"></path><path fill="#E6EAE8" d="M134.704 407.1h211.969V296.582h-211.97z"></path><path fill="#5DB0FE" d="M134.704 307.944h211.969v-11.362h-211.97z"></path><path fill="#FFFFFE" d="M335.409 302.262a2.185 2.185 0 1 1 0 0M327 302.262c0 1.207-.98 2.186-2.183 2.186a2.185 2.185 0 0 1 0-4.37c1.203 0 2.183.98 2.183 2.184M318.592 302.262a2.185 2.185 0 0 1-2.181 2.186 2.184 2.184 0 0 1 0-4.37c1.203 0 2.18.98 2.18 2.184M193.216 398.352H335.41v-78.567H193.216zM144.217 365.568h39.985v-28.156h-39.985zM144.217 332.784h39.985v-12.496h-39.985zM144.217 398.352h39.985v-28.158h-39.985z"></path><path fill="#C63348" d="M254.48 376.38h-14.826c-37.647 0-68.275-30.627-68.275-68.274V212.57h40.162v95.535c0 15.5 12.61 28.113 28.113 28.113h14.827c15.5 0 28.113-12.612 28.113-28.113V212.57h40.163v95.535c0 37.647-30.629 68.274-68.276 68.274"></path><path fill="#FF536B" d="M270.571 212.567v95.537c0 15.503-12.611 28.114-28.112 28.114H227.63c-15.503 0-28.114-12.611-28.114-28.114v-95.537h-40.162v95.537c0 37.65 30.628 68.275 68.276 68.275h14.828c37.647 0 68.274-30.626 68.274-68.275v-95.537h-40.162"></path><path fill="#A97979" d="M171.379 239.016h40.162v-48.89h-40.162z"></path><path fill="#CEA4A4" d="M159.355 239.016h40.162v-48.89h-40.162z"></path><path fill="#A97979" d="M282.594 239.016h40.163v-48.89h-40.163z"></path><path fill="#CEA4A4" d="M270.57 239.016h40.162v-48.89H270.57z"></path><path fill="#FFFFFE" d="M343.383 87.868a3.988 3.988 0 1 1-7.975 0 3.988 3.988 0 0 1 7.975 0M124.236 113.42a3.988 3.988 0 1 1-7.975 0 3.988 3.988 0 0 1 7.975 0M369.113 110.06c-3.968 1.867-5.48 3.38-7.347 7.347-1.866-3.967-3.377-5.48-7.345-7.346 3.968-1.865 5.48-3.379 7.345-7.346 1.866 3.967 3.379 5.481 7.347 7.346M150.579 79.146c-3.968 1.867-5.48 3.38-7.346 7.347-1.867-3.968-3.378-5.48-7.346-7.347 3.968-1.864 5.48-3.378 7.346-7.346 1.866 3.968 3.378 5.482 7.346 7.346"></path><path fill="#FF536B" d="M285.513 170.973h-7.7v-34.75l20.016 2.859 17.14-34.502 6.895 3.426-19.615 39.486-16.736-2.391v25.872"></path><path fill="#00AABE" d="M302.187 175.507l5.012-12.41 15.761-.376 26.007-29.697"></path><path fill="#5235AD" d="M305.758 176.95l-7.14-2.885 5.96-14.757 16.601-.395 24.892-28.425 5.793 5.073-27.12 30.97-14.921.354-4.065 10.064"></path><path fill="#FF536B" d="M196.788 170.973h-7.7v-25.872l-16.738 2.391-19.616-39.486 6.897-3.426 17.139 34.502 20.018-2.86v34.751"></path><path fill="#00AABE" d="M172.412 175.507l-5.012-12.41-15.76-.376-26.007-29.697"></path><path fill="#9ED4FE" d="M168.842 176.95l-4.064-10.065-14.92-.355-27.122-30.97 5.794-5.072 24.891 28.425 16.602.394 5.958 14.758-7.139 2.884"></path><path fill="#D4D4CF" d="M120.249 191.828c0 18.609-8.445 35.244-21.734 46.27a52.631 52.631 0 0 1-2.63 2.058v.008a69.17 69.17 0 0 1-1.485 1.067 59.557 59.557 0 0 1-5.235 3.264 66.537 66.537 0 0 1-3.306 1.68 59.682 59.682 0 0 1-22.298 5.689h-.06c-.64.023-1.27.051-1.903.069-.565.006-1.128.014-1.7.014a59.792 59.792 0 0 1-24.543-5.317 58.036 58.036 0 0 1-4.167-2.094 54.872 54.872 0 0 1-4.433-2.699 31.504 31.504 0 0 1-1.144-.786 55.9 55.9 0 0 1-3.783-2.886C8.488 227.141 0 210.48 0 191.828 0 158.617 26.918 131.7 60.13 131.7c33.202 0 60.119 26.917 60.119 60.128"></path><path fill="#E0A168" d="M69.052 191.838c-5.344 16.423 0 23.089 0 23.089s-.01.022-.022.088l-.23.913c0 .01-.01.022-.01.033-.638 2.035-2.607 6.325-7.876 6.325-6.778 0-8.8-5.5-9.218-6.985-.078-.231-.1-.374-.1-.374s4.29-5.676 0-19.294c-1.341-4.257 18.831-8.041 17.456-3.795"></path><path fill="#5DB0FE" d="M91.261 221.923l-22.209-6.996s-.01.022-.022.088a8.581 8.581 0 0 1-.23.913c0 .01-.01.022-.01.033-.638 2.035-2.607 6.325-7.876 6.325-6.778 0-8.8-5.5-9.218-6.985-.078-.231-.1-.374-.1-.374l-21.471 7.14c-2.475.813-3.4 4.74-3.894 9.602-.288 2.948-.42 6.237-.616 9.383.374.275.759.528 1.144.78a52.918 52.918 0 0 0 4.431 2.708 59.925 59.925 0 0 0 28.711 7.414c.573 0 1.133-.013 1.695-.023.638-.011 1.265-.044 1.903-.065h.066a59.653 59.653 0 0 0 22.297-5.687 65.404 65.404 0 0 0 3.3-1.684 59.958 59.958 0 0 0 6.72-4.334c-.505-8.194-.615-17.16-4.62-18.238"></path><path fill="#E0A168" d="M73.249 188.94c-.228 3.293 1.046 6.061 2.845 6.186 1.797.125 3.44-2.443 3.667-5.737.228-3.293-1.046-6.062-2.845-6.186-1.797-.125-3.44 2.444-3.667 5.736M48.67 188.94c.228 3.293-1.046 6.061-2.844 6.186-1.797.125-3.44-2.443-3.669-5.737-.227-3.293 1.048-6.062 2.845-6.186 1.799-.125 3.44 2.444 3.667 5.736"></path><path fill="#6B4533" d="M78.855 173.252c0 3.62-.885 10.169-2.5 12.713-2.983 4.7-8.454 7.383-15.44 7.383-7.373 0-13.447-2.475-16.549-8.33-1.43-2.695-2.23-9.523-2.235-13.744-.012-10.307 8.23-13.905 18.998-13.905 10.77 0 17.726 5.577 17.726 15.883"></path><path fill="#F3BA84" d="M76.22 187.592c0 6.362-2.133 11.704-4.654 16.1-2.918 5.084-6.56 7.645-11.28 7.645-5.06 0-8.67-3.077-11.589-8.812-2.158-4.238-4.345-9.1-4.345-14.933 0-13.72 7.134-24.845 15.935-24.845 8.8 0 15.933 11.124 15.933 24.845"></path><path fill="#6B4533" d="M60.37 161.906c-.96-.106-16.489-1.451-16.03 22.054l.099 4.466s1.913.281 2.199-2.234c.286-2.515.715-8.677.715-8.677s.621-4.693 3.346-5.245c0 0 3.784.99 9.623.947h.093c5.841.043 10.437-1.13 10.437-1.13 1.547 1.302 1.995 4.014 1.995 4.014s.97 7.576 1.257 10.09c.282 2.516 2.195 2.235 2.195 2.235l.1-4.466c.46-23.505-15.07-22.16-16.03-22.054"></path><path fill="#6B4533" d="M47.68 171.286s5.826 11.724 28.036 8.156c0 0 1.653-11.597-10.777-13.69-12.43-2.094-17.258 5.534-17.258 5.534"></path><path fill="#9ED4FE" d="M483.632 190.55c0 18.608-8.446 35.244-21.734 46.269-.855.717-1.733 1.4-2.63 2.058v.008a59.709 59.709 0 0 1-6.72 4.33 66.555 66.555 0 0 1-3.306 1.681 59.702 59.702 0 0 1-22.298 5.688h-.06c-.64.023-1.272.052-1.903.069-.565.006-1.128.015-1.701.015a59.79 59.79 0 0 1-24.542-5.317 57.823 57.823 0 0 1-4.168-2.094 55.383 55.383 0 0 1-4.433-2.698c-.384-.256-.769-.513-1.144-.786a55.606 55.606 0 0 1-3.782-2.886c-13.34-11.025-21.828-27.686-21.828-46.337 0-33.213 26.918-60.129 60.128-60.129 33.203 0 60.12 26.916 60.12 60.129"></path><path fill="#6B4533" d="M447.564 186.565c0 6.838-1.131 19.209-3.193 24.017-3.806 8.876-10.788 13.947-19.703 13.947-9.41 0-17.16-4.675-21.12-15.735-1.824-5.093-2.844-17.991-2.851-25.964-.018-19.472 10.502-26.27 24.245-26.27 13.742 0 22.622 10.535 22.622 30.005"></path><path fill="#E0A168" d="M432.436 190.56c-5.347 16.423 0 23.089 0 23.089s-.01.022-.023.087l-.23.913c0 .012-.012.022-.012.034-.638 2.035-2.607 6.323-7.876 6.323-6.776 0-8.8-5.498-9.218-6.983-.077-.231-.099-.374-.099-.374s4.29-5.676 0-19.294c-1.34-4.257 18.833-8.042 17.458-3.795"></path><path fill="#5235AD" d="M454.644 220.643l-22.208-6.994s-.01.022-.023.087a8.733 8.733 0 0 1-.23.913c0 .012-.012.022-.012.034-.638 2.035-2.607 6.323-7.876 6.323-6.776 0-8.8-5.498-9.218-6.983-.077-.231-.099-.374-.099-.374l-21.472 7.139c-2.475.813-3.399 4.74-3.893 9.603-.287 2.947-.419 6.236-.617 9.383.374.275.76.526 1.144.78a52.77 52.77 0 0 0 4.434 2.707 56.664 56.664 0 0 0 4.168 2.089 59.954 59.954 0 0 0 24.541 5.325c.572 0 1.133-.014 1.694-.025.638-.01 1.265-.043 1.903-.063h.066a59.642 59.642 0 0 0 22.297-5.687c1.122-.53 2.222-1.1 3.3-1.683a59.642 59.642 0 0 0 5.236-3.267 49.755 49.755 0 0 0 1.485-1.069c-.506-8.193-.615-17.158-4.62-18.238"></path><path fill="#E0A168" d="M436.632 187.66c-.228 3.293 1.046 6.063 2.844 6.188 1.798.124 3.44-2.445 3.668-5.738.228-3.292-1.046-6.062-2.845-6.187-1.798-.124-3.44 2.446-3.667 5.737M412.051 187.66c.229 3.293-1.044 6.063-2.842 6.188-1.798.124-3.442-2.445-3.67-5.738-.227-3.292 1.048-6.062 2.845-6.187 1.8-.124 3.442 2.446 3.667 5.737"></path><path fill="#F3BA84" d="M439.603 186.313c0 6.362-2.133 11.705-4.655 16.1-2.919 5.083-6.56 7.645-11.28 7.645-5.06 0-8.67-3.078-11.588-8.812-2.16-4.238-4.344-9.1-4.344-14.934 0-13.719 7.132-24.844 15.933-24.844 8.8 0 15.934 11.125 15.934 24.845"></path><path fill="#6B4533" d="M423.752 160.626c-.96-.105-16.488-1.45-16.03 22.053l.1 4.467s1.913.283 2.199-2.233c.284-2.514.714-8.678.714-8.678s.623-4.692 3.347-5.243c0 0 3.784.99 9.623.947h.093c5.841.043 10.436-1.131 10.436-1.131 1.548 1.301 1.996 4.014 1.996 4.014s.97 7.577 1.255 10.091c.283 2.516 2.198 2.233 2.198 2.233l.098-4.467c.46-23.504-15.07-22.158-16.03-22.053"></path><path fill="#6B4533" d="M413.784 166.868s8.805 17.812 29.313 34.281c0 0 9.04-33.243-11.443-37.303-12.365-2.45-17.87 3.022-17.87 3.022"></path><path fill="#6B4533" d="M421.507 173.41s-13.889 9.949-10.06 27.091c0 0-11.94-11.733-7.999-23.1s13.566-14.491 18.059-3.992"></path><path fill="#CEA4A4" d="M296.825 59.532c0 17.347-7.414 32.956-19.272 43.847a55.77 55.77 0 0 1-2.243 1.957 52.162 52.162 0 0 1-2.607 2.036v.01c-.485.353-.968.704-1.463 1.056a55.957 55.957 0 0 1-5.193 3.223 56.99 56.99 0 0 1-3.267 1.672 58.957 58.957 0 0 1-20.14 5.49l-.474.032c-.483.044-.968.088-1.463.111h-.055l-1.892.065c-.55.011-1.11.023-1.683.023a57.406 57.406 0 0 1-4.554-.199c-.098 0-.186-.011-.285-.022a59.238 59.238 0 0 1-19.46-5.048 57.642 57.642 0 0 1-4.125-2.08 58.938 58.938 0 0 1-4.389-2.662c-.374-.264-.758-.517-1.132-.781a58.538 58.538 0 0 1-3.74-2.859c-.397-.33-.782-.661-1.166-.991-12.54-10.912-20.45-26.972-20.45-44.88C177.772 26.642 204.425 0 237.304 0c32.868 0 59.521 26.642 59.521 59.532"></path><path fill="#E0A168" d="M245.954 61.827c-5.364 16.48 0 23.171 0 23.171s-.01.022-.02.087l-.234.916c0 .012-.01.022-.01.034-.64 2.043-2.616 6.346-7.904 6.346-6.8 0-8.83-5.518-9.25-7.008-.077-.232-.099-.375-.099-.375s4.305-5.697 0-19.362c-1.346-4.272 18.897-8.07 17.517-3.81M250.165 58.918c-.228 3.305 1.05 6.083 2.855 6.209 1.805.124 3.454-2.453 3.68-5.758.228-3.305-1.049-6.083-2.854-6.207-1.805-.126-3.452 2.453-3.68 5.756M225.501 58.918c.229 3.305-1.05 6.083-2.854 6.209-1.804.124-3.454-2.453-3.682-5.758-.228-3.305 1.052-6.083 2.854-6.207 1.806-.126 3.453 2.453 3.682 5.756"></path><path fill="#6B4533" d="M255.79 43.176c0 3.632-.887 10.204-2.508 12.758-2.992 4.715-8.484 7.408-15.494 7.408-7.399 0-13.494-2.483-16.608-8.357-1.433-2.706-2.235-8.075-2.243-12.31-.01-10.258 5.57-9.24 5.57-9.24 2.199-4.011 9.146-4.493 14.105-4.492 10.805 0 17.179 3.89 17.179 14.233"></path><path fill="#F3BA84" d="M253.147 57.566c0 6.385-2.141 11.745-4.671 16.156-2.928 5.102-6.582 7.672-11.318 7.672-5.079 0-8.7-3.088-11.632-8.841-2.166-4.254-4.359-9.135-4.359-14.987 0-13.768 7.158-24.932 15.99-24.932 8.834 0 15.99 11.164 15.99 24.932"></path><path fill="#6B4533" d="M237.24 31.789c-.962-.106-16.545-1.455-16.086 22.132l.099 4.481s1.92.283 2.209-2.242c.287-2.524.716-8.707.716-8.707s.625-4.71 3.358-5.263c0 0 3.798.994 9.657.95h.095c5.86.044 10.473-1.133 10.473-1.133 1.55 1.306 2.002 4.027 2.002 4.027s.972 7.602 1.261 10.127c.283 2.524 2.203 2.241 2.203 2.241l.1-4.481c.462-23.587-15.123-22.238-16.087-22.132"></path><path fill="#6B4533" d="M224.508 41.203s5.846 11.765 28.133 8.185c0 0 1.658-11.64-10.816-13.74-12.472-2.1-17.317 5.555-17.317 5.555"></path><path fill="#FF536B" d="M277.553 103.38a55.77 55.77 0 0 1-2.243 1.956 52.162 52.162 0 0 1-2.607 2.036v.01c-.485.353-.968.704-1.463 1.056a55.957 55.957 0 0 1-5.193 3.223 56.99 56.99 0 0 1-3.267 1.672 58.957 58.957 0 0 1-20.14 5.49l-.474.032c-.483.044-.968.088-1.463.111h-.055l-1.892.065c-.55.011-1.11.023-1.683.023a57.406 57.406 0 0 1-4.554-.199c-.098 0-.186-.011-.285-.022a59.238 59.238 0 0 1-19.46-5.048 57.642 57.642 0 0 1-4.125-2.08 58.938 58.938 0 0 1-4.389-2.662c-.374-.264-.758-.517-1.132-.781a58.538 58.538 0 0 1-3.74-2.859c-.397-.33-.782-.661-1.166-.991.594-4.95 1.715-8.82 4.312-9.68h.01l20.208-6.709h.01l4.587-1.53s.034.155.111.43c.351 1.264 1.737 5.093 5.62 6.984a9.238 9.238 0 0 0 1.63.628c1 .296 2.132.462 3.398.462.66 0 1.276-.067 1.847-.166.495-.099.957-.22 1.398-.384 3.695-1.343 5.257-4.885 5.84-6.766.166-.527.254-.924.286-1.089.012-.066.023-.099.023-.099l4.036 1.276h.011l21.616 6.798c2.573.694 3.751 4.202 4.388 8.812"></path><path fill="#DC3843" d="M240.77 96.173l-1.046 3.146 2.442 19.536c-.483.044-.968.088-1.463.111h-.055l-1.892.065c-.55.011-1.11.023-1.683.023a57.406 57.406 0 0 1-4.554-.199l.991-8.095 1.352-11.23-1.089-3.456-.693-2.167-1.033-3.3-.088-.264h10.757l-.154.462-1.209 3.642-.584 1.726"></path><path fill="#FFFFFE" d="M222.725 87.982l6.327-6.244 8.19 8.593-5.206 8.63-9.311-10.979"></path><path fill="#FFFFFE" d="M251.758 87.982l-6.325-6.244-8.192 8.593 5.207 8.63 9.31-10.979"></path><path fill="#F3BA84" d="M241.998 51.105c-.16-.16-5.187-6.028-5.187-6.028s4.33 3.943 13.42 4.646l-8.233 1.382"></path></g></svg> 