<?xml version="1.0" encoding="utf-8"?>
<!-- Generator: Adobe Illustrator 15.1.0, SVG Export Plug-In  -->
<!DOCTYPE svg PUBLIC "-//W3C//DTD SVG 1.1//EN" "http://www.w3.org/Graphics/SVG/1.1/DTD/svg11.dtd" [
	<!ENTITY ns_flows "http://ns.adobe.com/Flows/1.0/">
]>
<svg version="1.1"
	 xmlns="http://www.w3.org/2000/svg" xmlns:xlink="http://www.w3.org/1999/xlink" xmlns:a="http://ns.adobe.com/AdobeSVGViewerExtensions/3.0/"
	 x="0px" y="0px" width="550px" height="550px" viewBox="2.49 -4.98 550 550" enable-background="new 2.49 -4.98 550 550"
	 xml:space="preserve">
<defs>
</defs>
<path fill="none" stroke="#BDBEBF" stroke-miterlimit="10" d="M516.873,134.061l7.981-8.41c1.373-1.447,1.531-3.742,0.363-5.381
	c-4.35-6.125-9.517-11.568-15.329-16.153c-1.556-1.226-3.732-1.061-5.106,0.386l-7.98,8.41c-1.212,1.277-3.07,1.573-4.577,0.717
	c-3.405-1.927-7.008-3.511-10.769-4.708c-1.633-0.521-2.747-2.117-2.747-3.915V93.128c0-2.043-1.422-3.783-3.34-4.077
	c-3.548-0.542-7.167-0.83-10.854-0.83c-3.686,0-7.305,0.289-10.847,0.83c-1.923,0.292-3.344,2.031-3.344,4.077v11.876
	c0,1.801-1.115,3.396-2.747,3.916c-3.766,1.198-7.368,2.782-10.77,4.711c-1.507,0.854-3.368,0.558-4.581-0.719l-7.981-8.41
	c-1.373-1.447-3.55-1.612-5.105-0.386c-5.813,4.585-10.979,10.028-15.329,16.153c-1.163,1.639-1.006,3.934,0.368,5.381l7.977,8.41
	c1.213,1.275,1.495,3.236,0.684,4.824c-1.83,3.587-3.333,7.382-4.472,11.347c-0.493,1.722-2.008,2.893-3.717,2.893h-11.269
	c-1.939,0-3.592,1.501-3.871,3.524c-0.513,3.733-0.787,7.548-0.787,11.431c0,3.884,0.274,7.698,0.787,11.433
	c0.279,2.023,1.932,3.525,3.871,3.525h11.269c1.709,0,3.224,1.17,3.717,2.893c1.139,3.963,2.642,7.76,4.472,11.346
	c0.812,1.588,0.529,3.547-0.684,4.824l-7.977,8.409c-1.374,1.448-1.531,3.743-0.368,5.383c4.35,6.122,9.517,11.567,15.329,16.152
	c1.556,1.226,3.732,1.061,5.105-0.387l7.986-8.41c1.208-1.276,3.069-1.573,4.576-0.718c3.401,1.928,7.004,3.514,10.77,4.71
	c1.632,0.52,2.747,2.116,2.747,3.916v11.878c0,2.043,1.421,3.781,3.344,4.076c3.542,0.54,7.161,0.829,10.847,0.829
	c3.687,0,7.306-0.29,10.854-0.831c1.918-0.292,3.34-2.031,3.34-4.075v-11.877c0-1.8,1.114-3.396,2.747-3.917
	c3.761-1.197,7.363-2.781,10.765-4.708c1.511-0.856,3.369-0.559,4.581,0.717l7.98,8.41c1.374,1.448,3.551,1.613,5.106,0.387
	c5.813-4.585,10.979-10.03,15.329-16.152c1.168-1.64,1.01-3.935-0.363-5.383l-7.981-8.409c-1.213-1.277-1.49-3.236-0.683-4.824
	c1.833-3.585,3.336-7.382,4.471-11.346c0.493-1.723,2.008-2.893,3.717-2.893h11.273c1.939,0,3.587-1.502,3.866-3.525
	c0.513-3.734,0.787-7.549,0.787-11.433c0-3.883-0.274-7.698-0.787-11.431c-0.279-2.023-1.927-3.524-3.866-3.524h-11.273
	c-1.709,0-3.224-1.171-3.717-2.893c-1.135-3.964-2.638-7.762-4.471-11.347C515.382,137.297,515.66,135.335,516.873,134.061z
	 M466.978,199.863c-18.626,1.557-34.111-14.763-32.625-34.381c1.166-15.442,13.034-27.95,27.689-29.185
	c18.629-1.566,34.124,14.761,32.637,34.388C493.509,186.128,481.633,198.636,466.978,199.863z"/>
<path fill="none" stroke="#BDBEBF" stroke-miterlimit="10" d="M365.146,67.64l11.313-12.319c1.945-2.12,2.17-5.48,0.516-7.88
	c-6.166-8.971-13.488-16.942-21.727-23.658c-2.205-1.797-5.289-1.555-7.236,0.564l-11.313,12.318
	c-1.717,1.869-4.352,2.304-6.486,1.05c-4.826-2.823-9.934-5.143-15.264-6.896c-2.313-0.762-3.893-3.101-3.893-5.736V7.687
	c0-2.994-2.016-5.542-4.734-5.971C301.294,0.922,296.166,0.5,290.939,0.5c-5.223,0-10.353,0.422-15.372,1.215
	c-2.726,0.429-4.739,2.975-4.739,5.971v17.396c0,2.637-1.58,4.973-3.895,5.735c-5.336,1.755-10.441,4.075-15.262,6.899
	c-2.137,1.252-4.775,0.817-6.494-1.052l-11.311-12.318c-1.947-2.12-5.033-2.362-7.236-0.564
	c-8.238,6.716-15.562,14.687-21.727,23.658c-1.648,2.4-1.426,5.761,0.521,7.88L216.73,67.64c1.719,1.869,2.119,4.739,0.969,7.066
	c-2.594,5.253-4.723,10.813-6.338,16.618c-0.699,2.523-2.845,4.239-5.267,4.239h-15.972c-2.748,0-5.09,2.198-5.485,5.16
	c-0.727,5.47-1.116,11.056-1.116,16.744c0,5.688,0.39,11.276,1.116,16.745c0.396,2.963,2.737,5.162,5.485,5.162h15.972
	c2.422,0,4.568,1.714,5.267,4.239c1.615,5.805,3.744,11.366,6.338,16.617c1.15,2.328,0.75,5.198-0.969,7.067l-11.305,12.317
	c-1.947,2.122-2.17,5.484-0.521,7.884c6.165,8.969,13.489,16.941,21.727,23.658c2.203,1.796,5.289,1.555,7.236-0.565l11.318-12.319
	c1.711-1.869,4.35-2.303,6.486-1.053c4.82,2.826,9.926,5.147,15.262,6.9c2.314,0.762,3.895,3.099,3.895,5.736v17.397
	c0,2.993,2.014,5.54,4.739,5.97c5.02,0.791,10.149,1.215,15.372,1.215c5.227,0,10.355-0.424,15.383-1.217
	c2.719-0.428,4.734-2.977,4.734-5.97v-17.395c0-2.637,1.58-4.974,3.893-5.737c5.33-1.754,10.438-4.073,15.258-6.897
	c2.141-1.252,4.775-0.818,6.492,1.051l11.313,12.319c1.947,2.121,5.031,2.362,7.236,0.565c8.238-6.717,15.561-14.689,21.727-23.658
	c1.654-2.4,1.43-5.762-0.516-7.884l-11.313-12.317c-1.719-1.869-2.111-4.739-0.967-7.067c2.598-5.25,4.729-10.812,6.336-16.617
	c0.699-2.524,2.846-4.239,5.268-4.239h15.979c2.748,0,5.084-2.199,5.479-5.162c0.729-5.468,1.117-11.056,1.117-16.745
	c0-5.688-0.389-11.274-1.117-16.744c-0.395-2.962-2.73-5.16-5.479-5.16h-15.979c-2.422,0-4.568-1.716-5.268-4.239
	c-1.607-5.805-3.738-11.367-6.336-16.618C363.035,72.379,363.427,69.508,365.146,67.64z M294.431,164.02
	c-26.398,2.282-48.348-21.623-46.24-50.358c1.652-22.617,18.473-40.938,39.244-42.745c26.404-2.294,48.365,21.62,46.258,50.367
	C332.033,143.903,315.201,162.223,294.431,164.02z"/>
<path fill="#010101" d="M175.331,66.249h-42.629c-0.545,0-0.983-0.49-0.983-1.094c0-0.607,0.438-1.098,0.983-1.098h42.629
	c0.544,0,0.985,0.491,0.985,1.098C176.316,65.759,175.875,66.249,175.331,66.249z"/>
<path fill="#010101" d="M98.983,81.464H81.639c-0.544,0-0.985-0.488-0.985-1.094c0-0.604,0.441-1.092,0.985-1.092h17.344
	c0.544,0,0.983,0.487,0.983,1.092C99.966,80.976,99.528,81.464,98.983,81.464z"/>
<path fill="#010101" d="M67.382,147.312H50.036c-0.544,0-0.983-0.487-0.983-1.093c0-0.606,0.439-1.096,0.983-1.096h17.346
	c0.542,0,0.983,0.49,0.983,1.096C68.365,146.824,67.924,147.312,67.382,147.312z"/>
<path fill="#010101" d="M197.221,114.017h-42.629c-0.544,0-0.983-0.49-0.983-1.092c0-0.605,0.438-1.096,0.983-1.096h42.629
	c0.544,0,0.985,0.49,0.985,1.096C198.207,113.526,197.766,114.017,197.221,114.017z"/>
<path fill="#010101" d="M361.345,107.093h-42.632c-0.542,0-0.983-0.49-0.983-1.095c0-0.605,0.441-1.096,0.983-1.096h42.632
	c0.542,0,0.982,0.49,0.982,1.096C362.328,106.603,361.887,107.093,361.345,107.093z"/>
<path fill="#010101" d="M173.069,133.218h-18.477c-0.544,0-0.983-0.49-0.983-1.092c0-0.605,0.438-1.096,0.983-1.096h18.477
	c0.547,0,0.985,0.49,0.985,1.096C174.054,132.728,173.616,133.218,173.069,133.218z"/>
<path fill="#010101" d="M309.884,128.159h-18.479c-0.544,0-0.984-0.487-0.984-1.092c0-0.606,0.44-1.096,0.984-1.096h18.479
	c0.542,0,0.982,0.49,0.982,1.096C310.867,127.671,310.426,128.159,309.884,128.159z"/>
<path fill="#010101" d="M263.635,133.718c-0.253,0-0.503-0.107-0.696-0.319l-20.918-23.26c-0.384-0.428-0.384-1.121,0-1.547
	c0.383-0.427,1.008-0.427,1.392,0l20.919,23.259c0.383,0.426,0.383,1.119,0,1.547C264.138,133.611,263.885,133.718,263.635,133.718z
	"/>
<path fill="#010101" d="M242.716,133.718c-0.252,0-0.505-0.107-0.695-0.319c-0.384-0.429-0.384-1.121,0-1.547l20.918-23.259
	c0.384-0.427,1.006-0.427,1.393,0c0.383,0.426,0.383,1.119,0,1.547l-20.919,23.26C243.222,133.611,242.969,133.718,242.716,133.718z
	"/>
<path fill="#1072BA" d="M398.289,432.208c-1.52,12.196-28.46,19.786-37.767,21.927c-14.601,3.362-34.538,1.032-48.551-5.552
	c-29.195-13.722,3.739-50.44-16.17-68.205c-12.225-10.91-26.606-8.313-39.37-12.726c-11.988-4.146-18.342-32.541-14.27-45.834
	c6.179-20.157,25.596-10.047,37.524-8.124c17.666,2.843,17.941-20.32,23.937-34.172c11.625-26.851,47.774-34.569,66.689-10.006
	c4.386,5.691,4.936,12.416,10.237,17.75c4.937,4.967,14.365,10.457,20.93,11.502c16.153,2.57,27.656-5.596,44.433,1.88
	c40.697,18.137,28.791,80.043-3.026,98.975c-13.139,7.813-18.023,11.993-25.489,26.548c-5.438,10.599-11.529,14.799-22.193,9.438"/>
<rect x="311.149" y="303.58" fill="#FFFFFF" stroke="#010101" stroke-miterlimit="10" width="115.172" height="156.131"/>
<line fill="#FFFFFF" stroke="#010101" stroke-miterlimit="10" x1="313.162" y1="320.188" x2="426.321" y2="320.188"/>
<g>
	<g>
		<g>
			<line fill="none" stroke="#010101" stroke-miterlimit="10" x1="317.259" y1="331.4" x2="418.046" y2="331.4"/>
		</g>
		<g>
			<line fill="none" stroke="#010101" stroke-miterlimit="10" x1="317.259" y1="342.767" x2="361.117" y2="342.767"/>
		</g>
		<g>
			<line fill="none" stroke="#010101" stroke-miterlimit="10" x1="317.259" y1="354.134" x2="418.046" y2="354.134"/>
		</g>
		<g>
			<line fill="none" stroke="#010101" stroke-miterlimit="10" x1="317.259" y1="365.497" x2="418.046" y2="365.497"/>
		</g>
	</g>
</g>
<g>
	<g>
		<g>
			<line fill="none" stroke="#010101" stroke-miterlimit="10" x1="319.348" y1="373.053" x2="420.135" y2="373.053"/>
		</g>
		<g>
			<line fill="none" stroke="#010101" stroke-miterlimit="10" x1="319.348" y1="384.418" x2="363.205" y2="384.418"/>
		</g>
		<g>
			<line fill="none" stroke="#010101" stroke-miterlimit="10" x1="319.348" y1="395.786" x2="420.135" y2="395.786"/>
		</g>
		<g>
			<line fill="none" stroke="#010101" stroke-miterlimit="10" x1="319.348" y1="407.148" x2="420.135" y2="407.148"/>
		</g>
	</g>
</g>
<g>
	<g>
		<g>
			<line fill="none" stroke="#010101" stroke-miterlimit="10" x1="319.348" y1="415.965" x2="420.135" y2="415.965"/>
		</g>
		<g>
			<line fill="none" stroke="#010101" stroke-miterlimit="10" x1="319.348" y1="427.331" x2="363.205" y2="427.331"/>
		</g>
		<g>
			<line fill="none" stroke="#010101" stroke-miterlimit="10" x1="319.348" y1="438.698" x2="420.135" y2="438.698"/>
		</g>
		<g>
			<line fill="none" stroke="#010101" stroke-miterlimit="10" x1="319.348" y1="450.061" x2="420.135" y2="450.061"/>
		</g>
	</g>
</g>
<path fill="#4FA0D8" stroke="#010101" stroke-miterlimit="10" d="M42.346,381.183c0,5.132,3.061,9.307,6.821,9.307
	s6.822-4.175,6.822-9.307c0-5.131-3.061-9.306-6.822-9.306S42.346,376.052,42.346,381.183z"/>
<path fill="#4FA0D8" stroke="#010101" stroke-miterlimit="10" d="M10.487,384.833l8.389,1.823l0.093,0.679
	c0.566,4.134,1.582,8.118,3.022,11.847c1.447,3.749,3.278,7.154,5.444,10.114l0.357,0.49l-3.662,10.465
	c2.713,3.113,5.722,5.703,8.962,7.708l5.354-9.01l0.479,0.229c5.822,2.812,12.202,3.163,18.157,0.985l0.49-0.177l4.821,9.565
	c1.665-0.822,3.296-1.804,4.856-2.928c1.562-1.121,3.081-2.395,4.521-3.794l-3.048-10.844l0.388-0.449
	c4.722-5.494,8.078-12.743,9.702-20.964l0.132-0.67l8.478-0.906c0.624-4.757,0.767-9.606,0.427-14.44l-8.392-1.816l-0.093-0.679
	c-0.565-4.141-1.581-8.128-3.018-11.854c-1.44-3.739-3.271-7.143-5.445-10.111l-0.36-0.489l3.662-10.463
	c-2.708-3.114-5.718-5.702-8.961-7.709l-5.356,9.013l-0.477-0.231c-5.825-2.815-12.201-3.167-18.158-0.99l-0.489,0.177l-4.822-9.563
	c-1.637,0.808-3.269,1.789-4.854,2.918c-1.553,1.116-3.072,2.396-4.523,3.802l3.048,10.842l-0.389,0.449
	c-4.72,5.496-8.073,12.749-9.7,20.969l-0.132,0.668l-8.476,0.908C10.288,375.173,10.143,380.019,10.487,384.833z"/>
<path fill="#FFFFFF" stroke="#010101" stroke-miterlimit="10" d="M30.917,371.955c1.516-6.652,4.839-12.098,9.358-15.338
	c2.736-1.959,5.806-2.997,8.875-2.997c7.131,0,13.619,5.343,16.933,13.944c4.905,12.721,1.306,28.516-8.02,35.21
	c-2.738,1.961-5.807,3.001-8.877,3.001c-7.131,0-13.621-5.346-16.938-13.948C29.875,385.663,29.402,378.606,30.917,371.955z"/>
<path fill="#FFFFFF" d="M215.891,362.76H45.618c-5.086,0-9.21,4.979-9.21,11.117v119.388H225.1V373.877
	C225.1,367.739,220.977,362.76,215.891,362.76z"/>
<path fill="#504441" d="M225.1,494.065H36.408c-0.366,0-0.667-0.358-0.667-0.8V373.877c0-6.573,4.432-11.921,9.876-11.921h170.273
	c5.443,0,9.874,5.348,9.874,11.921v119.388C225.765,493.707,225.464,494.065,225.1,494.065z M37.075,492.458h187.357v-118.58
	c0-5.687-3.833-10.312-8.542-10.312H45.618c-4.712,0-8.542,4.625-8.542,10.312V492.458z"/>
<rect x="46.648" y="376.006" fill="#F2F2F2" width="168.425" height="107.006"/>
<path fill="#504441" d="M215.736,483.818H45.98V375.206h169.756V483.818z M47.314,482.209h167.093V376.813H47.314V482.209z"/>
<path fill="#FFFFFF" stroke="#010101" stroke-miterlimit="10" d="M225.419,493.359H36.733v17.187c0,7.494,5.03,13.567,11.241,13.567
	h166.208c6.211,0,11.238-6.073,11.238-13.567V493.359z"/>
<rect x="65.645" y="457.562" fill="#FFFFFF" width="37.725" height="5"/>
<path fill="#504441" d="M103.37,463.364H65.645c-0.371,0-0.667-0.359-0.667-0.802v-5c0-0.446,0.297-0.805,0.667-0.805h37.725
	c0.368,0,0.667,0.358,0.667,0.805v5C104.037,463.004,103.738,463.364,103.37,463.364z M66.309,461.757h36.393v-3.393H66.309V461.757
	z"/>
<rect x="65.645" y="469.129" fill="#FFFFFF" width="37.725" height="5.008"/>
<path fill="#504441" d="M103.37,474.94H65.645c-0.371,0-0.667-0.359-0.667-0.803v-5.008c0-0.44,0.297-0.802,0.667-0.802h37.725
	c0.368,0,0.667,0.361,0.667,0.802v5.008C104.037,474.581,103.738,474.94,103.37,474.94z M66.309,473.334h36.393v-3.399H66.309
	V473.334z"/>
<path fill="#F3705C" stroke="#010101" stroke-miterlimit="10" d="M104.093,451.468H64.92v-21.905h39.173V451.468z"/>
<path fill="#FFCA63" stroke="#010101" stroke-miterlimit="10" d="M148.656,451.468h-39.171v-21.905h39.171V451.468z"/>
<path fill="#F3705C" stroke="#010101" stroke-miterlimit="10" d="M195.574,451.468h-39.171v-21.905h39.171V451.468z"/>
<rect x="110.608" y="457.562" fill="#FFFFFF" width="37.729" height="5"/>
<path fill="#504441" d="M148.337,463.364h-37.729c-0.369,0-0.666-0.359-0.666-0.802v-5c0-0.446,0.297-0.805,0.666-0.805h37.729
	c0.367,0,0.665,0.358,0.665,0.805v5C149.002,463.004,148.704,463.364,148.337,463.364z M111.273,461.757h36.4v-3.393h-36.4V461.757z
	"/>
<rect x="110.608" y="469.129" fill="#FFFFFF" width="37.729" height="5.008"/>
<path fill="#504441" d="M148.337,474.94h-37.729c-0.369,0-0.666-0.359-0.666-0.803v-5.008c0-0.44,0.297-0.802,0.666-0.802h37.729
	c0.367,0,0.665,0.361,0.665,0.802v5.008C149.002,474.581,148.704,474.94,148.337,474.94z M111.273,473.334h36.4v-3.399h-36.4
	V473.334z"/>
<rect x="155.578" y="457.562" fill="#FFFFFF" width="37.722" height="5"/>
<path fill="#504441" d="M193.3,463.364h-37.722c-0.369,0-0.668-0.359-0.668-0.802v-5c0-0.446,0.299-0.805,0.668-0.805H193.3
	c0.368,0,0.666,0.358,0.666,0.805v5C193.966,463.004,193.668,463.364,193.3,463.364z M156.242,461.757h36.392v-3.393h-36.392
	V461.757z"/>
<rect x="155.578" y="469.129" fill="#FFFFFF" width="37.722" height="5.008"/>
<path fill="#504441" d="M193.3,474.94h-37.722c-0.369,0-0.668-0.359-0.668-0.803v-5.008c0-0.44,0.299-0.802,0.668-0.802H193.3
	c0.368,0,0.666,0.361,0.666,0.802v5.008C193.966,474.581,193.668,474.94,193.3,474.94z M156.242,473.334h36.392v-3.399h-36.392
	V473.334z"/>
<rect x="59.697" y="387.17" fill="#1072BA" stroke="#010101" stroke-miterlimit="10" width="145.282" height="33.682"/>
<rect x="48.19" y="377.257" fill="#FFFFFF" width="166.807" height="7.676"/>
<rect x="45.98" y="376.663" fill="#FFFFFF" stroke="#010101" stroke-miterlimit="10" width="168.427" height="6.068"/>
<text transform="matrix(0.5854 0 0 1 49.1685 381.0962)" fill="none" stroke="#010101" stroke-width="0.25" stroke-miterlimit="10" font-family="'MyriadPro-Regular'" font-size="4.563">www.bonzertech.com</text>
<ellipse fill="#FFFFFF" cx="131.077" cy="508.736" rx="5.627" ry="6.595"/>
<path fill="#504441" d="M131.075,515.866c-3.353,0-6.082-3.198-6.082-7.13s2.729-7.131,6.082-7.131c3.356,0,6.083,3.199,6.083,7.131
	S134.432,515.866,131.075,515.866z M131.075,502.676c-2.85,0-5.17,2.718-5.17,6.06s2.32,6.063,5.17,6.063
	c2.854,0,5.173-2.721,5.173-6.063S133.929,502.676,131.075,502.676z"/>
<path fill="#FFFFFF" stroke="#010101" stroke-miterlimit="10" d="M177.522,502.872v11.563c0,7.685,4.92,13.935,10.968,13.935h61.745
	c6.047,0,10.967-6.25,10.967-13.935v-11.563H177.522z"/>
<path fill="#FFFFFF" stroke="#010101" stroke-miterlimit="10" d="M177.522,378.79h83.68v-10.436c0-8.124-4.92-14.732-10.967-14.732
	H188.49c-6.048,0-10.968,6.608-10.968,14.732V378.79z"/>
<rect x="177.522" y="377.549" fill="#FFFFFF" stroke="#010101" stroke-miterlimit="10" width="83.68" height="125.322"/>
<path fill="#FFFFFF" d="M225.055,516.501c0,3.721-2.549,6.734-5.69,6.734c-3.144,0-5.692-3.014-5.692-6.734
	c0-3.715,2.549-6.731,5.692-6.731C222.506,509.77,225.055,512.787,225.055,516.501z"/>
<path fill="#FFFFFF" stroke="#010101" stroke-miterlimit="10" d="M219.364,510.652c-2.728,0-4.947,2.624-4.947,5.85
	c0,3.229,2.219,5.853,4.947,5.853c2.727,0,4.945-2.623,4.945-5.853C224.31,513.276,222.091,510.652,219.364,510.652z"/>
<path fill="#FFFFFF" stroke="#010101" stroke-miterlimit="10" d="M230.031,366.465h-21.339c-0.412,0-0.744-0.394-0.744-0.881
	c0-0.484,0.333-0.88,0.744-0.88h21.339c0.412,0,0.746,0.396,0.746,0.88C230.777,366.072,230.443,366.465,230.031,366.465z"/>
<path fill="#FFCA63" stroke="#010101" stroke-miterlimit="10" d="M209.979,457.205c0.193,0,0.381,0.088,0.523,0.252
	c5.291,6.144,12.78,7.059,16.772,7.059c0.884,0,1.646-0.043,2.24-0.095c-4.465-6.275-5.502-10.467-5.856-16.156
	c-0.017-0.262,0.065-0.515,0.224-0.698c5.396-6.19,8.369-14.118,8.369-22.321c0-18.75-15.256-34.004-34.005-34.004
	c-18.753,0-34.007,15.254-34.007,34.004s15.254,34.004,34.007,34.004c3.949,0,7.826-0.675,11.517-2.007
	C209.834,457.217,209.907,457.205,209.979,457.205z"/>
<path fill="#1E9EC8" stroke="#010101" stroke-miterlimit="10" d="M183.106,420.046c-2.727,0-4.945,2.624-4.945,5.851
	c0,3.228,2.218,5.854,4.945,5.854c2.728,0,4.945-2.626,4.945-5.854C188.052,422.67,185.834,420.046,183.106,420.046z"/>
<path fill="#1E9EC8" stroke="#010101" stroke-miterlimit="10" d="M199.914,420.046c-2.727,0-4.947,2.624-4.947,5.851
	c0,3.228,2.22,5.854,4.947,5.854c2.727,0,4.946-2.626,4.946-5.854C204.859,422.67,202.641,420.046,199.914,420.046z"/>
<path fill="#1E9EC8" stroke="#010101" stroke-miterlimit="10" d="M216.014,420.046c-2.728,0-4.948,2.624-4.948,5.851
	c0,3.228,2.22,5.854,4.948,5.854c2.725,0,4.945-2.626,4.945-5.854C220.959,422.67,218.739,420.046,216.014,420.046z"/>
<path fill="#FFFFFF" stroke="#010101" stroke-miterlimit="10" d="M421.742,96.307l-13.42-9.853
	c2.426-6.865,0.818-15.109-4.131-19.949c-6.105-5.971-15.098-4.908-20.049,2.373c-0.26,0.383-0.503,0.784-0.736,1.194
	c-0.063,0.072-0.13,0.146-0.188,0.23l-19.255,28.319c-0.593,0.871-0.556,2.138,0.088,2.965l10.154,13.032l-10.001-1.111
	c-0.02-0.002-0.037,0-0.055,0l-4.982-2.392c-0.554-0.266-1.177-0.203-1.683,0.167c-0.505,0.372-0.835,1.009-0.886,1.717
	l-0.543,7.458l-0.541,7.458c-0.052,0.707,0.179,1.407,0.623,1.885c0.444,0.477,1.049,0.675,1.63,0.537l5.584-1.337l24.152,2.683
	l5.438,6.978c0.373,0.477,0.897,0.74,1.44,0.72c0.109-0.004,0.217-0.018,0.322-0.044c0.419-0.105,0.798-0.376,1.073-0.779
	l26.451-38.899c0.342-0.502,0.484-1.161,0.393-1.804C422.527,97.212,422.206,96.647,421.742,96.307z"/>
<polygon fill="#FFFFFF" stroke="#010101" stroke-miterlimit="10" points="360.13,116.429 362.034,117.343 361.488,124.841 
	359.485,125.319 "/>
<path fill="#FFFFFF" stroke="#010101" stroke-miterlimit="10" d="M402.244,67.9c3.498,3.422,4.736,9.152,3.25,14.072l-17.567-12.901
	C391.641,64.25,397.921,63.671,402.244,67.9z"/>
<path fill="#FFFFFF" stroke="#010101" stroke-miterlimit="10" d="M337.146,124.39c4.231-4.464,9.67-6.676,15.313-6.229
	c1.039,0.084,1.932-0.858,1.993-2.103c0.063-1.241-0.727-2.317-1.766-2.399c-6.646-0.525-13.054,2.081-18.038,7.339
	c-4.983,5.256-7.951,12.536-8.353,20.498c-0.061,1.243,0.727,2.317,1.765,2.398c0.176,0.014,0.344,0,0.507-0.04
	c0.808-0.2,1.438-1.026,1.486-2.062C330.396,135.035,332.915,128.854,337.146,124.39z"/>
<path fill="#FFFFFF" stroke="#010101" stroke-miterlimit="10" d="M352.73,120.113c-10.562-0.834-19.67,8.776-20.31,21.422
	c-0.063,1.243,0.728,2.318,1.766,2.4c0.175,0.015,0.343-0.001,0.504-0.041c0.808-0.199,1.436-1.025,1.49-2.062
	c0.512-10.163,7.833-17.887,16.323-17.218c1.038,0.084,1.931-0.858,1.993-2.101S353.768,120.196,352.73,120.113z"/>
<path fill="#010101" d="M163.299,319.863c-0.075,0-0.154-0.019-0.227-0.061c-0.237-0.135-0.353-0.456-0.271-0.751l0.666-2.386
	c0.081-0.288,0.328-0.459,0.579-0.418c0.254,0.049,0.441,0.309,0.441,0.613c0,0.904-0.253,1.819-0.749,2.722
	C163.638,319.763,163.471,319.863,163.299,319.863z"/>
<path fill="#010101" d="M162.879,320.524c-0.116,0-0.232-0.045-0.329-0.139c-0.221-0.211-0.258-0.597-0.083-0.862l0.346-0.524
	c0.174-0.264,0.493-0.319,0.721-0.119c0.229,0.198,0.285,0.574,0.122,0.85c-0.11,0.193-0.24,0.386-0.376,0.577
	C163.177,320.449,163.029,320.524,162.879,320.524z"/>
<path fill="#010101" d="M163.229,319.935c-0.097,0-0.196-0.033-0.28-0.102c-0.227-0.198-0.314-0.528-0.155-0.803l0.047-0.088
	c0.141-0.265,0.434-0.374,0.671-0.248c0.239,0.131,0.366,0.436,0.289,0.734c-0.02,0.07-0.06,0.175-0.097,0.233
	c-0.012,0.016-0.023,0.031-0.035,0.047l-0.011,0.02l-0.004-0.003C163.542,319.857,163.384,319.935,163.229,319.935z"/>
<path fill="#FFFFFF" stroke="#010101" stroke-miterlimit="10" d="M117.09,397.144c-0.086,0-0.173-0.026-0.254-0.076
	c-0.166-0.109-0.271-0.318-0.271-0.545v-25.362L83.18,320.284c-0.175-0.265-0.137-0.648,0.083-0.86
	c0.22-0.208,0.543-0.177,0.731,0.081c4.169,5.82,20.674,10.046,39.244,10.046c18.569,0,35.074-4.226,39.243-10.046
	c0.186-0.258,0.51-0.294,0.73-0.081c0.221,0.212,0.258,0.596,0.083,0.86l-33.386,50.877v16.138c0,0.211-0.092,0.409-0.243,0.521
	l-12.294,9.228C117.286,397.111,117.187,397.144,117.09,397.144z"/>
<path fill="#FFFFFF" stroke="#010101" stroke-miterlimit="10" d="M123.237,330.791c-19.156,0-35.621-4.313-40.045-10.484
	l-0.447-0.704c-0.022-0.042-0.055-0.115-0.068-0.164l-0.665-2.385c-0.019-0.061-0.028-0.127-0.028-0.192
	c0-7.811,18.12-13.928,41.253-13.928c23.132,0,41.251,6.117,41.251,13.928c0,0.065-0.009,0.132-0.025,0.192l-0.667,2.385
	c-0.012,0.049-0.03,0.096-0.053,0.136l-0.084,0.155l-0.366,0.558C158.859,326.478,142.392,330.791,123.237,330.791z"/>
<path fill="#FFFFFF" stroke="#010101" stroke-miterlimit="10" d="M128.189,359.683c-0.113,0-0.225-0.042-0.323-0.131
	c-0.227-0.21-0.269-0.599-0.093-0.868l15.004-22.895c0.178-0.271,0.506-0.317,0.735-0.109c0.228,0.211,0.27,0.599,0.092,0.871
	l-15.001,22.892C128.499,359.6,128.344,359.683,128.189,359.683z"/>
<path fill="#F3705C" stroke="#010101" stroke-miterlimit="10" d="M101.082,278.755c-2.745,0-4.977,2.64-4.977,5.886
	c0,3.244,2.231,5.886,4.977,5.886c2.743,0,4.976-2.642,4.976-5.886C106.057,281.395,103.825,278.755,101.082,278.755z"/>
<path fill="#F3705C" stroke="#010101" stroke-miterlimit="10" d="M114.733,308.424c-3.932,0-7.131,3.784-7.131,8.437
	c0,4.65,3.199,8.436,7.131,8.436s7.131-3.785,7.131-8.436C121.864,312.208,118.665,308.424,114.733,308.424z"/>
<path fill="#F3705C" stroke="#010101" stroke-miterlimit="10" d="M129.362,291.063c-1.916,0-3.474,1.844-3.474,4.111
	c0,2.265,1.558,4.109,3.474,4.109c1.917,0,3.476-1.845,3.476-4.109C132.838,292.907,131.28,291.063,129.362,291.063z"/>
<path fill="#F3705C" stroke="#010101" stroke-miterlimit="10" d="M149.607,275.967c-4.042,0-7.333,3.891-7.333,8.673
	s3.29,8.674,7.333,8.674s7.333-3.892,7.333-8.674S153.649,275.967,149.607,275.967z"/>
<ellipse fill="#FDD86B" stroke="#010101" stroke-miterlimit="10" cx="119.762" cy="252.746" rx="12.888" ry="15.246"/>
<path fill="#010101" d="M120.007,260.053v-1.578h-0.206c-0.078,0-0.16-0.002-0.248-0.007c-0.086-0.005-0.172-0.015-0.26-0.026
	l-0.115-0.015v1.626h-0.326v-1.691l-0.081-0.023c-0.562-0.159-1.044-0.458-1.432-0.896c-0.606-0.687-0.962-1.636-1.055-2.819h0.279
	c0.077,1.083,0.403,1.956,0.973,2.593c0.315,0.373,0.712,0.648,1.182,0.817l0.134,0.048v-5.312l0.326,0.106v5.266l0.087,0.017
	c0.186,0.037,0.371,0.055,0.55,0.055h0.191v-4.835l0.327,0.097v4.705l0.118-0.021c0.627-0.107,1.168-0.377,1.606-0.797
	c0.585-0.559,0.882-1.304,0.882-2.215c0-1.008-0.352-1.78-1.041-2.294c-0.334-0.24-1.06-0.549-2.159-0.924l-0.19-0.069
	c-1.214-0.403-1.982-0.775-2.285-1.111c-0.479-0.512-0.722-1.183-0.722-1.994c0-0.94,0.282-1.717,0.839-2.309
	c0.387-0.39,0.853-0.645,1.385-0.758l0.085-0.019v-1.905h0.326v1.86l0.12-0.023c0.054-0.01,0.108-0.016,0.162-0.016h0.311
	c0.034,0,0.071,0.005,0.113,0.016l0.122,0.028v-1.864h0.327v1.891l0.088,0.014c0.617,0.113,1.147,0.409,1.574,0.881
	c0.557,0.593,0.87,1.428,0.937,2.485h-0.264c-0.04-0.957-0.329-1.729-0.859-2.297c-0.377-0.412-0.832-0.682-1.352-0.803
	l-0.124-0.028v4.892l-0.327-0.108v-4.862h-0.561c-0.069,0-0.13,0.006-0.184,0.019l-0.083,0.021v4.493l-0.326-0.107v-4.353
	l-0.127,0.035c-0.468,0.132-0.857,0.36-1.156,0.675c-0.505,0.523-0.76,1.246-0.76,2.143c0,0.686,0.23,1.289,0.684,1.788
	c0.344,0.369,1.046,0.71,2.148,1.046c0.009,0.007,0.046,0.021,0.095,0.028c0.021,0.003,0.055,0.016,0.1,0.036
	c0.57,0.167,1.044,0.338,1.421,0.509c0.378,0.173,0.682,0.339,0.901,0.499c0.723,0.552,1.075,1.314,1.075,2.329
	c0,1.056-0.311,1.908-0.926,2.535c-0.484,0.484-1.119,0.791-1.887,0.917l-0.089,0.016v1.595H120.007z"/>
<path fill="#FFFFFF" d="M70.822,456.355c-0.004-0.283-0.006-0.564-0.017-0.846c-0.009-0.281-0.026-0.559-0.043-0.839
	c-0.009-0.141-0.016-0.282-0.026-0.423c-0.024-0.391-0.063-0.784-0.103-1.171c-0.001-0.023-0.001-0.037-0.004-0.058
	c-0.287-2.701-0.876-5.272-1.727-7.661c-0.016-0.049-0.034-0.101-0.051-0.147c-0.113-0.309-0.229-0.613-0.35-0.915
	c-0.045-0.115-0.088-0.229-0.134-0.342c-0.097-0.236-0.199-0.469-0.302-0.702c-0.073-0.169-0.145-0.335-0.222-0.5
	c-0.084-0.179-0.171-0.354-0.255-0.53c-0.1-0.207-0.202-0.412-0.305-0.614c-0.074-0.142-0.15-0.282-0.227-0.421
	c-0.119-0.223-0.239-0.446-0.366-0.663c-0.071-0.129-0.147-0.254-0.222-0.377c-0.131-0.223-0.261-0.441-0.396-0.652
	c-0.086-0.137-0.175-0.268-0.261-0.4c-0.126-0.192-0.254-0.387-0.384-0.572c-0.112-0.163-0.231-0.325-0.349-0.483
	c-0.106-0.146-0.211-0.293-0.318-0.436c-0.16-0.21-0.323-0.408-0.485-0.608c-0.07-0.087-0.138-0.174-0.21-0.259
	c-0.214-0.256-0.431-0.504-0.652-0.75c-0.022-0.024-0.043-0.048-0.063-0.069c-3.675-4.021-8.421-6.447-13.611-6.447
	c-1.644,0-3.243,0.253-4.779,0.713c-0.037,0.01-0.072,0.015-0.108,0.028c-0.037,0.009-0.071,0.023-0.107,0.036
	c-0.252,0.078-0.504,0.168-0.753,0.257c-0.099,0.033-0.195,0.071-0.291,0.108c-0.224,0.087-0.448,0.18-0.669,0.278
	c-0.127,0.053-0.252,0.103-0.377,0.165c-0.171,0.077-0.34,0.161-0.509,0.246c-0.175,0.084-0.349,0.173-0.521,0.265
	c-0.102,0.056-0.203,0.115-0.303,0.173c-0.237,0.132-0.472,0.267-0.7,0.408c-0.025,0.016-0.049,0.032-0.074,0.048
	c-8.222,5.137-13.074,16.74-11.647,28.686c0,0.023,0.005,0.044,0.005,0.066c0.05,0.394,0.103,0.787,0.164,1.178
	c0.017,0.117,0.037,0.229,0.058,0.339c0.033,0.203,0.059,0.408,0.095,0.608c0.022,0.109,0.047,0.216,0.069,0.326
	c0.033,0.167,0.069,0.335,0.102,0.499c0.054,0.267,0.113,0.534,0.174,0.795c0.042,0.177,0.087,0.354,0.131,0.528
	c0.065,0.259,0.13,0.519,0.201,0.773c0.043,0.152,0.088,0.303,0.135,0.456c0.08,0.278,0.164,0.556,0.251,0.83
	c0.036,0.108,0.073,0.215,0.109,0.321c0.104,0.314,0.212,0.63,0.328,0.938c0.017,0.05,0.039,0.103,0.058,0.156
	c1.042,2.766,2.418,5.238,4.051,7.347c0.002,0,0.004,0.003,0.004,0.007c0.23,0.293,0.465,0.585,0.703,0.867
	c0.085,0.101,0.172,0.195,0.259,0.294c0.159,0.179,0.316,0.358,0.477,0.533c0.19,0.203,0.384,0.398,0.579,0.594
	c0.061,0.061,0.123,0.125,0.186,0.188c2.117,2.073,4.547,3.636,7.182,4.557c0.017,0.005,0.034,0.014,0.051,0.021
	c0.261,0.091,0.525,0.171,0.791,0.249c0.086,0.024,0.171,0.053,0.259,0.077c0.203,0.056,0.408,0.105,0.612,0.154
	c0.152,0.036,0.303,0.073,0.456,0.104c0.152,0.032,0.306,0.059,0.458,0.087c0.209,0.035,0.416,0.072,0.625,0.1
	c0.114,0.019,0.226,0.028,0.337,0.042c0.249,0.029,0.496,0.055,0.748,0.076c0.093,0.006,0.184,0.011,0.279,0.016
	c0.263,0.013,0.526,0.022,0.788,0.023c0.037,0.002,0.075,0.004,0.113,0.004c0.068,0,0.133-0.005,0.199-0.007
	c0.239-0.004,0.479-0.013,0.717-0.021c0.153-0.01,0.304-0.023,0.453-0.037c0.182-0.016,0.36-0.029,0.54-0.055
	c0.22-0.022,0.44-0.055,0.659-0.088c0.106-0.019,0.21-0.037,0.317-0.054c0.291-0.053,0.584-0.112,0.871-0.181
	c0.037-0.006,0.074-0.017,0.107-0.021c8.486-2.035,15.189-10.639,16.833-21.581c0.005-0.027,0.009-0.057,0.011-0.084
	c0.058-0.377,0.109-0.76,0.152-1.144c0.019-0.171,0.034-0.343,0.05-0.517c0.026-0.25,0.054-0.494,0.074-0.746
	c0.035-0.446,0.061-0.89,0.078-1.34c0.001-0.02,0.001-0.034,0.002-0.053c0.017-0.43,0.024-0.86,0.024-1.294
	c0-0.02,0.002-0.042,0.002-0.063C70.829,456.616,70.824,456.486,70.822,456.355z"/>
<path fill="#010101" d="M49.74,484.563l-0.131-0.005c-0.252-0.002-0.519-0.011-0.787-0.024l-0.287-0.017
	c-0.255-0.021-0.507-0.047-0.757-0.074l-0.349-0.044c-0.205-0.027-0.413-0.063-0.621-0.103c-0.208-0.036-0.346-0.06-0.484-0.087
	c-0.111-0.022-0.226-0.051-0.338-0.077l-0.122-0.028c-0.218-0.054-0.424-0.103-0.628-0.159l-0.261-0.076
	c-0.273-0.083-0.542-0.163-0.809-0.257c-2.708-0.949-5.172-2.511-7.372-4.665l-0.187-0.19c-0.201-0.201-0.397-0.397-0.59-0.604
	c-0.167-0.182-0.327-0.364-0.486-0.547l-0.266-0.3c-0.238-0.282-0.472-0.571-0.702-0.863c-0.006-0.009-0.013-0.017-0.02-0.024
	c-1.692-2.188-3.081-4.708-4.129-7.491l0.31-0.389l-0.37,0.228c-0.115-0.313-0.228-0.636-0.334-0.956l-0.108-0.32
	c-0.091-0.289-0.178-0.571-0.26-0.853l-0.136-0.465c-0.062-0.222-0.12-0.446-0.177-0.673l-0.161-0.653
	c-0.063-0.267-0.124-0.541-0.18-0.814l-0.171-0.828c-0.023-0.138-0.043-0.263-0.063-0.391l-0.095-0.583
	c-0.063-0.398-0.117-0.797-0.167-1.199c-0.003-0.02-0.009-0.105-0.01-0.126c-1.426-11.9,3.457-23.926,11.878-29.187l0.068-0.045
	c0.24-0.149,0.481-0.287,0.722-0.421l0.309-0.176c0.175-0.095,0.353-0.186,0.532-0.272c0.202-0.101,0.36-0.179,0.521-0.249
	c0.124-0.062,0.255-0.116,0.389-0.171c0.215-0.097,0.445-0.191,0.672-0.28l0.303-0.112c0.258-0.093,0.511-0.182,0.762-0.262
	l0.122-0.038c0.005-0.002,0.084-0.023,0.088-0.024c6.654-1.991,13.642,0.248,18.755,5.844l0.065,0.071
	c0.225,0.252,0.446,0.504,0.666,0.765l0.212,0.264c0.167,0.205,0.333,0.406,0.494,0.62l0.386,0.525
	c0.1,0.136,0.199,0.272,0.296,0.414c0.132,0.187,0.262,0.384,0.39,0.583l0.088,0.133c0.061,0.091,0.122,0.182,0.18,0.276
	c0.136,0.211,0.269,0.435,0.403,0.665c0.073,0.119,0.151,0.25,0.227,0.386c0.125,0.213,0.25,0.443,0.372,0.673
	c0.074,0.136,0.155,0.282,0.231,0.43c0.106,0.205,0.208,0.415,0.309,0.626l0.258,0.534c0.082,0.172,0.155,0.345,0.231,0.521
	c0.102,0.23,0.206,0.469,0.304,0.709l0.105,0.265c0.156,0.39,0.274,0.702,0.389,1.016l0.056,0.161
	c0.878,2.467,1.469,5.096,1.756,7.803c0.046,0.453,0.086,0.853,0.111,1.254l0.035,0.568c0.013,0.237,0.026,0.476,0.035,0.718
	c0.009,0.229,0.011,0.465,0.014,0.701l0.011,0.56c-0.002,0.506-0.011,0.945-0.027,1.383c-0.02,0.51-0.045,0.967-0.082,1.422
	c-0.015,0.203-0.037,0.402-0.059,0.604l-0.065,0.678c-0.048,0.397-0.097,0.783-0.156,1.17c-1.68,11.182-8.576,20.022-17.172,22.084
	l-0.086,0.021c-0.316,0.071-0.613,0.133-0.91,0.187l-0.324,0.055c-0.227,0.035-0.452,0.069-0.677,0.092
	c-0.147,0.021-0.308,0.034-0.467,0.048l-0.166-0.518l0.028,0.528c-0.132,0.014-0.266,0.025-0.404,0.032
	c-0.243,0.011-0.487,0.019-0.729,0.021L49.74,484.563z M35.127,475.67c0.225,0.289,0.457,0.574,0.691,0.853l0.253,0.287
	c0.157,0.179,0.312,0.356,0.47,0.528c0.184,0.193,0.373,0.386,0.566,0.576l0.185,0.192c2.113,2.066,4.481,3.568,7.038,4.462
	c0.307,0.109,0.566,0.189,0.825,0.266l0.257,0.075c0.193,0.054,0.393,0.101,0.591,0.15l0.451,0.102
	c0.132,0.029,0.262,0.051,0.394,0.073c0.271,0.049,0.469,0.083,0.667,0.11l0.264,0.033c0.314,0.036,0.559,0.061,0.805,0.082
	l0.271,0.015c0.258,0.012,0.514,0.022,0.773,0.023l0.111,0.003l0.111-0.004c0.003,0,0.079-0.002,0.083-0.002
	c0.235-0.003,0.474-0.011,0.707-0.021c0.125-0.008,0.254-0.019,0.379-0.029l0.14-0.014c0.15-0.012,0.297-0.024,0.444-0.045
	c0.225-0.024,0.439-0.055,0.652-0.086l0.315-0.056c0.283-0.05,0.569-0.109,0.852-0.176l0.131-0.026
	c8.24-1.978,14.874-10.481,16.479-21.155c0.066-0.455,0.115-0.83,0.159-1.203l0.065-0.67c0.02-0.189,0.04-0.376,0.055-0.569
	c0.034-0.437,0.06-0.871,0.075-1.312c0.021-0.474,0.027-0.898,0.027-1.322l-0.006-0.604c-0.003-0.226-0.007-0.449-0.016-0.672
	c-0.006-0.234-0.02-0.46-0.035-0.686l-0.031-0.55c-0.024-0.391-0.062-0.775-0.103-1.155c-0.28-2.655-0.849-5.184-1.696-7.567
	l-0.048-0.135c-0.112-0.309-0.226-0.607-0.346-0.903c0-0.003-0.037-0.099-0.04-0.102l-0.091-0.236
	c-0.095-0.229-0.196-0.458-0.296-0.686c-0.072-0.169-0.144-0.332-0.217-0.489l-0.252-0.524c-0.097-0.204-0.197-0.404-0.298-0.599
	c-0.071-0.141-0.145-0.277-0.218-0.409c-0.12-0.225-0.236-0.441-0.36-0.652c-0.073-0.13-0.144-0.247-0.214-0.366
	c-0.134-0.226-0.259-0.438-0.391-0.643l-0.261-0.4c-0.122-0.187-0.248-0.376-0.373-0.556c-0.095-0.136-0.189-0.267-0.284-0.396
	l-0.375-0.512c-0.154-0.2-0.312-0.395-0.47-0.589l-0.206-0.255c-0.212-0.254-0.427-0.499-0.644-0.738l-0.071-0.08
	c-4.907-5.369-11.655-7.522-18.021-5.61l-0.182-0.494l0.098,0.514l-0.193-0.483l0.109,0.511c-0.289,0.092-0.532,0.179-0.774,0.266
	l-0.22,0.081c-0.29,0.111-0.507,0.2-0.724,0.299c-0.132,0.053-0.251,0.102-0.367,0.159c-0.161,0.073-0.311,0.148-0.46,0.223
	c-0.22,0.105-0.389,0.191-0.555,0.281l-0.222,0.125l-0.074,0.045c-0.238,0.132-0.468,0.264-0.69,0.4
	c-8.171,5.109-12.868,16.676-11.493,28.177c0.002,0.024,0.009,0.118,0.009,0.146c0.044,0.3,0.096,0.687,0.156,1.071l0.097,0.59
	c0.017,0.114,0.035,0.229,0.054,0.34l0.169,0.813c0.052,0.262,0.109,0.521,0.17,0.777l0.157,0.631
	c0.054,0.216,0.11,0.432,0.169,0.645l0.13,0.447c0.083,0.277,0.165,0.55,0.251,0.82l0.103,0.304
	c0.106,0.316,0.213,0.625,0.325,0.928l-0.313,0.383l0.368-0.232c1.006,2.671,2.338,5.088,3.96,7.188
	C35.116,475.657,35.122,475.665,35.127,475.67L35.127,475.67z"/>
<path fill="#FFFFFF" d="M49.74,419.825c-15.759,0-28.533,16.539-28.533,36.925c0,7.75,1.849,14.934,5.008,20.872L2.468,508.33
	c-3.524,5.78,0,10.464,0,10.464c0.462,0.581,0.921,1.021,1.376,1.371c3.609,2.783,6.901-0.884,6.901-0.884l24.035-31.095
	c0.056,0.049,0.118,0.086,0.18,0.134c4.314,3.382,9.367,5.344,14.78,5.344c15.762,0,28.538-16.533,28.538-36.914
	C78.278,436.364,65.502,419.825,49.74,419.825z M70.802,458.106c-0.001,0.019-0.001,0.033-0.002,0.053
	c-0.017,0.45-0.042,0.894-0.078,1.34c-0.02,0.252-0.048,0.496-0.074,0.746c-0.016,0.174-0.031,0.346-0.05,0.517
	c-0.043,0.384-0.095,0.767-0.152,1.144c-0.002,0.027-0.006,0.057-0.011,0.084c-1.644,10.942-8.346,19.546-16.833,21.581
	c-0.034,0.005-0.07,0.016-0.107,0.021c-0.287,0.068-0.581,0.128-0.871,0.181c-0.107,0.017-0.211,0.035-0.317,0.054
	c-0.219,0.033-0.439,0.065-0.659,0.088c-0.18,0.025-0.358,0.039-0.54,0.055c-0.149,0.014-0.3,0.027-0.453,0.037
	c-0.238,0.008-0.478,0.017-0.717,0.021c-0.066,0.002-0.131,0.007-0.199,0.007c-0.038,0-0.076-0.002-0.113-0.004
	c-0.262-0.001-0.525-0.011-0.788-0.023c-0.096-0.005-0.187-0.01-0.279-0.016c-0.252-0.021-0.499-0.047-0.748-0.076
	c-0.111-0.014-0.223-0.023-0.337-0.042c-0.209-0.027-0.416-0.064-0.625-0.1c-0.153-0.028-0.306-0.055-0.458-0.087
	c-0.153-0.03-0.304-0.067-0.456-0.104c-0.204-0.049-0.41-0.099-0.612-0.154c-0.088-0.024-0.173-0.053-0.259-0.077
	c-0.265-0.078-0.529-0.158-0.791-0.249c-0.017-0.007-0.034-0.016-0.051-0.021c-2.634-0.921-5.064-2.483-7.182-4.557
	c-0.063-0.063-0.125-0.128-0.186-0.188c-0.194-0.195-0.389-0.391-0.579-0.594c-0.16-0.175-0.317-0.354-0.477-0.533
	c-0.086-0.099-0.173-0.193-0.259-0.294c-0.238-0.282-0.473-0.574-0.703-0.867c0-0.004-0.002-0.007-0.004-0.007
	c-1.633-2.108-3.008-4.581-4.051-7.347c-0.019-0.054-0.041-0.106-0.058-0.156c-0.115-0.308-0.223-0.623-0.328-0.938
	c-0.037-0.106-0.073-0.213-0.109-0.321c-0.087-0.274-0.172-0.552-0.251-0.83c-0.046-0.153-0.091-0.304-0.135-0.456
	c-0.071-0.255-0.136-0.515-0.201-0.773c-0.044-0.174-0.089-0.352-0.131-0.528c-0.062-0.261-0.121-0.528-0.174-0.795
	c-0.033-0.164-0.069-0.332-0.102-0.499c-0.022-0.11-0.047-0.217-0.069-0.326c-0.036-0.2-0.063-0.405-0.095-0.608
	c-0.021-0.11-0.041-0.222-0.058-0.339c-0.061-0.391-0.114-0.784-0.164-1.178c0-0.022-0.005-0.043-0.005-0.066
	c-1.427-11.945,3.425-23.549,11.647-28.686c0.025-0.016,0.049-0.032,0.074-0.048c0.228-0.142,0.463-0.276,0.7-0.408
	c0.101-0.058,0.202-0.117,0.303-0.173c0.173-0.092,0.347-0.181,0.521-0.265c0.169-0.085,0.338-0.169,0.509-0.246
	c0.125-0.063,0.25-0.112,0.377-0.165c0.221-0.099,0.445-0.191,0.669-0.278c0.095-0.037,0.192-0.075,0.291-0.108
	c0.249-0.089,0.5-0.179,0.753-0.257c0.036-0.013,0.07-0.027,0.107-0.036c0.036-0.014,0.071-0.019,0.108-0.028
	c1.536-0.46,3.135-0.713,4.779-0.713c5.19,0,9.936,2.426,13.611,6.447c0.019,0.021,0.04,0.045,0.063,0.069
	c0.221,0.246,0.438,0.494,0.652,0.75c0.072,0.085,0.14,0.172,0.21,0.259c0.163,0.2,0.326,0.398,0.485,0.608
	c0.107,0.143,0.212,0.289,0.318,0.436c0.117,0.158,0.236,0.32,0.349,0.483c0.13,0.186,0.258,0.38,0.384,0.572
	c0.086,0.133,0.175,0.264,0.261,0.4c0.135,0.211,0.265,0.43,0.396,0.652c0.075,0.123,0.15,0.248,0.222,0.377
	c0.126,0.217,0.247,0.44,0.366,0.663c0.076,0.139,0.153,0.279,0.227,0.421c0.103,0.202,0.205,0.407,0.305,0.614
	c0.084,0.177,0.171,0.352,0.255,0.53c0.077,0.165,0.148,0.331,0.222,0.5c0.104,0.233,0.206,0.466,0.302,0.702
	c0.045,0.113,0.089,0.227,0.134,0.342c0.121,0.302,0.237,0.606,0.35,0.915c0.018,0.047,0.036,0.099,0.051,0.147
	c0.85,2.389,1.44,4.96,1.727,7.661c0.003,0.021,0.003,0.034,0.004,0.058c0.041,0.387,0.079,0.78,0.103,1.171
	c0.01,0.141,0.017,0.282,0.026,0.423c0.017,0.28,0.034,0.558,0.043,0.839c0.011,0.281,0.013,0.563,0.017,0.846
	c0.002,0.131,0.007,0.261,0.007,0.395c0,0.021-0.002,0.043-0.002,0.063C70.827,457.246,70.819,457.676,70.802,458.106z"/>
<path fill="#FFFFFF" stroke="#010101" stroke-miterlimit="10" d="M6.688,521.738c-1.063,0-2.093-0.376-3.054-1.118
	c-0.522-0.4-0.997-0.875-1.452-1.446c-0.045-0.06-3.739-5.097-0.037-11.173l23.539-30.445c-3.199-6.164-4.887-13.35-4.887-20.806
	c0-20.652,12.984-37.455,28.942-37.455c15.961,0,28.947,16.803,28.947,37.455c0,20.646-12.986,37.442-28.947,37.442
	c-5.245,0-10.392-1.846-14.894-5.343l-23.812,30.806C10.938,519.767,9.139,521.738,6.688,521.738z"/>
<path fill="#FFFFFF" stroke="#010101" stroke-miterlimit="10" d="M49.74,484.563l-0.131-0.005c-0.252-0.002-0.519-0.011-0.787-0.024
	l-0.287-0.017c-0.255-0.021-0.507-0.047-0.757-0.074l-0.349-0.044c-0.205-0.027-0.414-0.065-0.623-0.103
	c-0.207-0.033-0.345-0.06-0.483-0.087c-0.111-0.022-0.224-0.05-0.338-0.077l-0.122-0.028c-0.219-0.054-0.424-0.103-0.628-0.159
	l-0.261-0.076c-0.273-0.083-0.542-0.163-0.809-0.257c-2.708-0.949-5.172-2.511-7.372-4.665l-0.187-0.19
	c-0.201-0.201-0.397-0.397-0.59-0.604c-0.167-0.182-0.327-0.364-0.486-0.547l-0.266-0.3c-0.238-0.282-0.472-0.571-0.702-0.863
	c-0.006-0.009-0.013-0.017-0.02-0.024c-1.692-2.188-3.081-4.708-4.129-7.491l0.31-0.389l-0.37,0.228
	c-0.115-0.313-0.228-0.636-0.334-0.956l-0.108-0.32c-0.091-0.289-0.178-0.571-0.26-0.853l-0.136-0.465
	c-0.062-0.222-0.12-0.446-0.177-0.674l-0.161-0.652c-0.063-0.267-0.124-0.541-0.18-0.814l-0.171-0.828
	c-0.023-0.138-0.043-0.263-0.063-0.391l-0.095-0.583c-0.063-0.398-0.117-0.797-0.167-1.199c-0.003-0.02-0.009-0.105-0.01-0.126
	c-1.426-11.9,3.457-23.926,11.878-29.187l0.068-0.045c0.24-0.149,0.481-0.287,0.722-0.421l0.309-0.176
	c0.175-0.095,0.353-0.186,0.532-0.272c0.205-0.101,0.36-0.179,0.521-0.249c0.124-0.062,0.255-0.116,0.389-0.171
	c0.215-0.097,0.445-0.191,0.672-0.28l0.303-0.112c0.258-0.093,0.511-0.182,0.762-0.262l0.122-0.038
	c0.005-0.002,0.084-0.023,0.088-0.024c6.654-1.991,13.642,0.248,18.755,5.844l0.065,0.071c0.225,0.252,0.446,0.504,0.666,0.765
	l0.212,0.264c0.167,0.205,0.333,0.406,0.494,0.62l0.386,0.524c0.1,0.137,0.199,0.273,0.296,0.415
	c0.132,0.187,0.262,0.384,0.39,0.583l0.087,0.132c0.062,0.091,0.123,0.183,0.181,0.277c0.136,0.211,0.269,0.435,0.403,0.665
	c0.073,0.119,0.151,0.25,0.227,0.386c0.125,0.213,0.25,0.443,0.372,0.673c0.074,0.136,0.155,0.282,0.231,0.43
	c0.106,0.205,0.208,0.415,0.309,0.626l0.258,0.534c0.082,0.172,0.155,0.345,0.23,0.521c0.103,0.23,0.207,0.469,0.305,0.709
	l0.105,0.265c0.156,0.39,0.274,0.702,0.389,1.016l0.056,0.161c0.878,2.467,1.469,5.096,1.756,7.803
	c0.046,0.453,0.086,0.853,0.111,1.254l0.035,0.566c0.013,0.239,0.026,0.478,0.035,0.72c0.009,0.229,0.011,0.465,0.014,0.701
	l0.011,0.56c-0.002,0.506-0.011,0.945-0.027,1.383c-0.02,0.51-0.045,0.967-0.082,1.422c-0.015,0.203-0.037,0.402-0.059,0.604
	l-0.065,0.678c-0.048,0.397-0.097,0.783-0.156,1.17c-1.68,11.182-8.576,20.022-17.172,22.084c0,0-0.086,0.021-0.088,0.021
	c-0.314,0.071-0.612,0.133-0.908,0.187l-0.324,0.055c-0.227,0.035-0.452,0.069-0.677,0.092c-0.149,0.021-0.308,0.035-0.467,0.048
	l-0.167-0.518l0.03,0.528c-0.132,0.014-0.268,0.025-0.404,0.032c-0.243,0.011-0.487,0.019-0.729,0.021L49.74,484.563z"/>
<line fill="none" stroke="#010101" stroke-miterlimit="10" x1="36.028" y1="456.751" x2="46.405" y2="440.32"/>
<line fill="none" stroke="#010101" stroke-miterlimit="10" x1="49.74" y1="469.742" x2="60.119" y2="453.311"/>
<line fill="none" stroke="#010101" stroke-miterlimit="10" x1="37.973" y1="469.742" x2="60.119" y2="438.642"/>
<path fill="#FFFFFF" stroke="#010101" stroke-miterlimit="10" d="M507.883,425.522H403.971c-6.665,0-12.067,6.39-12.067,14.272
	v86.445h46.888l3.603,4.261h10.979h16.089l3.604-4.261h46.885v-86.445C519.951,431.912,514.548,425.522,507.883,425.522z"/>
<path fill="#FFFFFF" stroke="#010101" stroke-miterlimit="10" d="M519.951,516.225h-46.887l-3.603,4.262h-16.091h-10.977
	l-3.604-4.262h-46.886h-15.42c0,7.886,5.405,14.275,12.067,14.275h134.752c6.664,0,12.067-6.39,12.067-14.275H519.951z"/>
<line fill="none" stroke="#010101" stroke-miterlimit="10" x1="406.729" y1="507.584" x2="497.55" y2="507.584"/>
<path fill="#FFFFFF" stroke="#010101" stroke-miterlimit="10" d="M480.928,504.233c-1.563,0-2.833,1.503-2.833,3.352
	c0,1.848,1.271,3.35,2.833,3.35c1.56,0,2.831-1.502,2.831-3.35C483.759,505.736,482.488,504.233,480.928,504.233z"/>
<rect x="417.288" y="438.747" fill="#FFFFFF" stroke="#010101" stroke-miterlimit="10" width="69.705" height="61.394"/>
<polygon fill="#F05B70" stroke="#010101" stroke-miterlimit="10" points="445.558,460.455 458.72,469.443 445.558,478.435 "/>
<path fill="#FFFFFF" stroke="#010101" stroke-miterlimit="10" d="M410.747,521.763v6.063c0,3.503,3.368,6.343,7.521,6.343h7.971
	c4.154,0,7.521-2.84,7.521-6.343v-6.063H410.747z"/>
<rect x="410.752" y="377.88" fill="#FEEF8F" stroke="#010101" stroke-miterlimit="10" width="23.013" height="143.883"/>
<polygon fill="#FFFFFF" stroke="#010101" stroke-miterlimit="10" points="422.263,346.987 428.154,362.691 434.046,378.394 
	422.263,378.394 410.479,378.394 416.371,362.691 "/>
<line fill="none" stroke="#010101" stroke-miterlimit="10" x1="414.601" y1="378.834" x2="414.601" y2="521.763"/>
<line fill="none" stroke="#010101" stroke-miterlimit="10" x1="419.956" y1="378.834" x2="419.956" y2="521.763"/>
<line fill="none" stroke="#010101" stroke-miterlimit="10" x1="425.172" y1="378.834" x2="425.172" y2="521.763"/>
<line fill="none" stroke="#010101" stroke-miterlimit="10" x1="429.757" y1="378.834" x2="429.757" y2="521.763"/>
<path fill="#FFFFFF" stroke="#010101" stroke-miterlimit="10" d="M378.454,482.293c0,2.033-1.731,3.683-3.865,3.683h-14.806
	c-2.134,0-3.862-1.649-3.862-3.683v-21.858c0-2.033,1.729-3.682,3.862-3.682h14.806c2.134,0,3.865,1.648,3.865,3.682V482.293z"/>
<path fill="#F3705C" stroke="#010101" stroke-miterlimit="10" d="M408.139,531.648c0,0-76.011,1.129-76.011-0.903
	c0,0-8.685-52.551,15.323-59.682c10.228-3.038,32.535-2.755,42.849,0C414.71,477.582,410.275,531.648,408.139,531.648z"/>
<path fill="#010101" stroke="#010101" stroke-miterlimit="10" d="M341.343,454.496l-2.942-10.642c0,0-7.232-35.223,5.674-41.334
	c15.624-7.398,34.433-9.817,48.203-0.612c9.554,6.383,11.237,57.515,3.152,58.778c-2.182,0.341-3.146-8.375-9.381-8.929
	c-6.375-0.57-11.289-17.679-18.28-18.555c-6.29-0.789-14.774,14.653-18.744,14.103C345.716,446.847,341.343,454.496,341.343,454.496
	z"/>
<path fill="#FFFFFF" d="M344.075,426.13v16.327c0,13.103,11.144,23.723,24.89,23.723c13.747,0,24.892-10.62,24.892-23.723v-7.343
	C376.999,433.253,359.524,420.44,344.075,426.13z"/>
<path fill="#FEEF8F" stroke="#010101" stroke-miterlimit="10" d="M368.964,466.558c-13.944,0-25.288-10.812-25.288-24.101V426.13
	c0-0.156,0.102-0.297,0.254-0.354c2.689-0.989,3.948,0.009,8.842-3.926c22.209-17.869,22.653-3.756,29.419-4.135
	c6.671-0.375,5.417,16.328,11.711,17.024c0.199,0.021,0.352,0.183,0.352,0.374v7.343
	C394.253,455.747,382.909,466.558,368.964,466.558z"/>
<rect x="333.92" y="414.642" fill="#FFCA63" stroke="#010101" stroke-miterlimit="10" width="4.083" height="32.287"/>
<path fill="#FFCA63" stroke="#010101" stroke-miterlimit="10" d="M338.003,447.307h-4.083c-0.221,0-0.397-0.17-0.397-0.378v-32.287
	c0-0.208,0.177-0.378,0.397-0.378h4.083c0.22,0,0.397,0.17,0.397,0.378v32.287C338.401,447.137,338.223,447.307,338.003,447.307z"/>
<path fill="#FFCA63" stroke="#010101" stroke-miterlimit="10" d="M333.92,443.854h-1.917c-4.011,0-7.259-3.099-7.259-6.918v-12.301
	c0-3.821,3.248-6.919,7.259-6.919h1.917V443.854z"/>
<path fill="#FFCA63" stroke="#010101" stroke-miterlimit="10" d="M333.92,444.233h-1.917c-4.221,0-7.655-3.273-7.655-7.297v-12.301
	c0-4.023,3.435-7.297,7.655-7.297h1.917c0.219,0,0.396,0.169,0.396,0.378v26.138C334.317,444.064,334.139,444.233,333.92,444.233z"
	/>
<rect x="321.064" y="424.442" fill="#FFCA63" stroke="#010101" stroke-miterlimit="10" width="3.681" height="12.685"/>
<path fill="#FFCA63" stroke="#010101" stroke-miterlimit="10" d="M324.745,437.507h-3.681c-0.219,0-0.396-0.172-0.396-0.381v-12.685
	c0-0.208,0.178-0.378,0.396-0.378h3.681c0.22,0,0.398,0.17,0.398,0.378v12.685C325.143,437.335,324.964,437.507,324.745,437.507z"/>
<rect x="399.469" y="414.642" fill="#FFCA63" stroke="#010101" stroke-miterlimit="10" width="4.084" height="32.287"/>
<path fill="#FFCA63" stroke="#010101" stroke-miterlimit="10" d="M399.072,446.929v-32.287c0-0.208,0.177-0.378,0.397-0.378h4.084
	c0.219,0,0.396,0.17,0.396,0.378v32.287c0,0.207-0.177,0.376-0.396,0.376h-4.084C399.249,447.305,399.072,447.136,399.072,446.929z"
	/>
<path fill="#FFCA63" stroke="#010101" stroke-miterlimit="10" d="M403.553,443.854h1.913c4.014,0,7.261-3.099,7.261-6.919v-12.3
	c0-3.821-3.247-6.919-7.261-6.919h-1.913V443.854z"/>
<path fill="#FFCA63" stroke="#010101" stroke-miterlimit="10" d="M403.158,443.854v-26.138c0-0.21,0.176-0.38,0.396-0.38h1.913
	c4.225,0,7.659,3.275,7.659,7.299v12.3c0,4.023-3.435,7.297-7.659,7.297h-1.913C403.333,444.232,403.158,444.063,403.158,443.854z"
	/>
<rect x="412.727" y="424.442" fill="#FFCA63" stroke="#010101" stroke-miterlimit="10" width="3.682" height="12.685"/>
<path fill="#FFCA63" stroke="#010101" stroke-miterlimit="10" d="M412.331,437.126v-12.685c0-0.208,0.178-0.379,0.396-0.379h3.682
	c0.219,0,0.397,0.171,0.397,0.379v12.685c0,0.209-0.179,0.378-0.397,0.378h-3.682C412.508,437.504,412.331,437.335,412.331,437.126z
	"/>
<path fill="#FFCA63" stroke="#010101" stroke-miterlimit="10" d="M371.379,465.176c-1.99,0-3.61,1.541-3.61,3.439
	c0,1.896,1.62,3.438,3.61,3.438h7.2c1.992,0,3.611-1.542,3.611-3.438c0-1.898-1.619-3.439-3.611-3.439H371.379z"/>
<path fill="none" stroke="#010101" stroke-miterlimit="10" d="M358.092,454.496c1.062,3.146,13.284,7.547,20.682,1.493"/>
<path fill="none" stroke="#010101" stroke-miterlimit="10" d="M329.331,417.797c0,0,4.986-39.449,32.193-39.209
	c42.599,0.377,40.484,36.054,40.484,36.054"/>
<path fill="none" stroke="#010101" stroke-miterlimit="10" d="M403.553,442.057c0,0,4.955,22.103-4.481,24.863
	c-9.438,2.762-16.881,1.695-16.881,1.695"/>
<path fill="none" stroke="#010101" stroke-miterlimit="10" d="M350.125,430.818c0,0,3.878-1.225,7.733,0
	c3.855,1.227,3.855,1.227,3.855,1.227"/>
<path fill="none" stroke="#010101" stroke-miterlimit="10" d="M372.979,431.559c0,0,3.88-0.767,7.734,0
	c3.855,0.766,3.855,0.766,3.855,0.766"/>
<line fill="none" stroke="#010101" stroke-miterlimit="10" x1="351.936" y1="435.656" x2="359.904" y2="435.656"/>
<line fill="none" stroke="#010101" stroke-miterlimit="10" x1="374.47" y1="435.656" x2="382.437" y2="435.656"/>
<path fill="#FEEF8F" stroke="#010101" stroke-miterlimit="10" d="M103.619,520.713h66.966v-53.061l-33.058,30.761
	c-0.248,0.231-0.601,0.231-0.848,0l-33.061-30.761V520.713z"/>
<polygon fill="#FFFFFF" stroke="#010101" stroke-miterlimit="10" points="170.585,467.418 103.619,467.418 137.102,499.207 "/>
<path fill="#010101" d="M177.104,485.06H158.32c-0.251,0-0.456-0.241-0.456-0.541c0-0.298,0.204-0.538,0.456-0.538h18.784
	c0.251,0,0.455,0.24,0.455,0.538C177.559,484.819,177.355,485.06,177.104,485.06z"/>
<path fill="#010101" d="M198.963,499.617h-40.621c-0.251,0-0.456-0.24-0.456-0.537c0-0.3,0.204-0.541,0.456-0.541h40.621
	c0.251,0,0.456,0.241,0.456,0.541C199.418,499.376,199.214,499.617,198.963,499.617z"/>
<path fill="#010101" d="M212.55,514.431h-54.208c-0.251,0-0.456-0.24-0.456-0.538c0-0.297,0.204-0.538,0.456-0.538h54.208
	c0.251,0,0.455,0.241,0.455,0.538C213.005,514.191,212.801,514.431,212.55,514.431z"/>
<path fill="#1E9EC8" stroke="#010101" stroke-miterlimit="10" d="M264.812,347.834c-2.06,0-3.736,1.984-3.736,4.42v45.143
	c0,2.437,1.677,4.419,3.736,4.419h17.391c0.081,0,0.162,0.024,0.234,0.065l16.858,9.703l-1.828-8.986
	c-0.038-0.189-0.002-0.39,0.101-0.541c0.102-0.151,0.256-0.241,0.42-0.241h11.657c2.06,0,3.736-1.982,3.736-4.419v-45.143
	c0-2.436-1.677-4.42-3.736-4.42H264.812z"/>
<path fill="#FFFFFF" stroke="#010101" stroke-miterlimit="10" d="M238.66,326.839c-2.06,0-3.737,1.981-3.737,4.419v45.143
	c0,2.438,1.677,4.421,3.737,4.421h5.693c0.145,0,0.281,0.067,0.381,0.188c0.102,0.12,0.156,0.284,0.154,0.456l-0.158,10.419
	l11.286-10.919c0.095-0.096,0.214-0.144,0.338-0.144h27.137c2.062,0,3.737-1.983,3.737-4.421v-45.143
	c0-2.438-1.676-4.419-3.737-4.419H238.66z"/>
<path fill="#010101" d="M292.495,468.346c-0.135,0-0.243-0.123-0.243-0.28v-0.009c0-0.159,0.108-0.286,0.243-0.286
	c0.132,0,0.24,0.127,0.24,0.286C292.735,468.214,292.626,468.346,292.495,468.346z"/>
<path fill="#010101" d="M317.827,468.346c-0.132,0-0.24-0.123-0.24-0.28v-0.009c0-0.159,0.108-0.286,0.24-0.286
	c0.135,0,0.243,0.127,0.243,0.286C318.07,468.214,317.961,468.346,317.827,468.346z"/>
<path fill="#FFFFFF" stroke="#010101" stroke-miterlimit="10" d="M307.139,466.995l18.371-25.693
	c1.328-1.858,3.26-2.343,4.908-1.468v-18.596c0-3.567,2.067-6.46,4.618-6.46s4.619,2.893,4.619,6.46v36.339
	c0,0.864,0,7.811-4.619,13.417l-11.828,16.541c0,0-3.259,4.659-2.843,12.891h-14.579v-16.241v-12.616v-0.009
	C305.787,469.908,306.238,468.255,307.139,466.995z"/>
<path fill="#FFFFFF" stroke="#010101" stroke-miterlimit="10" d="M320.375,500.694c-0.002,0-0.007,0-0.009,0h-14.579
	c-0.106,0-0.192-0.12-0.192-0.269v-28.857c0-1.805,0.499-3.492,1.407-4.763l18.373-25.695c0.907-1.268,2.114-1.969,3.396-1.969
	c0.499,0,0.985,0.106,1.456,0.314v-18.218c0-3.709,2.158-6.729,4.811-6.729c2.654,0,4.81,3.02,4.81,6.729v36.339
	c0,1.863-0.335,8.343-4.683,13.621l-11.816,16.528c-0.031,0.043-3.175,4.646-2.793,12.605c0.008,0.029,0.011,0.062,0.011,0.094
	C320.565,500.574,320.481,500.694,320.375,500.694z"/>
<path fill="#FFFFFF" stroke="#010101" stroke-miterlimit="10" d="M305.474,471.568v-0.009c0-1.651,0.451-3.304,1.353-4.564
	l18.371-25.693c1.328-1.858,3.261-2.343,4.908-1.468c0.592,0.315,1.148,0.8,1.627,1.468c1.802,2.521,1.802,6.611,0,9.134
	l-1.627,2.273l-12.061,16.868"/>
<rect x="303.3" y="500.694" fill="#FFFFFF" stroke="#010101" stroke-miterlimit="10" width="19.229" height="4.756"/>
<rect x="300.115" y="505.283" fill="#4FA0D8" stroke="#010101" stroke-miterlimit="10" width="25.599" height="23.688"/>
<path fill="#FFFFFF" stroke="#010101" stroke-miterlimit="10" d="M278.073,467.088l-18.371-25.696
	c-1.325-1.856-3.257-2.344-4.906-1.467v-18.594c0-3.569-2.069-6.46-4.619-6.46c-2.552,0-4.619,2.891-4.619,6.46v36.337
	c0,0.864,0,7.811,4.619,13.418l11.826,16.54c0,0,3.262,4.659,2.844,12.892h14.581v-16.242V471.66v-0.008
	C279.425,470,278.975,468.348,278.073,467.088z"/>
<path fill="#FFFFFF" stroke="#010101" stroke-miterlimit="10" d="M264.647,500.518c0-0.031,0.005-0.063,0.012-0.094
	c0.383-7.959-2.762-12.563-2.793-12.608L250.05,471.29c-4.347-5.278-4.683-11.759-4.683-13.621v-36.337
	c0-3.712,2.156-6.731,4.811-6.731c2.651,0,4.811,3.02,4.811,6.731v18.216c0.47-0.207,0.958-0.314,1.454-0.314
	c1.283,0,2.49,0.7,3.396,1.969l18.373,25.696c0.905,1.269,1.407,2.958,1.407,4.762v28.858c0,0.148-0.084,0.27-0.19,0.27h-14.581
	c-0.002,0-0.004,0-0.006,0C264.735,500.788,264.647,500.667,264.647,500.518z"/>
<path fill="#FFFFFF" stroke="#010101" stroke-miterlimit="10" d="M279.74,471.66v-0.008c-0.002-1.652-0.452-3.304-1.354-4.563
	l-18.371-25.696c-1.327-1.856-3.259-2.344-4.907-1.467c-0.593,0.315-1.149,0.802-1.625,1.467c-1.803,2.523-1.803,6.614,0,9.136
	l1.625,2.273l12.059,16.866"/>
<rect x="262.685" y="500.788" fill="#FFFFFF" stroke="#010101" stroke-miterlimit="10" width="19.228" height="4.754"/>
<rect x="259.5" y="505.375" fill="#4FA0D8" stroke="#010101" stroke-miterlimit="10" width="25.597" height="23.688"/>
<path fill="none" stroke="#010101" stroke-miterlimit="10" d="M267.9,437.983c0.315,3.774,25.52,46.986,53.556,0.6"/>
<path fill="#2DA048" stroke="#010101" stroke-miterlimit="10" d="M282.749,261.858l0.838,1.344l3.514-5.764l-0.835-1.345
	c3.542-8.042,4.286-19.427-0.553-27.223c-3.734-6.016-12.213-16.142-27.045-16.375c-0.654-0.011-1.421,0.589-2.027,1.586
	c-0.607,0.995-0.969,2.247-0.958,3.309c0.281,24.114,6.587,37.805,10.319,43.819C270.841,269.007,277.839,267.686,282.749,261.858z"
	/>
<path fill="#2DA048" stroke="#010101" stroke-miterlimit="10" d="M301.98,246.878l-1.172,1.745l4.551,8.083l1.172-1.746
	c6.438,8.292,15.837,10.673,22.626,0.565c5.24-7.797,14.205-25.73,15.389-58.249c0.05-1.433-0.396-3.154-1.182-4.55
	c-0.788-1.397-1.801-2.273-2.683-2.316c-20.027-0.958-31.808,11.981-37.049,19.776C296.839,220.293,297.469,235.726,301.98,246.878z
	"/>
<polyline fill="none" stroke="#010101" stroke-miterlimit="10" points="294.676,421.358 294.676,271.334 316.323,230.751 "/>
<line fill="none" stroke="#010101" stroke-miterlimit="10" x1="274.005" y1="234.758" x2="294.676" y2="271.334"/>
<rect x="283.959" y="419.902" fill="#A8AAAD" stroke="#010101" stroke-miterlimit="10" width="21.157" height="32.782"/>
</svg>
