<?xml version="1.0" encoding="UTF-8"?>
<svg width="289px" height="244px" viewBox="0 0 289 244" version="1.1" xmlns="http://www.w3.org/2000/svg" xmlns:xlink="http://www.w3.org/1999/xlink">
    <!-- Generator: Sketch 53 (72520) - https://sketchapp.com -->
    <title>Group 13</title>
    <desc>Created with Sketch.</desc>
    <defs>
        <path d="M203.708281,130.968619 L7.87129889,130.968619 C3.56985045,130.968619 0.0840840841,127.473631 0.0840840841,123.16318 L0.0840840841,123.16318 L211.495495,123.16318 L211.495495,123.16318 C211.495495,127.473631 208.008667,130.968619 203.708281,130.968619 Z" id="path-1"></path>
        <filter x="-6.6%" y="-128.1%" width="113.2%" height="458.7%" filterUnits="objectBoundingBox" id="filter-2">
            <feOffset dx="0" dy="4" in="SourceAlpha" result="shadowOffsetOuter1"></feOffset>
            <feGaussianBlur stdDeviation="4" in="shadowOffsetOuter1" result="shadowBlurOuter1"></feGaussianBlur>
            <feColorMatrix values="0 0 0 0 0   0 0 0 0 0   0 0 0 0 0  0 0 0 0.16 0" type="matrix" in="shadowBlurOuter1"></feColorMatrix>
        </filter>
        <linearGradient x1="50%" y1="50%" x2="100%" y2="50%" id="linearGradient-3">
            <stop stop-color="#39464E" offset="0%"></stop>
            <stop stop-color="#1C2225" offset="100%"></stop>
        </linearGradient>
        <polygon id="path-4" points="0 0.2082 46.5443698 0.2082 46.5443698 46.977 0 46.977"></polygon>
    </defs>
    <g id="page_templates" stroke="none" stroke-width="1" fill="none" fill-rule="evenodd">
        <g id="Artboard" transform="translate(-2547.000000, -1091.000000)">
            <g id="Group-13" transform="translate(2554.000000, 1091.000000)">
                <g id="converting_traffic_and_generating_leads_graphic" transform="translate(0.000000, 101.000000)">
                    <g id="laptop">
                        <g id="bar" fill-rule="nonzero">
                            <use fill="black" fill-opacity="1" filter="url(#filter-2)" xlink:href="#path-1"></use>
                            <use fill="#FFFFFF" xlink:href="#path-1"></use>
                        </g>
                        <path d="M200.084084,123.16318 L11.4954955,123.16318 L11.4954955,2.0890635 C11.4954955,0.983183981 12.3978485,0.0774058577 13.5019039,0.0774058577 L198.077676,0.0774058577 C199.181731,0.0774058577 200.084084,0.983183981 200.084084,2.0890635 L200.084084,123.16318 Z" id="Fill-47" fill="#2F444D"></path>
                        <polygon id="Fill-49" fill="#1E99A9" points="16 116.075314 196 116.075314 196 8 16 8"></polygon>
                        <g id="Group-10" transform="translate(24.000000, 17.000000)">
                            <path d="M39,16 L98,16 C99.1045695,16 100,16.8954305 100,18 L100,18 C100,19.1045695 99.1045695,20 98,20 L39,20 C37.8954305,20 37,19.1045695 37,18 L37,18 C37,16.8954305 37.8954305,16 39,16 Z" id="Rectangle" fill="#FFFFFF"></path>
                            <rect id="Rectangle" fill="#F5F8FA" fill-rule="nonzero" x="0" y="0" width="28" height="29" rx="3"></rect>
                            <path d="M13.9999809,16.0000119 C13.1874829,16.0000119 12.4374847,15.7968874 11.7499863,15.3906384 C11.0624879,14.9843893 10.5156142,14.4375156 10.1093652,13.7500173 C9.70311617,13.0625189 9.49999166,12.3125207 9.49999166,11.5000226 C9.49999166,10.6875246 9.70311617,9.93752638 10.1093652,9.25002801 C10.5156142,8.56252965 11.0624879,8.01565596 11.7499863,7.60940693 C12.4374847,7.20315789 13.1874829,7.00003338 13.9999809,7.00003338 C14.812479,7.00003338 15.5624772,7.20315789 16.2499756,7.60940693 C16.9374739,8.01565596 17.4843476,8.56252965 17.8905967,9.25002801 C18.2968457,9.93752638 18.4999702,10.6875246 18.4999702,11.5000226 C18.4999702,12.3125207 18.2968457,13.0625189 17.8905967,13.7500173 C17.4843476,14.4375156 16.9374739,14.9843893 16.2499756,15.3906384 C15.5624772,15.7968874 14.812479,16.0000119 13.9999809,16.0000119 Z M17.9999714,17.0000095 C18.7291362,17.0000095 19.4010096,17.1770926 20.0155916,17.5312583 C20.6301736,17.8854239 21.1145475,18.3697978 21.4687131,18.9843798 C21.8228788,19.5989618 21.9999619,20.2708352 21.9999619,21 L21.9999619,21.4999988 C21.9999619,21.9166643 21.8541287,22.2708305 21.5624629,22.5624963 C21.2707971,22.8541621 20.9166309,22.9999952 20.4999654,22.9999952 L7.49999642,22.9999952 C7.08333091,22.9999952 6.72916477,22.8541621 6.43749896,22.5624963 C6.14583314,22.2708305 6,21.9166643 6,21.4999988 L6,21 C6,20.2708352 6.17708307,19.5989618 6.53124873,18.9843798 C6.8854144,18.3697978 7.36978824,17.8854239 7.98437027,17.5312583 C8.5989523,17.1770926 9.27082569,17.0000095 9.99999046,17.0000095 L11.7187364,17.0000095 C12.4479011,17.3333422 13.2083163,17.5000083 13.9999809,17.5000083 C14.7916455,17.5000083 15.5520607,17.3333422 16.2812255,17.0000095 L17.9999714,17.0000095 Z" id="ï†" fill="#F15A24" fill-rule="nonzero"></path>
                        </g>
                        <circle id="Oval" fill="url(#linearGradient-3)" fill-rule="nonzero" cx="159" cy="78" r="19"></circle>
                        <g id="Group-10-Copy-2" transform="translate(24.000000, 73.000000)" fill="#FFFFFF">
                            <rect id="Rectangle" x="0" y="0" width="100" height="4" rx="2"></rect>
                        </g>
                        <g id="Group-10-Copy" transform="translate(74.000000, 55.000000) scale(-1, 1) translate(-74.000000, -55.000000) translate(24.000000, 53.000000)" fill="#FFFFFF">
                            <rect id="Rectangle" x="0" y="0" width="100" height="4" rx="2"></rect>
                        </g>
                        <g id="Group-10-Copy-3" transform="translate(74.000000, 95.000000) scale(-1, 1) translate(-74.000000, -95.000000) translate(24.000000, 93.000000)" fill="#FFFFFF">
                            <rect id="Rectangle" x="0" y="0" width="100" height="4" rx="2"></rect>
                        </g>
                    </g>
                </g>
                <g id="Sapling" transform="translate(177.000000, 86.500000) scale(-1, 1) translate(-177.000000, -86.500000) translate(129.000000, 7.000000)">
                    <path d="M65.9947,159 L65.9947,46.1214" id="Stroke-5" stroke="#39464E" stroke-width="4" stroke-linecap="round"></path>
                    <path d="M35.295625,20.135625 L35.295625,20.135625 C49.463625,5.966625 72.435625,5.966625 86.603625,20.135625 L105.445625,38.977625 L86.603625,57.819625 C72.435625,71.987625 49.463625,71.987625 35.295625,57.819625 C24.889625,47.412625 24.889625,30.541625 35.295625,20.135625" id="Fill-34" fill="#01B299" transform="translate(66.468375, 38.977250) rotate(-90.000000) translate(-66.468375, -38.977250) "></path>
                    <path d="M35.295625,20.135625 L35.295625,20.135625 C49.463625,5.966625 72.435625,5.966625 86.603625,20.135625 L105.445625,38.977625 L86.603625,57.819625 C72.435625,71.987625 49.463625,71.987625 35.295625,57.819625 C24.889625,47.412625 24.889625,30.541625 35.295625,20.135625 Z" id="Stroke-36" stroke="#39464E" stroke-width="3" stroke-linecap="round" stroke-linejoin="round" transform="translate(66.468375, 38.977250) rotate(-90.000000) translate(-66.468375, -38.977250) "></path>
                    <path d="M58.802475,79.207425 C65.099475,85.504425 73.219475,88.862425 81.478475,89.355425 C76.610475,87.547425 72.036475,84.710425 68.116475,80.790425 C62.772475,75.446425 60.108475,68.440425 60.108475,61.435425 C60.108475,54.414425 62.772475,47.409425 68.116475,42.064425 C72.038475,38.153425 76.615475,35.311425 81.486475,33.500425 C73.224475,33.992425 65.102475,37.350425 58.802475,43.647425 C48.999475,53.451425 48.999475,69.403425 58.802475,79.207425" id="Fill-38" fill-opacity="0.7" fill="#188D81" transform="translate(66.468350, 61.427925) rotate(-90.000000) translate(-66.468350, -61.427925) "></path>
                    <path d="M48.4459,106.284 L48.4459,106.284 C38.7169,116.013 22.9429,116.013 13.2139,106.284 L0.2759,93.346 L13.2139,80.408 C22.9429,70.679 38.7169,70.679 48.4459,80.408 C55.5919,87.554 55.5919,99.138 48.4459,106.284" id="Fill-81" fill="#01B299"></path>
                    <path d="M48.4459,106.284 L48.4459,106.284 C38.7169,116.013 22.9429,116.013 13.2139,106.284 L0.2759,93.346 L13.2139,80.408 C22.9429,70.679 38.7169,70.679 48.4459,80.408 C55.5919,87.554 55.5919,99.138 48.4459,106.284 Z" id="Stroke-83" stroke="#39464E" stroke-width="3" stroke-linecap="round" stroke-linejoin="round"></path>
                    <path d="M47.3853,81.4686 C43.1783,77.2616 37.7553,75.0186 32.2373,74.6896 C35.4893,75.8976 38.5443,77.7926 41.1633,80.4106 C44.7333,83.9816 46.5133,88.6606 46.5133,93.3406 C46.5133,98.0306 44.7333,102.7106 41.1633,106.2806 C38.5433,108.8946 35.4863,110.7926 32.2313,112.0026 C37.7513,111.6736 43.1773,109.4316 47.3853,105.2236 C53.9343,98.6746 53.9343,88.0176 47.3853,81.4686" id="Fill-85" fill-opacity="0.7" fill="#188D81"></path>
                    <path d="M27.0406,93.3455 L45.7596,93.3455 C56.9356,93.3455 65.9946,102.4055 65.9946,113.5805" id="Stroke-87" stroke="#39464E" stroke-width="4" stroke-linecap="round"></path>
                </g>
                <g id="Water-Can" transform="translate(240.500000, 48.000000) scale(-1, 1) translate(-240.500000, -48.000000) translate(199.000000, 0.000000)">
                    <g id="Water-drips" transform="translate(60.906475, 35.400000)" stroke="#B4CFD5" stroke-dasharray="4.199999749660492,8.999999463558197" stroke-linecap="round" stroke-width="2.39999986">
                        <path d="M0.57938777,7.22742 L0.57938777,7.22742 C6.63480504,7.22742 11.5431504,12.16002 11.5431504,18.24342 L11.5431504,33.20922" id="Stroke-42"></path>
                        <path d="M0.57938777,0.39714 L0.57938777,0.39714 C12.2405892,0.39714 21.6942295,9.89634 21.6942295,21.61374 L21.6942295,59.97894" id="Stroke-44"></path>
                    </g>
                    <path d="M1.69170719,22.47852 C0.726160432,21.50772 0.726160432,19.92912 1.69170719,18.95952 L12.8071388,7.79052 C13.2746856,7.32012 13.8962899,7.06152 14.5584986,7.06152 C15.2201101,7.06152 15.8417144,7.32012 16.3092612,7.79052 L20.8121604,12.31452 L17.2891388,15.85392 L14.673146,13.22592 C14.5435705,13.09572 14.3715993,13.02432 14.1888799,13.02432 C14.0055633,13.02432 13.8335921,13.09572 13.7046137,13.22592 L7.17149856,19.78992 C7.04192302,19.92012 6.97086547,20.09292 6.97086547,20.27652 C6.97086547,20.46072 7.04192302,20.63352 7.17149856,20.76312 L9.78689424,23.39172 L6.19400935,27.00252 L1.69170719,22.47852 Z" id="Fill-46" fill="#FB7241"></path>
                    <path d="M14.5580806,6.16158 C13.6576201,6.16158 12.8109007,6.51378 12.1737712,7.15398 L1.05833957,18.32298 C-0.256523741,19.64418 -0.256523741,21.79398 1.05833957,23.11458 L4.92709496,27.00258 L6.19418849,28.27518 L7.46068489,27.00258 L9.78707338,24.66438 L11.0535698,23.39178 L9.78707338,22.11918 L7.95331079,20.27658 L14.1884619,14.01138 L16.0222245,15.85398 L17.2887209,17.12658 L18.5552173,15.85398 L20.8117424,13.58718 L22.0782388,12.31398 L20.8117424,11.04138 L16.9429871,7.15398 C16.3058576,6.51378 15.4591381,6.16158 14.5580806,6.16158 M14.5580806,7.96158 C14.9629295,7.96158 15.3671813,8.11638 15.6758935,8.42658 L19.545246,12.31398 L17.2887209,14.58138 L15.3062748,12.58938 C14.9975626,12.27918 14.5933108,12.12438 14.1884619,12.12438 C13.7842101,12.12438 13.3793612,12.27918 13.0706489,12.58938 L6.53813094,19.15338 C5.92070647,19.77378 5.92070647,20.77938 6.53813094,21.39978 L8.52057698,23.39178 L6.19418849,25.72938 L2.32483597,21.84198 C1.70741151,21.22158 1.70741151,20.21598 2.32483597,19.59558 L13.4402676,8.42658 C13.7489799,8.11638 14.1538288,7.96158 14.5580806,7.96158" id="Fill-48" fill="#39464E"></path>
                    <polygon id="Fill-50" fill="#FB7241" points="24.1802885 7.2324 30.0631374 1.3212 52.0049935 23.3688 46.1221446 29.28"></polygon>
                    <path d="M30.0631374,0.04824 L28.796641,1.32144 L24.1802885,5.96004 L22.913195,7.23264 L24.1802885,8.50524 L44.8556482,29.28024 L46.1221446,30.55284 L47.388641,29.28024 L52.0055906,24.64164 L53.2720871,23.36904 L52.0055906,22.09584 L31.3302309,1.32144 L30.0631374,0.04824 Z M30.0631374,2.59404 L50.7384971,23.36904 L46.1221446,28.00764 L25.4467849,7.23264 L30.0631374,2.59404 Z" id="Fill-52" fill="#39464E"></path>
                    <polygon id="Fill-54" fill="#F86936" points="1.26685468 31.95342 25.0245597 8.08122 45.277754 28.43142 21.5194518 52.30422"></polygon>
                    <g id="Group-58" transform="translate(0.000000, 6.600000)">
                        <mask id="mask-5" fill="white">
                            <use xlink:href="#path-4"></use>
                        </mask>
                        <g id="Clip-57"></g>
                        <path d="M25.0246791,0.2082 L23.7581827,1.4808 L1.26637698,24.081 L-0.00011942446,25.3536 L1.26637698,26.6262 L20.2530748,45.7044 L21.5195712,46.977 L22.7860676,45.7044 L45.2778734,23.1048 L46.5443698,21.8316 L45.2778734,20.559 L26.2911755,1.4808 L25.0246791,0.2082 Z M25.0246791,2.754 L44.0107799,21.8316 L21.5195712,44.4318 L2.5334705,25.3536 L25.0246791,2.754 Z" id="Fill-56" fill="#39464E" mask="url(#mask-5)"></path>
                    </g>
                    <polygon id="Fill-59" fill="#F5F7FC" points="37.5170151 11.35656 45.0933029 3.74376 49.5938137 8.26596 42.018123 15.87936"></polygon>
                    <path d="M45.0935417,2.4711 L43.8264482,3.7437 L37.517254,10.0839 L36.2501604,11.3565 L37.517254,12.6297 L40.7512683,15.8787 L42.0177647,17.1519 L43.2842612,15.8787 L49.5940525,9.5391 L50.8605489,8.2659 L49.5940525,6.9933 L46.3600381,3.7437 L45.0935417,2.4711 Z M45.0935417,5.0169 L48.3275561,8.2659 L42.0177647,14.6061 L38.7837504,11.3565 L45.0935417,5.0169 Z" id="Fill-61" fill="#39464E"></path>
                    <polygon id="Fill-63" fill="#F86936" points="39.340746 34.39734 50.2250914 34.82274 50.2250914 42.75474 24.5004655 49.30974"></polygon>
                    <path d="M38.9841446,33.4827 L38.4306122,34.0389 L26.1687058,46.3605 L21.5654899,50.9859 L27.8752813,49.3779 L49.7693676,43.7991 L51.1206554,43.4547 L51.1206554,42.0543 L51.1206554,35.6889 L51.1206554,33.9573 L49.3991518,33.8901 L39.7669719,33.5133 L38.9841446,33.4827 Z M39.6971086,35.3121 L49.3292885,35.6889 L49.3292885,42.0543 L27.4352022,47.6331 L39.6971086,35.3121 Z" id="Fill-65" fill="#39464E"></path>
                    <path d="M51.1767252,45.87294 C49.7603511,45.87294 48.6085022,44.71494 48.6085022,43.29234 L48.6085022,34.01034 C48.6085022,32.58774 49.7603511,31.43034 51.1767252,31.43034 L55.7339626,31.43034 L55.7339626,45.87294 L51.1767252,45.87294 Z" id="Fill-67" fill="#FB7241"></path>
                    <path d="M56.6298849,30.53046 L54.838518,30.53046 L51.176964,30.53046 C49.2667698,30.53046 47.7130576,32.09166 47.7130576,34.01046 L47.7130576,43.29246 C47.7130576,45.21186 49.2667698,46.77306 51.176964,46.77306 L54.838518,46.77306 L56.6298849,46.77306 L56.6298849,44.97306 L56.6298849,32.33046 L56.6298849,30.53046 Z M54.838518,32.33046 L54.838518,44.97306 L51.176964,44.97306 C50.2532158,44.97306 49.5044245,44.22066 49.5044245,43.29246 L49.5044245,34.01046 C49.5044245,33.08286 50.2532158,32.33046 51.176964,32.33046 L54.838518,32.33046 L54.838518,32.33046 Z" id="Fill-69" fill="#39464E"></path>
                    <polygon id="Fill-71" fill-opacity="0.5" fill="#83463B" points="31.9142763 46.46592 27.4352619 47.63292 39.6971683 35.31192 42.8905784 35.43672"></polygon>
                    <path d="M44.0276187,28.41522 L25.0409209,9.33762 L25.0247986,9.35382 L23.1044532,11.28342 L2.53358993,31.95342 L4.47005755,33.89922 L22.0917338,16.19262 C23.7206835,14.55582 26.3617554,14.55582 27.990705,16.19262 L42.090554,30.36102 L44.0276187,28.41522 Z" id="Fill-73" fill-opacity="0.5" fill="#83463B"></path>
                    <g id="Group-78" transform="translate(6.568345, 27.600000)">
                        <path d="M0.187197842,0.11094 L19.1738957,19.18854" id="Fill-75" fill="#EFAA9F"></path>
                        <path d="M0.187197842,0.11094 L19.1738957,19.18854" id="Stroke-77" stroke="#39464E" stroke-width="1.79999989"></path>
                    </g>
                    <polygon id="Fill-79" fill-opacity="0.5" fill="#83463B" points="31.9997245 4.53972 30.0632568 2.59392 25.4469043 7.23252 27.3833719 9.17832"></polygon>
                </g>
            </g>
        </g>
    </g>
</svg>