<?xml version="1.0" encoding="UTF-8" standalone="no"?> <svg xmlns:dc="http://purl.org/dc/elements/1.1/" xmlns:cc="http://creativecommons.org/ns#" xmlns:rdf="http://www.w3.org/1999/02/22-rdf-syntax-ns#" xmlns:svg="http://www.w3.org/2000/svg" xmlns="http://www.w3.org/2000/svg" viewBox="0 0 1000 669.33331" height="666.66669" width="666.66669" xml:space="preserve" id="svg2"><g transform="matrix(1.3333333,0,0,-1.3333333,0,669.33333)" id="g10"><g transform="scale(0.1)" id="g12"><path id="path16" style="fill:#2b179c;fill-opacity:1;fill-rule:nonzero;stroke:none" d="m 1191.58,971.051 h 5006.25 v 29.3594 H 1191.58 Z"></path><path id="path18" style="fill:#edecfe;fill-opacity:1;fill-rule:nonzero;stroke:none" d="m 2026.35,1229.84 c -352.69,-26.09 -738.93,168.43 -840.08,507.31 -58.38,195.6 -17.33,407.6 51.53,599.76 77.17,215.31 197.68,427.52 393.86,545.08 224.2,134.34 512.24,125.21 736.68,259.14 319.7,190.78 415.94,603.31 642.44,898.78 164.84,215.02 406.56,369.79 670.83,429.52 336.56,76.07 729.52,-22.98 925.27,-307.13 124.43,-180.63 155.73,-406.89 200.01,-621.72 75.28,-365.18 231.24,-759.62 572.05,-910.85 145.14,-64.4 308.53,-76.37 456.45,-134.09 319.43,-124.63 533.84,-492.42 454.87,-826.08 -78.97,-333.66 -465.32,-569.12 -790.14,-459.27 -175.03,59.2 -309.84,196.97 -462.05,301.73 -352.88,242.86 -823.49,305.1 -1227.37,162.32 -177.26,-62.66 -339.31,-161.08 -508.99,-242.03 -220.17,-105.04 -454.24,-180.92 -694.2,-225.01 -100.21,-18.42 -154.22,26.38 -244.38,44.73 -108.2,22.01 -228.41,-14.17 -336.78,-22.19"></path><path id="path20" style="fill:none;stroke:#9989f8;stroke-width:30;stroke-linecap:round;stroke-linejoin:round;stroke-miterlimit:4;stroke-dasharray:0, 89.982;stroke-dashoffset:0;stroke-opacity:1" d="m 5454.2,3762.79 c 92.18,-34.9 178.13,-80.59 252.34,-139.47 407.98,-323.78 144.97,-977.3 -312.15,-1101.23 -180.16,-48.84 -376.38,13.32 -556.62,-35.2 -256.76,-69.1 -402.94,-333.97 -615.95,-493.12 -155.01,-115.81 -351.19,-175.3 -544.42,-165.08 -246.09,13.01 -496.96,157.33 -576.38,390.61 -50.49,148.29 -28.1,309.89 -16.86,466.14 19.1,265.6 -11.57,566.97 -216.49,737.04 -87.26,72.42 -197.24,112.35 -287.71,180.72 -195.38,147.63 -271.4,442.03 -152.39,656.05 119.02,214.02 430.25,300.9 632.19,162.38 108.83,-74.65 174.76,-195.5 259.05,-297.03 195.43,-235.39 506.83,-369.48 812.13,-349.7 221.61,14.36 435.73,82.46 658.44,86.91 210.26,4.21 453.87,-19.17 664.82,-99.02 z"></path><path id="path22" style="fill:#ddddff;fill-opacity:1;fill-rule:nonzero;stroke:none" d="m 2570.14,3267.12 h -677.6 c -78.86,0 -142.79,63.93 -142.79,142.79 v 677.6 c 0,78.86 63.93,142.79 142.79,142.79 h 677.6 c 78.86,0 142.79,-63.93 142.79,-142.79 v -677.6 c 0,-78.86 -63.93,-142.79 -142.79,-142.79"></path><path id="path24" style="fill:#9383fb;fill-opacity:1;fill-rule:nonzero;stroke:none" d="m 1964.5,3584.61 v 381.31 c 0,56.63 59.59,93.47 110.25,68.14 l 381.32,-190.65 c 56.14,-28.08 56.14,-108.21 0,-136.28 l -381.32,-190.66 c -50.66,-25.33 -110.25,11.51 -110.25,68.14"></path><path id="path26" style="fill:#ddddff;fill-opacity:1;fill-rule:nonzero;stroke:none" d="m 5579.62,3267.12 h -677.6 c -78.87,0 -142.8,63.93 -142.8,142.79 v 677.6 c 0,78.86 63.93,142.79 142.8,142.79 h 677.6 c 78.85,0 142.79,-63.93 142.79,-142.79 v -677.6 c 0,-78.86 -63.94,-142.79 -142.79,-142.79"></path><path id="path28" style="fill:#cc6eff;fill-opacity:1;fill-rule:nonzero;stroke:none" d="m 4917.25,3489.2 v 0 c -34.43,0 -62.35,27.92 -62.35,62.36 v 266.32 c 0,34.44 27.92,62.36 62.35,62.36 v 0 c 34.45,0 62.37,-27.92 62.37,-62.36 v -266.32 c 0,-34.44 -27.92,-62.36 -62.37,-62.36"></path><path id="path30" style="fill:#9989f8;fill-opacity:1;fill-rule:nonzero;stroke:none" d="m 5132.97,3489.2 v 0 c -34.45,0 -62.37,27.92 -62.37,62.36 v 408.48 c 0,34.44 27.92,62.36 62.37,62.36 v 0 c 34.43,0 62.35,-27.92 62.35,-62.36 v -408.48 c 0,-34.44 -27.92,-62.36 -62.35,-62.36"></path><path id="path32" style="fill:#fbf5ff;fill-opacity:1;fill-rule:nonzero;stroke:none" d="m 5348.67,3489.2 v 0 c -34.45,0 -62.37,27.92 -62.37,62.36 v 184.91 c 0,34.44 27.92,62.36 62.37,62.36 v 0 c 34.44,0 62.36,-27.92 62.36,-62.36 v -184.91 c 0,-34.44 -27.92,-62.36 -62.36,-62.36"></path><path id="path34" style="fill:#3441ff;fill-opacity:1;fill-rule:nonzero;stroke:none" d="m 5564.37,3489.2 v 0 c -34.43,0 -62.35,27.92 -62.35,62.36 v 447.41 c 0,34.44 27.92,62.36 62.35,62.36 v 0 c 34.44,0 62.36,-27.92 62.36,-62.36 v -447.41 c 0,-34.44 -27.92,-62.36 -62.36,-62.36"></path><path id="path36" style="fill:#ddddff;fill-opacity:1;fill-rule:nonzero;stroke:none" d="M 4552.94,2279.07 H 2926.27 c -31.8,0 -57.57,25.77 -57.57,57.56 v 53.72 c 0,31.8 25.77,57.57 57.57,57.57 h 1626.67 c 31.78,0 57.55,-25.77 57.55,-57.57 v -53.72 c 0,-31.79 -25.77,-57.56 -57.55,-57.56"></path><path id="path38" style="fill:#9989f8;fill-opacity:1;fill-rule:nonzero;stroke:none" d="m 3134.23,2336.19 h -163.25 c -15.08,0 -27.3,12.22 -27.3,27.3 v 0 c 0,15.08 12.22,27.31 27.3,27.31 h 163.25 c 15.08,0 27.31,-12.23 27.31,-27.31 v 0 c 0,-15.08 -12.23,-27.3 -27.31,-27.3"></path><path id="path40" style="fill:#cc6eff;fill-opacity:1;fill-rule:nonzero;stroke:none" d="m 3477.73,2336.19 h -163.25 c -15.08,0 -27.3,12.22 -27.3,27.3 v 0 c 0,15.08 12.22,27.31 27.3,27.31 h 163.25 c 15.08,0 27.3,-12.23 27.3,-27.31 v 0 c 0,-15.08 -12.22,-27.3 -27.3,-27.3"></path><path id="path42" style="fill:#fbf5ff;fill-opacity:1;fill-rule:nonzero;stroke:none" d="m 3821.23,2336.19 h -163.26 c -15.07,0 -27.29,12.22 -27.29,27.3 v 0 c 0,15.08 12.22,27.31 27.29,27.31 h 163.26 c 15.07,0 27.3,-12.23 27.3,-27.31 v 0 c 0,-15.08 -12.23,-27.3 -27.3,-27.3"></path><path id="path44" style="fill:#3441ff;fill-opacity:1;fill-rule:nonzero;stroke:none" d="m 4164.72,2336.19 h -163.25 c -15.08,0 -27.3,12.22 -27.3,27.3 v 0 c 0,15.08 12.22,27.31 27.3,27.31 h 163.25 c 15.08,0 27.31,-12.23 27.31,-27.31 v 0 c 0,-15.08 -12.23,-27.3 -27.31,-27.3"></path><path id="path46" style="fill:#9989f8;fill-opacity:1;fill-rule:nonzero;stroke:none" d="m 4508.22,2336.19 h -163.25 c -15.08,0 -27.31,12.22 -27.31,27.3 v 0 c 0,15.08 12.23,27.31 27.31,27.31 h 163.25 c 15.08,0 27.3,-12.23 27.3,-27.31 v 0 c 0,-15.08 -12.22,-27.3 -27.3,-27.3"></path><path id="path48" style="fill:#ddddff;fill-opacity:1;fill-rule:nonzero;stroke:none" d="M 4459.96,2574.05 H 3003.75 c -78.87,0 -142.79,63.93 -142.79,142.79 v 261.77 c 0,78.86 63.92,142.79 142.79,142.79 h 1456.21 c 78.86,0 142.79,-63.93 142.79,-142.79 v -261.77 c 0,-78.86 -63.93,-142.79 -142.79,-142.79"></path><path id="path50" style="fill:#cc6eff;fill-opacity:1;fill-rule:nonzero;stroke:none" d="m 3267.84,2682.61 h -202.88 c -35.16,0 -63.67,28.51 -63.67,63.67 v 202.88 c 0,35.17 28.51,63.67 63.67,63.67 h 202.88 c 35.17,0 63.67,-28.5 63.67,-63.67 v -202.88 c 0,-35.16 -28.5,-63.67 -63.67,-63.67"></path><path id="path52" style="fill:#3441ff;fill-opacity:1;fill-rule:nonzero;stroke:none" d="m 3833.3,2682.61 h -202.89 c -35.16,0 -63.67,28.51 -63.67,63.67 v 202.88 c 0,35.17 28.51,63.67 63.67,63.67 h 202.89 c 35.16,0 63.67,-28.5 63.67,-63.67 v -202.88 c 0,-35.16 -28.51,-63.67 -63.67,-63.67"></path><path id="path54" style="fill:#9989f8;fill-opacity:1;fill-rule:nonzero;stroke:none" d="m 4398.75,2682.61 h -202.88 c -35.17,0 -63.68,28.51 -63.68,63.67 v 202.88 c 0,35.17 28.51,63.67 63.68,63.67 h 202.88 c 35.16,0 63.67,-28.5 63.67,-63.67 v -202.88 c 0,-35.16 -28.51,-63.67 -63.67,-63.67"></path><path id="path56" style="fill:#fbf5ff;fill-opacity:1;fill-rule:nonzero;stroke:none" d="m 3475.68,2847.72 c 0,16.46 -13.34,29.8 -29.8,29.8 -16.45,0 -29.79,-13.34 -29.79,-29.8 0,-16.45 13.34,-29.79 29.79,-29.79 16.46,0 29.8,13.34 29.8,29.79"></path><path id="path58" style="fill:#fbf5ff;fill-opacity:1;fill-rule:nonzero;stroke:none" d="m 4038.08,2847.72 c 0,16.46 -13.34,29.8 -29.79,29.8 -16.46,0 -29.8,-13.34 -29.8,-29.8 0,-16.45 13.34,-29.79 29.8,-29.79 16.45,0 29.79,13.34 29.79,29.79"></path><path id="path60" style="fill:#2b179c;fill-opacity:1;fill-rule:nonzero;stroke:none" d="m 1183.5,2234.14 c 71.93,-47.58 88.52,-145.1 139.64,-214.55 29.85,-40.57 71.14,-70.9 108.9,-104.22 74.22,-65.5 135.88,-143.75 197.1,-221.53 78.63,-99.9 157.25,-199.79 235.87,-299.68 217.55,281.44 480.95,526.87 679.56,822 -18.91,-168.37 -171.99,-286.87 -244.12,-440.17 -27.35,-58.11 -43.45,-122.26 -81.28,-174.16 -75.14,-103.03 -211.92,-132.49 -292.88,-228.9 -44.15,-52.57 -65.81,-122.22 -145.2,-64.87 -37.56,27.13 -58.68,84.87 -89.03,120.22 -214.12,249.41 -398.2,490.82 -508.56,805.86"></path><path id="path62" style="fill:#2b179c;fill-opacity:1;fill-rule:nonzero;stroke:none" d="m 1646.17,1965.04 c 39.76,-64.71 91.17,-122.78 121.09,-192.58 39.87,-93.03 38.55,-200.04 80.96,-291.94 66.78,42.94 59.22,140.74 85.97,215.48 33.05,92.38 121.57,150.91 186.28,224.65 45.17,51.49 79.37,111.55 110.98,172.31 108.23,207.98 191.34,438.75 171.46,672.37 -62.56,-271.48 -190.54,-527.65 -370.04,-740.7 -26.39,-31.32 -54.13,-62.11 -73.05,-98.42 -18.31,-35.15 -27.66,-74.14 -36.84,-112.68 -22.58,-94.72 -45.15,-189.44 -67.72,-284.16 -10.48,94.88 -20.96,189.75 -31.43,284.62 -4.06,36.74 -9.08,75.82 -32.84,104.14 -14.24,16.96 -33.96,28.38 -49.68,43.98 -43.32,42.94 -50.06,109.16 -60.77,169.21 -40.21,225.44 -168.67,430.01 -192.98,657.72 28.92,-270.89 8.92,-580.41 158.61,-824"></path><path id="path64" style="fill:#2b179c;fill-opacity:1;fill-rule:nonzero;stroke:none" d="m 1797.99,2253.14 c 28.36,-95.13 61.51,-188.74 94.65,-282.29 68.82,142.76 137.64,285.53 206.46,428.31 26.04,54.01 52.31,108.73 64.25,167.49 8.68,42.71 9.56,86.55 12.41,130.03 9.34,142.43 39.97,282.51 70.52,421.94 -155.18,-172.56 -102.21,-453.06 -222.06,-651.78 -20.7,-34.31 -46.37,-65.76 -63.24,-102.1 -46.93,-101.08 -18.99,-222.71 -55.69,-327.94 -71.14,118.46 -53.79,267.82 -33.77,404.54 3.7,25.21 7.08,52.44 -4.93,74.91 -11.69,21.86 -35.32,34.22 -52.34,52.24 -31.98,33.88 -37.87,83.99 -42.14,130.38 -16.94,183.73 -25.8,370.71 -52.06,553.17 -122.72,-293.15 -7.79,-711.27 77.94,-998.9"></path><path id="path66" style="fill:#2b179c;fill-opacity:1;fill-rule:nonzero;stroke:none" d="m 1924.99,2293.37 c 5.63,58.41 11.43,116.81 17.23,175.2 5.96,60.01 11.92,120.01 17.87,180.01 11.3,113.79 22.64,227.81 45.65,339.83 39.59,192.71 113.95,383.06 99.11,579.23 -75.68,-149.8 -151.13,-306.15 -157.78,-473.84 -2.11,-53.29 2.83,-106.58 3.97,-159.9 1.3,-60.44 -2.3,-120.87 -6.69,-181.17 -29.5,-404.96 -94.8,-806.66 -115.11,-1212.37 -2.9,-57.81 -4.89,-115.68 -5.72,-173.57 -0.57,-40.39 -13.98,-117.49 7.93,-149.96 21.95,24.93 14.38,82.7 16.41,114.35 3.03,47.26 6.16,94.53 9.41,141.79 6.28,91.26 12.97,182.48 20.08,273.67 14.21,182.38 30.1,364.64 47.64,546.73"></path><path id="path68" style="fill:#9b6bff;fill-opacity:1;fill-rule:nonzero;stroke:none" d="m 2012.2,705.77 h -354.37 l -121.89,559.92 H 2134.1 L 2012.2,705.77"></path><path id="path70" style="fill:#3824d3;fill-opacity:1;fill-rule:nonzero;stroke:none" d="m 6341.62,2305.82 c -76.32,-50.48 -93.92,-153.95 -148.16,-227.64 -31.68,-43.04 -75.48,-75.21 -115.54,-110.58 -78.74,-69.49 -144.17,-152.52 -209.13,-235.05 -83.42,-105.99 -166.84,-211.98 -250.26,-317.96 -230.82,298.62 -510.29,559.03 -721.01,872.15 20.06,-178.63 182.48,-304.36 259.01,-467.02 29.01,-61.66 46.09,-129.72 86.24,-184.78 79.72,-109.33 224.84,-140.57 310.75,-242.88 46.83,-55.77 69.82,-129.67 154.06,-68.81 39.84,28.78 62.25,90.04 94.46,127.55 227.18,264.63 422.49,520.76 539.58,855.02"></path><path id="path72" style="fill:#3824d3;fill-opacity:1;fill-rule:nonzero;stroke:none" d="m 5850.72,2020.3 c -42.19,-68.65 -96.73,-130.26 -128.47,-204.33 -42.3,-98.7 -40.91,-212.24 -85.91,-309.74 -70.85,45.56 -62.83,149.31 -91.21,228.63 -35.07,98 -128.99,160.12 -197.64,238.35 -47.93,54.62 -84.21,118.35 -117.76,182.81 -114.83,220.68 -203.01,465.53 -181.92,713.4 66.39,-288.04 202.17,-559.83 392.63,-785.89 27.99,-33.23 57.43,-65.9 77.51,-104.43 19.42,-37.29 29.34,-78.65 39.09,-119.55 23.94,-100.5 47.89,-201 71.84,-301.5 11.12,100.67 22.23,201.33 33.35,302 4.3,38.97 9.63,80.45 34.84,110.48 15.1,18 36.03,30.12 52.71,46.66 45.96,45.56 53.12,115.82 64.48,179.54 42.66,239.19 178.96,456.25 204.76,697.85 -30.69,-287.42 -9.47,-615.82 -168.3,-874.28"></path><path id="path74" style="fill:#3824d3;fill-opacity:1;fill-rule:nonzero;stroke:none" d="m 5689.64,2325.98 c -30.08,-100.92 -65.26,-200.25 -100.42,-299.52 -73.02,151.49 -146.04,302.96 -219.06,454.45 -27.62,57.31 -55.51,115.36 -68.17,177.71 -9.21,45.31 -10.15,91.83 -13.18,137.96 -9.9,151.13 -42.4,299.75 -74.8,447.68 164.64,-183.09 108.44,-480.69 235.61,-691.54 21.95,-36.4 49.18,-69.76 67.09,-108.33 49.79,-107.25 20.14,-236.3 59.08,-347.95 75.5,125.7 57.08,284.16 35.83,429.23 -3.92,26.74 -7.5,55.64 5.24,79.47 12.39,23.2 37.47,36.32 55.53,55.44 33.92,35.93 40.18,89.11 44.72,138.33 17.96,194.94 27.36,393.33 55.22,586.92 130.22,-311.04 8.27,-754.67 -82.69,-1059.85"></path><path id="path76" style="fill:#3824d3;fill-opacity:1;fill-rule:nonzero;stroke:none" d="m 5554.89,2368.67 c -5.97,61.97 -12.12,123.93 -18.27,185.89 -6.33,63.66 -12.65,127.32 -18.97,190.98 -11.99,120.74 -24.02,241.72 -48.43,360.57 -42.01,204.47 -120.91,406.43 -105.16,614.58 80.3,-158.94 160.35,-324.83 167.41,-502.76 2.24,-56.54 -3.01,-113.08 -4.22,-169.65 -1.36,-64.12 2.44,-128.24 7.1,-192.23 31.29,-429.66 100.59,-855.87 122.14,-1286.34 3.07,-61.33 5.19,-122.73 6.06,-184.15 0.61,-42.86 14.84,-124.66 -8.4,-159.11 -23.3,26.45 -15.27,87.74 -17.42,121.32 -3.21,50.16 -6.54,100.3 -9.99,150.44 -6.66,96.82 -13.76,193.61 -21.29,290.36 -15.09,193.52 -31.95,386.9 -50.56,580.1"></path><path id="path78" style="fill:#3441ff;fill-opacity:1;fill-rule:nonzero;stroke:none" d="m 5470.56,705.77 h 354.37 l 121.9,559.92 h -598.16 l 121.89,-559.92"></path><path id="path80" style="fill:#fbf5ff;fill-opacity:1;fill-rule:nonzero;stroke:none" d="m 4477.43,1587.67 v 0 c -16.9,2.12 -28.88,17.54 -26.76,34.45 l 123.29,982.71 c 2.12,16.9 17.54,28.88 34.43,26.76 v 0 c 16.91,-2.12 28.89,-17.54 26.77,-34.44 l -123.29,-982.72 c -2.12,-16.89 -17.54,-28.88 -34.44,-26.76"></path><path id="path82" style="fill:#cc6eff;fill-opacity:1;fill-rule:nonzero;stroke:none" d="m 4277.14,1584.83 v 0 c -17,1.17 -29.82,15.9 -28.65,32.9 l 68.32,988.06 c 1.17,17 15.9,29.82 32.89,28.64 v 0 c 17,-1.17 29.83,-15.9 28.65,-32.89 l -68.31,-988.07 c -1.19,-16.99 -15.91,-29.81 -32.9,-28.64"></path><path id="path84" style="fill:#3824d3;fill-opacity:1;fill-rule:nonzero;stroke:none" d="m 4411.36,1573.21 v 0 c -26.52,0.41 -47.68,22.26 -47.26,48.79 l 19.05,1207.28 c 0.42,26.53 22.27,47.69 48.79,47.27 v 0 c 26.52,-0.42 47.7,-22.26 47.28,-48.78 l -19.07,-1207.29 c -0.41,-26.53 -22.25,-47.69 -48.79,-47.27"></path><path id="path86" style="fill:#9989f8;fill-opacity:1;fill-rule:nonzero;stroke:none" d="m 4573.79,729.672 h -335.68 c -45.89,0 -83.08,37.187 -83.08,83.078 v 939.04 h 501.84 V 812.75 c 0,-45.891 -37.2,-83.078 -83.08,-83.078"></path><path id="path88" style="fill:#7369e2;fill-opacity:1;fill-rule:nonzero;stroke:none" d="m 4155.03,1680.03 h 501.84 v 71.7578 h -501.84 z"></path><path id="path90" style="fill:#1b157a;fill-opacity:1;fill-rule:nonzero;stroke:none" d="m 2134.53,613.172 c 1.99,-13.91 6.57,-29.332 19.08,-35.75 7.63,-3.922 16.65,-3.582 25.21,-3.16 16.95,0.847 34.15,1.738 50.21,7.218 16.05,5.489 31.1,16.258 37.77,31.872 6.78,15.839 4.3,34.687 12.21,50 11.6,22.429 40.85,29.418 56.86,48.949 9.8,11.961 13.76,27.609 16.19,42.879 2.08,13.152 3.21,26.8 -0.42,39.609 -3.63,12.801 -12.83,24.711 -25.63,28.359 -14.56,4.153 -30.1,-3.019 -41.71,-12.738 -11.6,-9.719 -20.88,-22.058 -32.95,-31.191 -16.13,-12.199 -36.08,-17.879 -54.68,-25.828 -59.54,-25.461 -70.8,-79.77 -62.14,-140.219"></path><path id="path92" style="fill:#5a50ef;fill-opacity:1;fill-rule:nonzero;stroke:none" d="m 2491.1,2041.43 c -7.19,-165.9 -75.2,-329.39 -122.79,-491.6 -1.3,-4.6 -2.7,-9.2 -3.9,-13.8 -54.7,-191.3 -82,-390.4 -80.7,-589.288 0.2,-32.41 1.2,-64.91 5,-97.101 5.3,-45.5 16.3,-91.809 6,-136.411 -10.3,-44.601 -51.2,-86.8 -96.2,-78.589 -22.2,3.988 -41.7,20.398 -49.4,41.488 -3.9,10.613 -5,21.902 -6,33.113 -6.5,70.488 -13.01,140.887 -19.6,211.387 -9.3,101.411 -18.7,203.401 -10.11,304.901 8.31,98.5 33.41,194.8 46.61,292.81 13.5,99.2 14.7,199.69 15.89,299.79 0,53.8 1.21,107.71 1.9,161.6 0.4,36.91 -14.2,108.8 5.91,140.6 34.29,53.91 208.6,49.9 267.6,59.21 8.1,1.3 17.09,2.39 23.9,-2.21 7.3,-4.89 9.4,-14.6 10.6,-23.4 5.5,-37.6 6.9,-75.1 5.29,-112.5"></path><path id="path94" style="fill:#3936ce;fill-opacity:1;fill-rule:nonzero;stroke:none" d="m 2491.1,2041.43 c -7.19,-165.9 -75.2,-329.39 -122.79,-491.6 -1.3,-4.6 -2.7,-9.2 -3.9,-13.8 -14.11,91.6 -24,186.2 7.6,272.6 17.7,48.11 48,92.71 53.09,143.7 2.31,23.51 -0.79,47.61 4.91,70.61 13.7,55.49 40.6,45 61.09,18.49"></path><path id="path96" style="fill:#32259b;fill-opacity:1;fill-rule:nonzero;stroke:none" d="m 2878.14,676.93 c 17.46,-1.129 34.57,4.449 51.88,6.929 17.32,2.481 36.91,1.09 49.33,-11.23 19.86,-19.68 8.85,-55.738 -13.3,-72.797 -17.25,-13.293 -38.96,-19.09 -60.04,-24.594 -69.95,-18.246 -139.91,-36.488 -209.86,-54.738 -24.6,-6.418 -51.53,-12.68 -74.68,-2.16 -31.38,14.25 -42.81,56.308 -31.18,88.742 11.64,32.438 40.68,55.77 71.64,70.918 32.34,15.84 71.5,24.672 107.52,26.469 39.63,1.98 70.41,-25.047 108.69,-27.539"></path><path id="path98" style="fill:#7365ff;fill-opacity:1;fill-rule:nonzero;stroke:none" d="m 2444.4,1912.42 c 18.79,-41.32 44.36,-79.7 58.34,-122.88 13.52,-41.79 15.63,-86.27 17.63,-130.15 2.38,-52.18 4.75,-104.35 7.13,-156.53 14.46,-317.63 15.36,-570.981 92.99,-889.11 2.99,-12.238 15.37,-19.82 27.62,-16.941 v 0 l 91.7,21.613 c 21.03,4.957 35.66,24.027 35.01,45.617 l -10.81,356.601 c -6.89,227.17 -13.6,456.66 30.77,679.54 9.91,49.78 22.36,99.19 27.26,149.7 5.3,54.73 1.64,109.88 -2.02,164.74 l -14.68,220.02 c -0.01,0.13 -0.1,0.24 -0.23,0.26 -37.19,6.11 -75.24,-0.94 -111.91,-9.7 -76,-18.15 -201.97,-42.53 -261.58,-96.18 -53.99,-48.6 -13.45,-158.93 12.78,-216.6"></path><path id="path100" style="fill:#ffbfbe;fill-opacity:1;fill-rule:nonzero;stroke:none" d="m 2682.83,3442.6 c 3.24,-10.49 7.03,-21.98 2.45,-31.91 -1.78,-3.91 -4.35,-6.81 -7.58,-9.15 -9.94,-7.15 -25.34,-8.15 -38.06,-11.39 -20.98,-5.13 -38.27,-19.08 -54.56,-33.47 -1.68,-1.46 -3.46,-2.9 -5.14,-4.47 -12.49,18.3 -37.27,22.32 -59.25,24.44 -47.98,4.47 -96.08,6.7 -144.28,6.58 -2.8,15.74 -5.58,31.36 -8.37,47.09 -0.9,5.25 -1.79,10.83 0.22,15.74 2.12,5.24 7.14,8.59 12.27,10.93 17.41,7.82 41.4,7.7 49.99,24.89 2.8,5.58 3.24,11.94 3.58,18.19 1.56,28.56 3.46,59.59 22.42,81.12 4.36,4.91 9.49,9.15 13.62,14.29 7.14,8.81 11.05,19.86 17.74,29.01 6.7,9.15 18.3,16.63 29.13,13.06 2.9,-1.01 5.58,-2.68 8.48,-3.24 7.81,-1.34 14.51,5.13 19.08,11.49 12.05,16.96 19.19,37.05 21.09,57.69 1.34,15.29 1.56,37.05 17.96,45.31 17.42,8.59 22.32,-14.29 31.36,-25.22 11.05,-13.39 28.23,-24.44 30.47,-43.08 1.67,-13.83 -6.14,-27.33 -5.25,-41.17 1.79,-27.56 34.82,-41.74 46.53,-66.73 3.57,-7.48 4.36,-17.74 -2.11,-22.99 -3.47,-2.9 -8.37,-3.57 -11.61,-6.58 -4.24,-3.91 -4.58,-10.49 -4.35,-16.29 0.89,-28.46 5.69,-56.91 14.17,-84.14"></path><path id="path102" style="fill:#190b56;fill-opacity:1;fill-rule:nonzero;stroke:none" d="m 2603.87,3822.04 c -9.95,10.4 -26.72,12.43 -35.72,23.65 -3.56,4.42 -5.54,9.87 -8.42,14.76 -11.69,19.87 -39.81,27.96 -60.28,17.34 -7.69,-4 -14.21,-10.17 -22.31,-13.28 -16.81,-6.48 -35.31,1.59 -53.22,3.46 -44.89,4.69 -83.51,-29.32 -115.71,-60.94 -14.91,-14.65 -30.65,-30.84 -33.67,-51.53 -2.34,-15.98 3.23,-33.33 -3.77,-47.89 -6.36,-13.23 -21.86,-20.97 -26.14,-35.02 -3.25,-10.67 0.9,-22.07 1.03,-33.23 0.2,-17.22 -9.15,-33.01 -12.73,-49.87 -4.5,-21.18 0.68,-44.21 13.81,-61.43 10.02,-13.14 24.41,-23.1 31.48,-38.03 7.6,-16.03 5.92,-36.22 17.18,-49.93 4.82,-5.86 11.53,-9.84 18.41,-13.02 24.79,-11.46 53.66,-13.24 79.95,-5.96 4.94,0.29 9.86,0.8 14.71,1.66 15,2.68 30.74,8.44 38.94,21.26 4.38,6.86 6.31,15.31 11.96,21.16 5,5.2 12.37,7.71 17.11,13.16 9.89,11.42 3.96,28.87 5.29,43.92 1.15,13.07 8.18,25.15 8.8,38.26 1.03,21.44 -14.62,45.1 -2.29,62.67 5.56,7.92 16.28,11.74 25.65,9.31 9.37,-2.43 16.84,-10.83 18.36,-20.39 1.12,-7.05 -0.73,-14.22 -0.65,-21.36 0.08,-7.14 3.01,-15.22 9.76,-17.53 9.13,-3.11 18.1,6.84 18.95,16.45 0.85,9.6 -3.24,18.88 -4.8,28.39 -4.66,28.46 13.38,55.82 14.67,84.63 0.49,11.15 -1.08,23.8 6.41,32.08 2.85,3.17 6.74,5.25 9.71,8.32 3.09,3.19 4.87,7.45 5.37,11.85 17.63,19.97 29.27,45.7 12.16,67.08"></path><path id="path104" style="fill:#f79f9f;fill-opacity:1;fill-rule:nonzero;stroke:none" d="m 2677.7,3401.54 c -9.94,-7.15 -25.34,-8.15 -38.06,-11.39 -20.98,-5.13 -38.27,-19.08 -54.56,-33.47 -2.01,3.9 -2.35,8.81 -1.68,13.27 1.12,6.7 4.02,12.84 5.81,19.42 6.02,23.32 -4.91,46.42 -10.94,68.63 -1.12,4.01 -9.26,28.79 0.11,27.45 5.24,-0.78 15.4,-31.58 17.74,-36.83 4.58,-9.93 9.49,-20.3 18.31,-26.78 13.5,-10.04 32.13,-8.03 48.65,-11.71 5.58,-1.23 11.6,-4.13 14.62,-8.59"></path><path id="path106" style="fill:#f79f9f;fill-opacity:1;fill-rule:nonzero;stroke:none" d="m 1868.27,2683.89 c -3.43,-8.59 -6.88,-18.08 -3.99,-26.86 2.05,-6.2 6.93,-10.96 11.41,-15.7 33.77,-35.67 52.67,-82.44 77.12,-125.04 47.85,-83.35 117.61,-151.59 186.46,-218.65 18.58,-18.09 37.62,-36.51 61.02,-47.69 2.63,40.97 4.59,81.99 5.89,123.03 0.57,18.09 0.62,37.56 -9.7,52.43 -6.75,9.7 -17.09,16.15 -26.13,23.75 -61.76,51.91 -58.65,151.73 -113.58,210.83 -8.93,9.61 -20.16,20.42 -17.9,33.35 1.07,6.08 5.05,11.17 8.9,15.99 26.84,33.6 53.69,67.19 80.53,100.78 1.4,1.76 -141.09,105.92 -167.49,88.73 -20.42,-13.3 -37.55,-83.05 -47.39,-105.93 -15.52,-36.15 -30.57,-72.49 -45.15,-109.02"></path><path id="path108" style="fill:#122cd8;fill-opacity:1;fill-rule:nonzero;stroke:none" d="m 2088.11,3175.98 c -41.22,-40.19 -71.93,-90.06 -96.46,-142.14 -23.03,-48.87 -40.93,-99.97 -58.78,-150.97 -0.38,-1.1 -0.77,-2.32 -0.36,-3.41 0.45,-1.19 1.7,-1.85 2.84,-2.4 34.85,-16.86 69.7,-33.72 104.55,-50.58 26.06,-12.61 53.5,-26.44 68.7,-51.08 2.65,-4.3 6.33,-9.58 11.27,-8.54 3.98,0.84 5.81,5.36 6.94,9.27 13.38,46.2 19.94,94.36 19.41,142.46 -0.33,28.91 -3.19,58 0.84,86.64 5.75,40.92 25.27,78.83 32.06,119.59 2.48,14.88 16.24,109.8 4.7,115.56 -18.56,9.28 -83.25,-52.25 -95.71,-64.4"></path><path id="path110" style="fill:#ffbfbe;fill-opacity:1;fill-rule:nonzero;stroke:none" d="m 3172.26,2874.17 c -38.84,-12.62 -81.02,-5.03 -121.08,2.67 -30.91,5.92 -61.71,11.83 -92.61,17.75 -8.04,1.56 -17.64,4.68 -18.86,12.72 -0.56,3.23 0.55,6.36 1.56,9.37 12.16,33.7 30.35,69.19 20.08,103.44 -3.68,12.28 -10.82,23.1 -18.07,33.71 -43.97,64.27 -95.64,123.41 -153.55,175.52 -54.01,48.77 -98.53,108.13 -164.48,142.17 -0.78,17.96 24.1,27.11 40.73,20.08 16.62,-7.03 27.45,-22.98 40.73,-35.26 5.13,-4.8 12.83,-9.26 18.63,-5.47 4.25,2.68 5.25,8.48 4.8,13.51 -0.11,0.78 -0.11,1.55 -0.33,2.34 -3.02,19.53 -20.64,33.48 -34.93,47.65 -14.95,14.73 -27.67,37.82 -16.29,55.34 1.56,2.35 3.46,4.58 6.03,5.58 0.22,0.12 0.33,0.12 0.55,0.12 11.05,4.01 17.97,-12.17 27.01,-20.2 14.61,-12.84 37.04,-2.68 56.46,-2.35 22.66,0.23 43.29,-14.17 57.47,-31.91 14.17,-17.74 23.43,-38.72 35.26,-58.14 32.14,-53.11 81.8,-92.95 131.45,-130.22 57.81,-43.3 118.07,-85.48 162.14,-142.72 8.59,-11.16 16.52,-22.77 24.44,-34.48 11.83,-17.3 23.55,-34.48 35.26,-51.78 7.92,-11.61 15.96,-23.55 19.42,-37.16 10.15,-39.61 -22.99,-79.68 -61.82,-92.28"></path><path id="path112" style="fill:#f79f9f;fill-opacity:1;fill-rule:nonzero;stroke:none" d="m 2730.7,3370.96 c -0.11,-1.45 -0.23,-3.01 -0.89,-4.24 -3.02,19.53 -20.64,33.48 -34.93,47.65 -14.95,14.73 -27.67,37.82 -16.29,55.34 1.56,2.35 3.46,4.58 6.03,5.58 0.22,0.12 0.33,0.12 0.55,0.12 4.91,0 9.49,-1.9 12.72,-5.81 10.16,-12.05 1.12,-31.24 7.37,-45.75 3.01,-6.92 9.26,-11.83 14.06,-17.63 8.03,-9.82 12.16,-22.65 11.38,-35.26"></path><path id="path114" style="fill:#f79f9f;fill-opacity:1;fill-rule:nonzero;stroke:none" d="m 2780.39,3259.65 c 10.5,-0.43 20.97,1.35 31.48,1.51 31.53,0.47 61.71,-13.75 87.03,-32.54 25.33,-18.79 46.84,-42.16 70.08,-63.48 44.21,-40.54 95.04,-73.85 149.87,-98.2 14.73,-6.54 29.75,-12.44 44.94,-17.85 -27.96,6.9 -56.16,13.83 -84.94,14.87 -9.14,0.33 -18.32,0.07 -27.41,1.12 -17.73,2.04 -34.51,8.98 -50.61,16.68 -41.74,19.96 -80.82,45.48 -115.87,75.68 -15.29,13.16 -29.86,27.26 -46.44,38.75 -23.7,16.42 -50.73,27.15 -74.93,42.74 -6.01,3.86 -30.2,16.76 -24.19,26.18 4.2,6.6 32.89,-5.14 40.99,-5.46"></path><path id="path116" style="fill:#3543fc;fill-opacity:1;fill-rule:nonzero;stroke:none" d="m 2854.42,2175.91 c -19.42,-30.7 -68.74,-20.09 -97.75,-41.85 -10.83,-8.04 -18.08,-20.2 -28.91,-28.01 -15.17,-11.04 -34.92,-12.39 -52.55,-18.52 -35.38,-12.17 -61.49,-42.86 -96.08,-57.14 -27.67,-11.38 -58.7,-11.27 -88.71,-11.05 -57.81,0.45 -115.61,1.01 -173.41,1.46 -48.21,0.44 -103.22,4.01 -132.91,42.07 -35.71,45.86 -13.16,110.69 -5.57,168.72 0.22,1.56 0.33,3.01 0.55,4.46 6.92,59.59 -6.36,119.51 -12.05,179.21 -3.9,39.95 -4.24,80.23 -9.04,120.18 -7.48,61.49 -25.22,120.96 -44.18,180.11 -6.37,19.86 -12.95,39.73 -19.2,59.58 -24.99,78.9 -46.86,160.47 -42.85,243.16 3.91,82.68 37.38,167.6 104.45,216.26 29.68,21.53 65.61,36.15 98.98,52.78 36.6,18.3 70.19,39.17 89.49,74.54 4.24,7.92 7.81,16.4 13.84,22.99 15.95,17.29 38.5,16.4 59.92,14.39 4.35,-0.33 8.82,-0.78 13.06,-1.11 34.7,-2.68 68.96,-7.82 102.66,-16.85 14.17,-3.91 28.9,-8.6 39.28,-18.97 8.59,-8.49 13.61,-19.87 21.09,-29.35 34.59,-44.08 102.88,-30.24 156.78,-47.09 4.13,-1.23 8.26,-2.68 12.16,-4.35 1.68,-0.79 3.35,-1.45 5.03,-2.35 4.9,-2.57 9.48,-5.91 12.49,-10.49 4.47,-7.03 4.69,-15.95 4.47,-24.32 -0.56,-17.19 -2.24,-34.71 -4.47,-52.23 0,0 0,0 0,-0.11 -0.22,-2.23 -0.55,-4.35 -0.78,-6.58 -8.81,-68.74 -22.43,-138.04 9.15,-197.74 11.16,-20.87 27.45,-39.39 33.48,-62.26 3.9,-14.85 3.24,-30.36 2.45,-45.64 -3.57,-77.56 -7.14,-155.11 -10.93,-232.56 -0.45,-11.49 -1,-22.87 -1.57,-34.37 -2,-43.63 -4.01,-87.37 -0.44,-130.89 0.67,-8.37 1.56,-16.62 2.68,-24.99 3.68,-29.36 9.6,-58.48 15.28,-87.49 9.04,-45.86 18.19,-91.73 27.34,-137.7 3.69,-18.75 7.03,-39.72 -3.23,-55.9"></path><path id="path118" style="fill:#122cd8;fill-opacity:1;fill-rule:nonzero;stroke:none" d="m 2084.16,3141.67 c -1.88,0 -3.71,0.94 -4.76,2.67 -1.61,2.63 -0.78,6.06 1.85,7.67 3.44,2.1 6.94,4.11 10.45,6.03 63.28,34.93 126.96,53.11 194.67,55.61 l 0.73,0.02 0.72,-0.16 c 24.66,-5.59 50.87,0.87 76.21,7.13 l 7.3,1.8 c 55.47,13.5 104.3,18.76 149.3,16.05 39.88,-2.39 79.38,-11.28 117.58,-19.87 36.93,-8.31 75.12,-16.9 113.22,-19.46 3.07,-0.21 5.4,-2.86 5.19,-5.95 -0.21,-3.07 -2.74,-5.34 -5.94,-5.19 -38.96,2.62 -77.58,11.31 -114.92,19.71 -37.77,8.5 -76.82,17.28 -115.8,19.62 -43.86,2.61 -91.61,-2.51 -145.99,-15.76 l -7.25,-1.78 c -26.37,-6.53 -53.63,-13.27 -80.66,-7.34 -65.65,-2.53 -127.47,-20.26 -188.97,-54.2 -3.37,-1.85 -6.72,-3.77 -10.02,-5.79 -0.91,-0.55 -1.92,-0.81 -2.91,-0.81"></path><path id="path120" style="fill:#122cd8;fill-opacity:1;fill-rule:nonzero;stroke:none" d="m 2510.65,3336.26 c -40.06,-1.46 -80.13,-2.91 -120.18,-4.36 -9.27,-0.33 -18.53,-0.67 -27.12,-3.79 -15.06,-5.36 -25.89,-18.19 -35.71,-30.8 -4.91,-6.36 -10.6,-13.28 -18.52,-14.62 -6.03,-1 -12.05,1.56 -17.97,3.13 -9.48,2.67 -19.53,3.12 -29.23,1.34 -2.01,-0.45 -4.24,-0.9 -6.25,-0.12 -0.12,0.12 -0.34,0.12 -0.45,0.34 36.6,18.3 70.19,39.16 89.49,74.54 4.25,7.92 7.82,16.4 13.84,22.99 15.96,17.29 38.5,16.4 59.92,14.39 -1.33,-13.5 -7.8,-26.89 0.45,-40.84 8.26,-14.17 26.56,-18.75 42.96,-19.08 16.41,-0.34 33.26,2.23 48.77,-3.12"></path><path id="path122" style="fill:#122cd8;fill-opacity:1;fill-rule:nonzero;stroke:none" d="m 2812.79,2612.88 c -2,-43.63 -4.01,-87.37 -0.44,-130.89 0.67,-8.37 1.56,-16.62 2.68,-24.99 -0.22,-0.67 -0.45,-1.35 -0.79,-2.01 -21.31,5.36 -36.37,24.88 -43.85,45.52 -7.47,20.54 -9.15,42.86 -13.61,64.28 -3.13,14.95 -7.81,29.57 -9.6,44.75 -2.34,18.52 -0.56,37.27 0.45,55.9 1.34,25.11 1.11,50.33 -0.45,75.44 -0.22,3.68 -0.56,7.58 -2.79,10.49 -4.24,5.91 -13.39,5.35 -19.97,2.01 -6.47,-3.24 -11.83,-8.71 -18.75,-11.05 -4.91,22.2 18.75,40.39 22.65,62.71 1.45,8.71 -0.11,17.63 -1.67,26.33 -5.8,31.7 -11.72,63.84 -26.78,92.29 -15.51,29.24 -39.84,52.67 -63.72,75.55 22.99,-3.69 45.98,-7.48 68.96,-11.16 5.14,-0.79 11.5,-1.23 14.4,3.12 1.79,2.68 1.45,6.03 1.22,9.15 -2.56,24.89 -6.35,49.88 -6.92,74.99 -0.78,40.73 7.15,81.12 14.96,121.19 2.68,13.38 3.35,43.96 21.98,43.96 20.87,0 22.65,-28.46 26.34,-42.85 1,-4.02 2.12,-8.15 3.12,-12.16 -8.81,-68.74 -22.43,-138.04 9.15,-197.74 11.16,-20.87 27.45,-39.39 33.48,-62.26 3.9,-14.85 3.24,-30.36 2.45,-45.64 -3.57,-77.56 -7.14,-155.11 -10.93,-232.56 -0.45,-11.49 -1,-22.87 -1.57,-34.37"></path><path id="path124" style="fill:#3543fc;fill-opacity:1;fill-rule:nonzero;stroke:none" d="m 2848.72,3227.58 c 27.44,-21.55 54.94,-43.16 79.78,-67.66 8.32,-8.21 16.48,-16.85 26.62,-22.64 6.34,-3.63 13.27,-6.04 20.08,-8.67 33.5,-13 64.37,-31.83 95.04,-50.55 2.16,-1.32 4.43,-2.77 5.47,-5.07 1.35,-3.03 0.16,-6.53 -1.07,-9.6 -23.86,-59.46 -63.72,-112.4 -114.26,-151.75 -15.81,-12.32 -35.64,-23.86 -54.87,-18.2 -19.87,5.85 -32.12,28.42 -52.52,31.96 -7.41,1.29 -15.02,-0.17 -22.53,0.18 -13.83,0.65 -26.75,7.42 -37.51,16.13 -44.74,36.2 -53.9,100.7 -50.84,158.17 1.48,27.71 4.99,55.27 6.41,82.98 1.22,23.86 -5.72,51.92 -0.54,75.04 10.79,48.16 81.66,-15.33 100.74,-30.32"></path><path id="path126" style="fill:#122cd8;fill-opacity:1;fill-rule:nonzero;stroke:none" d="m 2231.31,2321.31 c 3.46,-20.32 -2.24,-41.07 -7.81,-60.93 -0.78,-3.02 -1.68,-6.03 -3.58,-8.37 -2.34,-2.79 -6.02,-4.24 -9.48,-5.69 -10.94,-4.36 -21.54,-9.38 -31.91,-14.73 0.22,1.56 0.33,3.01 0.55,4.46 6.92,59.59 -6.36,119.51 -12.05,179.21 -3.9,39.95 -4.24,80.23 -9.04,120.18 -7.48,61.49 -25.22,120.96 -44.18,180.11 2.78,-5.25 5.24,-10.27 7.47,-13.84 16.18,-26.56 35.82,-51.22 58.03,-72.98 15.51,-15.07 32.36,-29.01 44.74,-46.64 25,-36.05 30.36,-86.49 65.62,-112.48 -41.63,0.88 -64.5,50.43 -102.77,67.17 16.07,-19.97 26.1,-44.52 28.56,-69.97 3.35,-33.7 -6.25,-68.29 2.12,-101.09 3.79,-15.07 11.27,-29.13 13.73,-44.41"></path><path id="path128" style="fill:#4f4777;fill-opacity:1;fill-rule:nonzero;stroke:none" d="m 5174.06,824.48 c -1.83,-16.878 4.49,-33.89 14.46,-47.628 9.39,-12.942 22.05,-23.473 36.48,-30.372 20.04,-9.57 43.96,-12.621 59.84,-28.14 18.5,-18.102 21.46,-49.07 42.52,-64.098 13.1,-9.363 30.23,-10.273 46.33,-10.48 21.13,-0.293 44.34,0.82 60.02,15.008 18.97,17.199 19.4,46.351 18.43,71.96 -0.67,17.391 -1.82,36.129 -12.84,49.622 -5.18,6.339 -12.15,10.937 -19.08,15.289 -40.79,25.578 -234.27,138.668 -246.16,28.839"></path><path id="path130" style="fill:#b550ef;fill-opacity:1;fill-rule:nonzero;stroke:none" d="m 5325.15,1778.11 c -4.3,-34.83 -10.53,-69.52 -11.58,-104.6 -3.72,-124.81 57.48,-241.11 88.98,-361.94 18.1,-69.45 26.43,-141.04 33.39,-212.46 10.65,-109.372 18.19,-219.251 14.99,-329.09 -0.23,-8.278 -0.66,-17 -5.04,-24.028 -4.49,-7.183 -12.41,-11.441 -20.26,-14.613 -69.12,-27.797 -157.71,18.25 -174.66,90.793 -11.66,49.887 6.8,101.25 11.54,152.258 4.29,46.2 -2.78,92.65 -10.49,138.41 -23.47,139.3 -53.26,278.19 -103.41,410.25 -12.82,33.76 -27.04,67.2 -46.35,97.72 -7.69,12.15 -16.29,24.05 -20.48,37.81 -4.34,14.28 -3.64,29.54 -2.89,44.44 5.09,101.43 10.18,202.85 15.27,304.27 1.33,26.69 3.64,55.77 21.84,75.34 21.06,22.64 55.96,24.59 86.77,21.93 25.34,-2.2 68.96,5.76 92.26,-4.12 27.61,-11.73 25.56,-53.23 28.98,-79.04 10.69,-80.62 11.12,-162.6 1.14,-243.33"></path><path id="path132" style="fill:#8227c1;fill-opacity:1;fill-rule:nonzero;stroke:none" d="m 5189.34,1486.66 c -4.13,-18.98 -7.03,-38.17 -8.59,-57.58 -9.6,31.36 -20.09,62.37 -31.81,93.07 -12.83,33.8 -27,67.28 -46.31,97.74 -7.69,12.17 -16.29,24.11 -20.52,37.83 -4.36,14.29 -3.58,29.57 -2.91,44.42 3.24,64.38 6.47,128.66 9.71,193.04 75.1,44.19 70.19,-114.04 63.94,-161.91 -3.68,-28.13 -10.04,-57.47 -0.56,-84.14 9.71,-27 34.37,-46.87 43.29,-74.2 9.38,-28.46 0.12,-59.15 -6.24,-88.27"></path><path id="path134" style="fill:#5b558e;fill-opacity:1;fill-rule:nonzero;stroke:none" d="m 4625.09,699.07 c -23.57,-1.672 -51.71,-6.418 -61.01,-28.148 -10.39,-24.301 10.94,-49.961 31.65,-66.371 38.56,-30.571 84.02,-56.09 133.21,-57.301 34.31,-0.848 69.24,10.141 102.49,1.641 39.96,-10.211 77.47,-47.661 115.92,-32.711 20.8,8.09 33.43,30.281 36.47,52.39 3.05,22.121 -1.78,44.481 -6.6,66.282 -1.35,6.117 -2.83,12.507 -6.83,17.32 -4.22,5.07 -10.61,7.68 -16.73,10.098 -46.14,18.269 -101.19,52.039 -151.72,53.25 -56.98,1.359 -119.55,-12.051 -176.85,-16.45"></path><path id="path136" style="fill:#cc6eff;fill-opacity:1;fill-rule:nonzero;stroke:none" d="m 4816.79,1280.82 c 8.95,-205.74 -22.24,-412.3 -4.02,-617.422 41.95,-13.769 85.69,-22.089 129.78,-24.687 10.75,-0.629 23.17,-0.219 29.97,8.129 5.59,6.879 5.26,16.601 5.68,25.461 1.48,31.258 15.65,60.269 26.02,89.801 28.67,81.527 28.96,170.039 25.69,256.388 -6.96,183.65 -28.49,369.16 4.12,550.02 6.76,37.49 15.88,74.75 30.77,109.82 14.36,33.82 33.88,65.14 50.5,97.91 28.29,55.77 48.14,115.82 58.69,177.46 2.31,13.53 4.12,27.79 -0.47,40.73 -6.11,17.22 -22.2,28.62 -37.7,38.28 -74.36,46.33 -156.39,79.06 -239.61,106.46 -21.93,7.21 -45.14,14.16 -67.77,9.56 -50.81,-10.32 -55.34,-73.84 -60.71,-114.56 -7.99,-60.58 -9.75,-121.82 -7.75,-182.83 3.99,-122.9 23.03,-244.59 38.12,-366.44 8.39,-67.8 15.73,-135.8 18.69,-204.08"></path><path id="path138" style="fill:#ffbfbe;fill-opacity:1;fill-rule:nonzero;stroke:none" d="m 5206.38,3280.09 c -60.48,8.82 -123.86,-4.57 -175.97,-36.48 -7.71,-4.58 -15.18,-9.71 -22.33,-15.18 -2.45,-1.9 -5.12,-3.91 -8.14,-3.68 -2.68,0.22 -4.9,2 -6.69,4.01 -12.39,13.28 -15.4,35.04 -31.47,43.3 -4.13,2.12 -8.71,3.12 -13.39,3.79 -9.26,1.46 -18.86,1.79 -25.89,7.59 -9.49,7.92 -9.82,22.1 -9.49,34.48 1.23,34.04 2.46,68.19 3.58,102.22 0.33,7.03 0.44,14.17 -1.68,20.76 -1.11,3.34 -2.68,6.47 -3.01,9.93 -0.67,9.82 9.38,16.4 15.96,23.76 14.83,16.41 13.39,41.07 13.84,63.16 0.55,32.48 30.57,91.06 66.61,50.11 8.71,-9.93 14.39,-22.55 24.66,-30.8 8.48,-6.81 19.3,-10.05 27.9,-16.63 14.51,-11.05 20.42,-29.91 25.44,-47.43 15.84,-56.79 32.58,-118.5 79.46,-154.21 10.26,-7.81 21.76,-14.06 30.46,-23.43 8.82,-9.38 14.62,-23.1 10.15,-35.27"></path><path id="path140" style="fill:#190d57;fill-opacity:1;fill-rule:nonzero;stroke:none" d="m 5037.53,3693.11 c 8.8,1.33 17.83,1.44 26.45,3.71 11.68,3.09 21.98,9.98 33.3,14.22 22.82,8.55 48.26,5.87 72.09,0.76 14.66,-3.14 29.69,-7.43 40.94,-17.34 13.17,-11.61 19.47,-29.44 32.42,-41.3 11.31,-10.37 26.69,-15.24 38.53,-25.02 19.72,-16.3 26.59,-43.64 27.46,-69.22 0.87,-25.59 -3.07,-51.34 0.21,-76.72 2.43,-18.82 8.74,-38.32 2.52,-56.25 -8.78,-25.31 -38.66,-36.91 -52.41,-59.89 -12.07,-20.18 -12.73,-49.85 -33.99,-59.87 -9.64,-4.54 -20.88,-3.33 -31.46,-2.02 -10.94,1.35 -21.87,2.7 -32.8,4.05 -10.6,1.32 -21.37,2.68 -31.13,7.02 -19.97,8.89 -32.78,29.08 -39.62,49.84 -6.85,20.76 -8.86,42.77 -14.03,64.01 -4.88,20.13 -12.62,39.56 -22.9,57.54 -3.71,6.5 -8.37,13.28 -15.56,15.39 -9.36,2.74 -19.39,-4.05 -23.69,-12.82 -4.28,-8.76 -4.25,-18.94 -4.15,-28.7 -7.59,-6.37 -20.03,0.11 -23.75,9.3 -3.71,9.2 -1.82,19.54 -1.3,29.44 2.35,44.53 -36.39,70.96 -27.31,114.9 8.01,38.74 40.44,73 80.18,78.97"></path><path id="path142" style="fill:#f79f9f;fill-opacity:1;fill-rule:nonzero;stroke:none" d="m 4950.13,3166.67 c -42.09,-16.01 -100.78,-97 -104.53,-97.65 -4,-0.7 -13.44,3.9 -17.02,5.83 -13.38,7.19 -22.55,20.12 -31.23,32.59 -56.43,81.13 -112.85,162.25 -169.28,243.37 -36.54,14.39 -68.92,45.45 -87.41,80.11 -7.83,14.69 -14.64,31.79 -29.63,39.03 -4.92,2.38 -10.51,3.54 -14.78,6.95 -5.44,4.34 -7.7,11.44 -9.68,18.11 -6.08,20.5 -11.94,43.5 -2.03,62.44 9.89,18.88 32.02,27.17 52.24,33.88 12.9,4.29 26.68,8.62 39.87,5.26 10.8,-2.75 19.66,-10.33 27.49,-18.27 25.29,-25.68 44.07,-57.72 54.12,-92.34 5.17,-17.84 8.15,-36.54 16.69,-53.04 8.81,-17.04 22.97,-30.59 36.86,-43.81 50.85,-48.37 101.84,-96.85 157.83,-139.17 32.53,-24.6 61.34,-47.28 80.49,-83.29"></path><path id="path144" style="fill:#91b6ff;fill-opacity:1;fill-rule:nonzero;stroke:none" d="m 5291.52,2576.86 c -16.62,-93.85 -17.18,-190.48 -7.59,-286.56 2.79,-29.01 6.59,-58.03 11.16,-86.92 5.8,-37.72 12.95,-75.1 20.98,-112.15 3.02,-14.17 5.59,-30.91 -4.57,-41.17 -4.36,-4.58 -10.49,-6.93 -16.41,-9.15 -22.43,-8.37 -45.07,-16.3 -67.84,-23.77 -65.28,-21.43 -134.35,-39.28 -202.2,-28.35 -35.48,5.58 -69.63,19.08 -99.31,39.17 -7.03,4.68 -13.73,9.82 -20.65,14.72 -11.49,8.37 -23.1,16.41 -36.27,21.77 -23.09,9.38 -49.88,9.93 -70.3,24.21 -21.53,14.95 -30.02,39.95 -32.58,66.95 -1.68,16.74 -1.12,34.15 -0.11,50.44 9.15,147.08 12.39,294.48 6.8,441.67 -2.57,71.08 -7.25,142.5 -0.33,213.36 6.92,70.86 26.34,142.05 67.51,200.08 19.41,27.23 43.18,51.1 66.85,74.76 11.37,11.38 22.76,22.76 34.14,34.15 13.05,13.05 26.11,26.11 39.17,39.17 18.63,18.63 37.38,37.49 59.59,51.44 0.1,0.11 0.33,0.22 0.45,0.33 39.94,25.45 88.26,33.59 135.02,32.59 34.48,-0.67 26.22,-1.12 31.91,-26.34 6.25,-27.12 15.73,-49.88 32.47,-72.31 19.53,-26.22 43.41,-48.99 62.49,-75.43 39.17,-54.35 56.02,-121.74 61.49,-188.47 2.79,-35.27 2.67,-70.97 -3.13,-105.79 -8.7,-52.34 -29.79,-101.55 -45.53,-152.21 -8.47,-27.23 -15.17,-54.68 -20.52,-82.46 -1.01,-4.58 -1.91,-9.15 -2.69,-13.73"></path><path id="path146" style="fill:#f79f9f;fill-opacity:1;fill-rule:nonzero;stroke:none" d="m 5030.41,3243.61 c -7.71,-4.58 -15.18,-9.71 -22.33,-15.18 -2.45,-1.9 -5.12,-3.91 -8.14,-3.68 -2.68,0.22 -4.9,2 -6.69,4.01 -12.39,13.28 -15.4,35.04 -31.47,43.3 -4.13,2.12 -8.71,3.12 -13.39,3.79 0.44,0.45 0.89,0.89 1.45,1.23 18.53,13.73 37.05,24.1 53.9,40.4 4.34,4.13 8.7,8.37 11.82,13.61 7.59,13.17 5.47,30.02 11.6,43.97 4.7,-18.64 4.25,-38.5 -1.33,-56.91 -3.91,-12.95 -10.37,-26 -8.37,-39.51 1.78,-12.16 10.6,-23.32 12.95,-35.03"></path><path id="path148" style="fill:#7396de;fill-opacity:1;fill-rule:nonzero;stroke:none" d="m 5167.21,3222.4 c -47.99,1.45 -96.3,-7.58 -140.6,-26.22 -10.16,-4.24 -20.2,-9.04 -31.02,-11.38 -10.27,-2.12 -20.98,-1.9 -30.8,-5.14 -5.57,-1.89 -10.71,-4.79 -15.85,-7.81 -3.34,-1.89 -6.02,-2.45 -8.14,-1.78 13.05,13.05 26.11,26.11 39.17,39.17 18.63,18.63 37.38,37.49 59.59,51.44 2.34,-3.69 4.34,-7.59 6.69,-11.05 6.7,-9.71 18.19,-15.18 29.79,-17.63 11.5,-2.34 23.44,-2.12 35.26,-2.46 18.86,-0.67 37.61,-3.01 55.91,-7.14"></path><path id="path150" style="fill:#7396de;fill-opacity:1;fill-rule:nonzero;stroke:none" d="m 5291.52,2576.86 c -16.62,-93.85 -17.18,-190.48 -7.59,-286.56 -25.89,-74.32 -49.21,-149.41 -56.46,-227.53 -1.78,46.31 0,92.73 8.26,138.26 6.58,36.6 17.52,72.53 21.2,109.46 2.12,20.65 1.89,41.41 1.79,62.16 -0.12,15.96 -0.23,31.92 -0.33,47.77 -19.87,-48.32 -56.81,-87.38 -93.07,-125.1 -30.02,-31.35 -60.15,-62.71 -90.28,-94.06 40.17,45.07 80.79,91.05 107.12,145.4 11.27,23.42 19.76,48.09 28.24,72.64 8.59,24.77 17.07,49.54 25.66,74.32 5.14,14.84 10.27,29.79 18.08,43.4 10.5,18.08 25.33,33.15 37.6,50.11 0.79,1.11 1.68,2.23 2.47,3.46 -1.01,-4.58 -1.91,-9.15 -2.69,-13.73"></path><path id="path152" style="fill:#7396de;fill-opacity:1;fill-rule:nonzero;stroke:none" d="m 5162.97,2631.21 c -27.67,-8.26 -55.23,-16.52 -82.8,-24.78 -21.86,-6.47 -45.08,-13.94 -59.36,-31.57 -15.51,-19.2 -17.07,-45.53 -20.31,-69.86 -5.58,-41.96 -17.96,-82.91 -36.71,-120.85 -18.31,-37.16 -42.51,-71.42 -57.36,-110.03 -28.35,-73.54 -19.86,-153.43 -1.34,-231.44 -11.49,8.37 -23.1,16.41 -36.27,21.77 -23.09,9.38 -49.88,9.93 -70.3,24.21 -21.53,14.95 -30.02,39.95 -32.58,66.95 5.13,31.36 21.09,61.83 36.94,89.94 52.66,93.52 108.9,186.47 139.04,289.47 10.37,35.48 17.63,71.97 29.57,107.12 30.46,89.39 92.05,171.96 89.82,266.36 -1.33,56.8 -27.11,101.99 -62.82,144.07 80.34,-43.53 120.18,-158.46 107.9,-245.05 -5.46,-38.84 -19.86,-77.33 -14.05,-116.06 2.12,-14.5 8.59,-30.24 22.31,-35.71 9.6,-3.9 20.65,-1.67 30.91,-3.45 10.38,-1.79 21.2,-11.39 17.41,-21.09"></path><path id="path154" style="fill:#ffbfbe;fill-opacity:1;fill-rule:nonzero;stroke:none" d="m 4739.07,2485.6 c -29.07,-100.86 -33.49,-206.94 -37.71,-311.82 -0.93,-23.21 -1.86,-46.59 1.68,-69.54 4.51,-29.19 16.12,-56.81 22.65,-85.62 6.31,-27.85 7.96,-57.11 19.65,-83.16 11.68,-26.06 37.51,-48.96 65.82,-45.26 -7.42,71.18 -14.85,142.37 -22.27,213.55 -1.04,10.02 -2.08,20.2 -0.32,30.12 2.22,12.48 8.7,23.71 14.93,34.75 79.91,141.42 135.95,296.28 165.02,456.08 1.27,7.02 2.21,15.15 -2.55,20.46 -3.54,3.95 -9.19,5.06 -14.41,5.94 -36.14,6.13 -132.27,41.19 -156.76,9.85 -14.64,-18.72 -18.21,-63.62 -26.23,-86.98 -10,-29.13 -18.26,-59.76 -29.5,-88.37"></path><path id="path156" style="fill:#ddddff;fill-opacity:1;fill-rule:nonzero;stroke:none" d="M 4460.27,3260.68 H 3003.43 c -78.85,0 -142.78,63.93 -142.78,142.79 v 684.04 c 0,78.86 63.93,142.79 142.78,142.79 h 1456.84 c 78.86,0 142.79,-63.93 142.79,-142.79 v -684.04 c 0,-78.86 -63.93,-142.79 -142.79,-142.79"></path><path id="path158" style="fill:#ffbfbe;fill-opacity:1;fill-rule:nonzero;stroke:none" d="m 4568.69,3506.63 c -7.63,8.98 -14.67,18.45 -21.08,28.35 -4.32,6.7 -8.46,13.94 -8.89,21.9 -0.43,7.96 4.03,16.73 11.77,18.63 8.37,2.05 16.42,-4.3 21.81,-11.02 12.69,-15.79 19.84,-36.29 35.84,-48.71 6.85,-5.32 15.46,-9.36 19.01,-17.26 3.65,-8.1 0.68,-17.67 -3.79,-25.34 -2.18,-3.73 -8.45,-15.28 -13.28,-15.88 -6.46,-0.79 -8.81,8.83 -11.83,13.49 -8.44,13.04 -19.55,24.06 -29.56,35.84"></path><path id="path160" style="fill:#fbf5ff;fill-opacity:1;fill-rule:nonzero;stroke:none" d="m 3263.72,3428.97 v 100 c 122.25,0 221.71,99.46 221.71,221.72 h 100 c 0,-177.4 -144.32,-321.72 -321.71,-321.72"></path><path id="path162" style="fill:#3441ff;fill-opacity:1;fill-rule:nonzero;stroke:none" d="m 3263.72,3428.97 c -177.4,0 -321.72,144.32 -321.72,321.72 0,64.46 19.01,126.68 54.97,179.9 l 82.87,-55.97 c -24.75,-36.64 -37.84,-79.5 -37.84,-123.93 0,-122.26 99.47,-221.72 221.72,-221.72 v -100"></path><path id="path164" style="fill:#cc6eff;fill-opacity:1;fill-rule:nonzero;stroke:none" d="m 3585.43,3750.69 h -100 c 0,122.25 -99.46,221.71 -221.71,221.71 -73.77,0 -142.51,-36.56 -183.88,-97.78 l -82.87,55.97 c 59.99,88.8 159.71,141.81 266.75,141.81 177.39,0 321.71,-144.32 321.71,-321.71"></path><path id="path166" style="fill:#cc6eff;fill-opacity:1;fill-rule:nonzero;stroke:none" d="m 3828.88,3925.38 c 0,24.93 -20.21,45.14 -45.14,45.14 -24.94,0 -45.15,-20.21 -45.15,-45.14 0,-24.93 20.21,-45.14 45.15,-45.14 24.93,0 45.14,20.21 45.14,45.14"></path><path id="path168" style="fill:#fbf5ff;fill-opacity:1;fill-rule:nonzero;stroke:none" d="m 3828.88,3732.93 c 0,24.93 -20.21,45.14 -45.14,45.14 -24.94,0 -45.15,-20.21 -45.15,-45.14 0,-24.94 20.21,-45.14 45.15,-45.14 24.93,0 45.14,20.2 45.14,45.14"></path><path id="path170" style="fill:#3441ff;fill-opacity:1;fill-rule:nonzero;stroke:none" d="m 3828.88,3540.48 c 0,24.93 -20.21,45.14 -45.14,45.14 -24.94,0 -45.15,-20.21 -45.15,-45.14 0,-24.94 20.21,-45.15 45.15,-45.15 24.93,0 45.14,20.21 45.14,45.15"></path><path id="path172" style="fill:#fbf5ff;fill-opacity:1;fill-rule:nonzero;stroke:none" d="m 4499.14,3931.59 h -545.22 c -12.47,0 -22.57,10.11 -22.57,22.57 v 0 c 0,12.46 10.1,22.57 22.57,22.57 h 545.22 c 12.46,0 22.57,-10.11 22.57,-22.57 v 0 c 0,-12.46 -10.11,-22.57 -22.57,-22.57"></path><path id="path174" style="fill:#9989f8;fill-opacity:1;fill-rule:nonzero;stroke:none" d="m 4499.14,3820.97 h -545.22 c -12.47,0 -22.57,10.11 -22.57,22.57 v 0 c 0,12.47 10.1,22.58 22.57,22.58 h 545.22 c 12.46,0 22.57,-10.11 22.57,-22.58 v 0 c 0,-12.46 -10.11,-22.57 -22.57,-22.57"></path><path id="path176" style="fill:#cc6eff;fill-opacity:1;fill-rule:nonzero;stroke:none" d="m 4499.14,3710.36 h -545.22 c -12.47,0 -22.57,10.1 -22.57,22.57 v 0 c 0,12.46 10.1,22.57 22.57,22.57 h 545.22 c 12.46,0 22.57,-10.11 22.57,-22.57 v 0 c 0,-12.47 -10.11,-22.57 -22.57,-22.57"></path><path id="path178" style="fill:#9989f8;fill-opacity:1;fill-rule:nonzero;stroke:none" d="m 4499.14,3599.74 h -545.22 c -12.47,0 -22.57,10.11 -22.57,22.57 v 0 c 0,12.47 10.1,22.57 22.57,22.57 h 545.22 c 12.46,0 22.57,-10.1 22.57,-22.57 v 0 c 0,-12.46 -10.11,-22.57 -22.57,-22.57"></path><path id="path180" style="fill:#cc6eff;fill-opacity:1;fill-rule:nonzero;stroke:none" d="m 4499.14,3489.12 h -545.22 c -12.47,0 -22.57,10.11 -22.57,22.58 v 0 c 0,12.46 10.1,22.56 22.57,22.56 h 545.22 c 12.46,0 22.57,-10.1 22.57,-22.56 v 0 c 0,-12.47 -10.11,-22.58 -22.57,-22.58"></path><path id="path182" style="fill:#3441ff;fill-opacity:1;fill-rule:nonzero;stroke:none" d="m 4502.58,3375.06 h -744.86 c -10.56,0 -19.13,8.56 -19.13,19.12 v 0 c 0,10.56 8.57,19.12 19.13,19.12 h 744.86 c 10.56,0 19.13,-8.56 19.13,-19.12 v 0 c 0,-10.56 -8.57,-19.12 -19.13,-19.12"></path><path id="path184" style="fill:#9989f8;fill-opacity:1;fill-rule:nonzero;stroke:none" d="m 4502.58,4042.2 h -744.86 c -10.56,0 -19.13,8.57 -19.13,19.13 v 0 c 0,10.56 8.57,19.12 19.13,19.12 h 744.86 c 10.56,0 19.13,-8.56 19.13,-19.12 v 0 c 0,-10.56 -8.57,-19.13 -19.13,-19.13"></path><path id="path186" style="fill:#b7bbf9;fill-opacity:1;fill-rule:nonzero;stroke:none" d="m 3386.77,3750.69 c 0,67.96 -55.09,123.06 -123.05,123.06 -67.97,0 -123.06,-55.1 -123.06,-123.06 0,-67.97 55.09,-123.06 123.06,-123.06 67.96,0 123.05,55.09 123.05,123.06"></path></g></g></svg> 