<?xml version="1.0" encoding="UTF-8"?>
<svg width="640px" height="294px" viewBox="0 0 640 294" version="1.1" xmlns="http://www.w3.org/2000/svg" xmlns:xlink="http://www.w3.org/1999/xlink">
    <!-- Generator: Sketch 53.2 (72643) - https://sketchapp.com -->
    <title>Group 64</title>
    <desc>Created with Sketch.</desc>
    <g id="Symbols" stroke="none" stroke-width="1" fill="none" fill-rule="evenodd">
        <g id="banner/rehabilitation2-copy-5" transform="translate(-5.000000, -13.000000)">
            <g id="Group-64" transform="translate(5.000000, 13.000000)">
                <path d="M493.567,64.724 L503.343,64.724 L503.343,54.949 L493.567,54.949 L493.567,64.724 Z M513.12,87.535 L522.895,87.535 L522.895,77.759 L513.12,77.759 L513.12,87.535 Z M513.12,64.724 L522.895,64.724 L522.895,54.949 L513.12,54.949 L513.12,64.724 Z M350.183,94.053 L357.787,94.053 L357.787,86.449 L350.183,86.449 L350.183,94.053 Z M332.803,111.433 L340.407,111.433 L340.407,103.829 L332.803,103.829 L332.803,111.433 Z M317.595,111.433 L325.199,111.433 L325.199,103.829 L317.595,103.829 L317.595,111.433 Z M317.595,94.053 L325.199,94.053 L325.199,86.449 L317.595,86.449 L317.595,94.053 Z M581.552,103.829 L589.156,103.829 L589.156,96.225 L581.552,96.225 L581.552,103.829 Z M607.623,103.829 L615.227,103.829 L615.227,96.225 L607.623,96.225 L607.623,103.829 Z M594.587,75.586 L602.191,75.586 L602.191,67.982 L594.587,67.982 L594.587,75.586 Z M607.623,75.586 L615.227,75.586 L615.227,67.982 L607.623,67.982 L607.623,75.586 Z M620.658,75.586 L628.262,75.586 L628.262,67.982 L620.658,67.982 L620.658,75.586 Z M532.671,107.088 L542.447,107.088 L542.447,97.312 L532.671,97.312 L532.671,107.088 Z M532.671,64.724 L542.447,64.724 L542.447,54.949 L532.671,54.949 L532.671,64.724 Z M308.906,76.673 L326.286,76.673 L326.286,61.465 L346.924,61.465 L346.924,76.673 L365.39,76.673 L365.39,101.656 L447.945,101.656 L447.945,144.02 L458.807,144.02 L458.807,45.172 L554.396,45.172 L554.396,97.312 L572.863,97.312 L572.863,66.962 L633.692,38.071 L633.692,97.487 L633.692,185.027 C625.891,196.136 616.992,206.419 607.147,215.712 L332.154,215.712 C323.671,207.703 315.887,198.962 308.906,189.589 L308.906,76.673 Z" id="Fill-1" fill="#FEFEFE"></path>
                <path d="M493.567,64.724 L503.343,64.724 L503.343,54.949 L493.567,54.949 L493.567,64.724 Z M513.12,87.535 L522.895,87.535 L522.895,77.759 L513.12,77.759 L513.12,87.535 Z M513.12,64.724 L522.895,64.724 L522.895,54.949 L513.12,54.949 L513.12,64.724 Z M350.183,94.053 L357.787,94.053 L357.787,86.449 L350.183,86.449 L350.183,94.053 Z M332.803,111.433 L340.407,111.433 L340.407,103.829 L332.803,103.829 L332.803,111.433 Z M317.595,111.433 L325.199,111.433 L325.199,103.829 L317.595,103.829 L317.595,111.433 Z M317.595,94.053 L325.199,94.053 L325.199,86.449 L317.595,86.449 L317.595,94.053 Z M581.552,103.829 L589.156,103.829 L589.156,96.225 L581.552,96.225 L581.552,103.829 Z M607.623,103.829 L615.227,103.829 L615.227,96.225 L607.623,96.225 L607.623,103.829 Z M594.587,75.586 L602.191,75.586 L602.191,67.982 L594.587,67.982 L594.587,75.586 Z M607.623,75.586 L615.227,75.586 L615.227,67.982 L607.623,67.982 L607.623,75.586 Z M620.658,75.586 L628.262,75.586 L628.262,67.982 L620.658,67.982 L620.658,75.586 Z M532.671,107.088 L542.447,107.088 L542.447,97.312 L532.671,97.312 L532.671,107.088 Z M532.671,64.724 L542.447,64.724 L542.447,54.949 L532.671,54.949 L532.671,64.724 Z M308.906,76.673 L326.286,76.673 L326.286,61.465 L346.924,61.465 L346.924,76.673 L365.39,76.673 L365.39,101.656 L447.945,101.656 L447.945,144.02 L458.807,144.02 L458.807,45.172 L554.396,45.172 L554.396,97.312 L572.863,97.312 L572.863,66.962 L633.692,38.071 L633.692,97.487 L633.692,185.027 C625.891,196.136 616.992,206.419 607.147,215.712 L332.154,215.712 C323.671,207.703 315.887,198.962 308.906,189.589 L308.906,76.673 Z" id="Stroke-3" stroke="#3A4751"></path>
                <path d="M334.092,138.792 L342.85,138.792 L342.85,130.033 L334.092,130.033 L334.092,138.792 Z M316.576,159.228 L325.334,159.228 L325.334,150.469 L316.576,150.469 L316.576,159.228 Z M316.576,138.792 L325.334,138.792 L325.334,130.033 L316.576,130.033 L316.576,138.792 Z M464.491,165.066 L471.303,165.066 L471.303,158.254 L464.491,158.254 L464.491,165.066 Z M480.062,180.636 L486.874,180.636 L486.874,173.824 L480.062,173.824 L480.062,180.636 Z M493.686,180.636 L500.498,180.636 L500.498,173.824 L493.686,173.824 L493.686,180.636 Z M493.686,165.066 L500.498,165.066 L500.498,158.254 L493.686,158.254 L493.686,165.066 Z M257.215,173.825 L264.027,173.825 L264.027,167.013 L257.215,167.013 L257.215,173.825 Z M233.859,173.825 L240.671,173.825 L240.671,167.013 L233.859,167.013 L233.859,173.825 Z M245.537,148.523 L252.349,148.523 L252.349,141.711 L245.537,141.711 L245.537,148.523 Z M233.859,148.523 L240.671,148.523 L240.671,141.711 L233.859,141.711 L233.859,148.523 Z M222.182,148.523 L228.994,148.523 L228.994,141.711 L222.182,141.711 L222.182,148.523 Z M299.059,176.744 L307.818,176.744 L307.818,167.986 L299.059,167.986 L299.059,176.744 Z M299.059,138.792 L307.818,138.792 L307.818,130.033 L299.059,130.033 L299.059,138.792 Z M506.282,198.653 C500.027,207.051 493.055,214.882 485.455,222.057 L239.097,222.057 C230.278,213.731 222.305,204.519 215.317,194.567 L215.317,168.144 L215.317,114.914 L269.812,140.797 L269.812,167.986 L286.355,167.986 L286.355,121.276 L371.991,121.276 L371.991,209.83 L381.721,209.83 L381.721,171.878 L455.679,171.878 L455.679,149.496 L472.223,149.496 L472.223,135.872 L490.712,135.872 L490.712,149.496 L506.282,149.496 L506.282,198.653 Z" id="Fill-4" fill="#E5E5E4"></path>
                <path d="M612.938,206.3088 L26.933,206.3088 C12.12,206.3088 0,218.5528 0,233.5168 L0,233.5178 C0,248.4818 12.12,260.7248 26.933,260.7248 L117.635,260.7248 C122.057,260.7248 125.675,264.3788 125.675,268.8468 C125.675,273.3148 122.057,276.9688 117.635,276.9688 L89.241,276.9688 C84.819,276.9688 81.202,280.6228 81.202,285.0898 C81.202,289.5578 84.819,293.2118 89.241,293.2118 L313.551,293.2118 C317.973,293.2118 321.591,289.5578 321.591,285.0898 C321.591,280.6228 317.973,276.9688 313.551,276.9688 L281.646,276.9688 C277.224,276.9688 273.607,273.3148 273.607,268.8468 C273.607,264.3788 277.224,260.7248 281.646,260.7248 L612.938,260.7248 C627.751,260.7248 639.871,248.4818 639.871,233.5178 L639.871,233.5168 C639.871,218.5528 627.751,206.3088 612.938,206.3088" id="Fill-5" fill="#E5E5E4"></path>
                <path d="M596.7447,206.549 L243.8947,206.549 C238.0917,206.549 233.3737,211.269 233.3737,217.07 C233.3737,222.872 238.0917,227.592 243.8947,227.592 L334.8967,227.592 C341.6707,227.592 347.1807,233.102 347.1807,239.877 C347.1807,246.649 341.6707,252.16 334.8967,252.16 L313.4007,252.16 C307.6007,252.16 302.8797,256.88 302.8797,262.678 C302.8797,268.484 307.6007,273.201 313.4007,273.201 L499.8447,273.201 C505.6467,273.201 510.3697,268.484 510.3697,262.678 C510.3697,256.88 505.6467,252.16 499.8447,252.16 L457.1227,252.16 C450.3517,252.16 444.8417,246.649 444.8417,239.877 C444.8417,233.102 450.3517,227.592 457.1227,227.592 L596.7447,227.592 C602.5467,227.592 607.2647,222.872 607.2647,217.07 C607.2647,211.269 602.5467,206.549 596.7447,206.549" id="Fill-6" fill="#90D3D9"></path>
                <path d="M381.5621,0.0002 L271.7541,0.0002 C267.6931,0.0002 264.4011,3.2922 264.4011,7.3542 C264.4011,9.4842 265.3081,11.4022 266.7571,12.7462 L229.5961,12.7462 C225.5351,12.7462 222.2431,16.0382 222.2431,20.0992 C222.2431,24.1602 225.5351,27.4522 229.5961,27.4522 L244.2071,27.4522 C242.7581,28.7952 241.8511,30.7132 241.8511,32.8452 C241.8511,36.9052 245.1431,40.1972 249.2051,40.1972 L359.0121,40.1972 C363.0741,40.1972 366.3661,36.9052 366.3661,32.8452 C366.3661,28.7832 363.0741,25.4912 359.0121,25.4912 L344.4011,25.4912 C345.8491,24.1482 346.7571,22.2292 346.7571,20.0992 C346.7571,17.9682 345.8491,16.0502 344.4011,14.7062 L381.5621,14.7062 C385.6241,14.7062 388.9161,11.4142 388.9161,7.3542 C388.9161,3.2922 385.6241,0.0002 381.5621,0.0002" id="Fill-7" fill="#E5E5E4"></path>
                <path d="M271.7545,0.0002 C267.6925,0.0002 264.4005,3.2922 264.4005,7.3542 C264.4005,9.4842 265.3085,11.4022 266.7575,12.7462 L229.5965,12.7462 C225.5345,12.7462 222.2425,16.0382 222.2425,20.0992 C222.2425,24.1602 225.5345,27.4522 229.5965,27.4522 L244.2075,27.4522 C244.0395,27.6072 243.8795,27.7712 243.7275,27.9422 L325.5825,27.9422 C329.6445,27.9422 332.9365,24.6502 332.9365,20.5892 C332.9365,16.5282 329.6445,13.2352 325.5825,13.2352 L310.9715,13.2352 C312.4195,11.8932 313.3275,9.9752 313.3275,7.8442 C313.3275,5.7122 312.4195,3.7942 310.9715,2.4512 L348.1325,2.4512 C350.3105,2.4512 352.2655,1.5042 353.6115,0.0002 L271.7545,0.0002 Z" id="Fill-8" fill="#90D3D9"></path>
                <polygon id="Fill-9" fill="#D1D2D3" points="165.7662 95.4719 165.7652 95.4699 164.7632 97.6169 164.7642 97.6179"></polygon>
                <path d="M179.9703,125.4015 L167.1193,98.3245 L166.1183,100.4705 L178.3223,126.1835 C179.4623,128.5865 179.2943,131.3625 177.8733,133.6105 C176.4513,135.8585 174.0163,137.2005 171.3563,137.2005 L154.2303,137.2005 L154.2303,139.0245 L171.3563,139.0245 C174.6453,139.0245 177.6573,137.3655 179.4143,134.5865 C181.1733,131.8055 181.3803,128.3735 179.9703,125.4015" id="Fill-10" fill="#D1D2D3"></path>
                <polygon id="Fill-11" fill="#D1D2D3" points="153.2213 122.3693 151.0163 121.3413 175.4063 69.0383 177.6113 70.0653"></polygon>
                <path d="M154.1656,120.3488 L154.1656,120.3488 L176.6706,72.0858 C177.8886,72.6548 178.4146,74.1018 177.8476,75.3198 L157.3976,119.1718 C156.8296,120.3898 155.3826,120.9168 154.1656,120.3488" id="Fill-12" fill="#A7A9AC"></path>
                <polygon id="Fill-13" fill="#F1F1F1" points="151.6363 121.6301 151.0163 121.3411 175.4063 69.0381 176.0263 69.3271"></polygon>
                <polygon id="Fill-14" fill="#BCBDBF" points="166.1197 100.4719 166.7467 101.7939 167.7477 99.6479 167.1207 98.3259"></polygon>
                <path d="M70.4322,88.0617 C72.2022,88.0617 73.9192,88.2837 75.5612,88.6967 L75.5612,85.1047 C75.4512,85.1247 75.3412,85.1487 75.2312,85.1677 C75.1052,85.1917 74.9802,85.2147 74.8532,85.2357 C74.6432,85.2697 74.4312,85.2967 74.2192,85.3237 C74.0952,85.3387 73.9712,85.3577 73.8462,85.3717 C73.6162,85.3957 73.3832,85.4127 73.1512,85.4277 C73.0412,85.4357 72.9342,85.4477 72.8252,85.4537 C72.4832,85.4707 72.1392,85.4817 71.7922,85.4817 C71.3822,85.4817 70.9762,85.4647 70.5732,85.4387 C70.4772,85.4327 70.3822,85.4247 70.2862,85.4167 C69.9352,85.3897 69.5852,85.3537 69.2402,85.3077 C69.1922,85.3007 69.1442,85.2957 69.0962,85.2897 C68.2452,85.1677 67.4132,84.9937 66.6022,84.7657 C65.0882,84.3407 63.6512,83.7367 62.3132,82.9757 L62.3132,82.9747 C61.5522,82.5367 60.8212,82.0487 60.1232,81.5157 L59.7742,81.2497 L59.7732,81.2487 C59.3832,80.9357 59.0082,80.6077 58.6452,80.2657 C57.8852,79.5507 57.1832,78.7757 56.5472,77.9467 C56.5472,77.9457 56.5462,77.9457 56.5462,77.9447 C56.2572,77.5687 55.9842,77.1807 55.7232,76.7837 C55.6932,76.7367 55.6632,76.6897 55.6332,76.6427 C55.1192,75.8427 54.6632,75.0007 54.2712,74.1247 C54.2442,74.0647 54.2152,74.0047 54.1892,73.9447 C54.0052,73.5237 53.8372,73.0937 53.6832,72.6587 C53.6582,72.5837 53.6332,72.5087 53.6082,72.4347 C53.4552,71.9847 53.3152,71.5297 53.1962,71.0667 C53.1952,71.0637 53.1952,71.0607 53.1942,71.0577 C53.0772,70.6007 52.9822,70.1347 52.8982,69.6657 C52.8942,69.6417 52.8892,69.6187 52.8852,69.5937 C52.8742,69.5337 52.8632,69.4727 52.8532,69.4127 C52.7782,68.9557 52.7192,68.4937 52.6772,68.0267 L52.6742,67.9827 C52.6682,67.9157 52.6632,67.8487 52.6592,67.7827 C52.6282,67.3687 52.6072,66.9547 52.6022,66.5397 C52.6002,66.4547 52.5952,66.3707 52.5952,66.2847 L52.5952,62.1247 C52.0282,62.1227 51.4802,62.0387 50.9592,61.8887 L50.9592,88.0617 L70.4322,88.0617 Z" id="Fill-15" fill="#ECD0A2"></path>
                <polygon id="Fill-16" fill="#2E3B44" points="104.5924 280.3576 104.5924 272.0386 104.5924 269.7876 104.3174 269.7876 97.0154 269.7876 97.0154 282.4146 104.5924 282.4146"></polygon>
                <polygon id="Fill-17" fill="#091515" points="104.5924 269.7873 104.3174 269.7873 97.0154 269.7873 97.0154 272.0383 104.5924 271.0913"></polygon>
                <path d="M104.5924,280.3576 L104.5924,280.3556 L97.0314,280.3556 C97.0264,280.3556 97.0214,280.3566 97.0154,280.3576 L97.0154,285.7916 L104.5924,285.7916 L104.5924,280.3576 Z" id="Fill-18" fill="#091515"></path>
                <polygon id="Fill-19" fill="#DFE0DF" points="104.592 269.787 119.964 269.787 119.964 266.328 104.592 266.328"></polygon>
                <polygon id="Fill-20" fill="#D1D1D1" points="98.4615 266.3283 98.2235 269.7873 104.5925 269.7873 104.5925 266.3283"></polygon>
                <path d="M114.6939,174.1281 L114.6939,173.5711 L111.1799,173.5711 L99.3209,173.5711 L47.2739,173.5711 L47.2739,184.0021 C47.2739,194.1901 55.5339,202.4491 65.7209,202.4491 L100.9699,202.4491 L100.9699,202.4501 L99.4659,224.3751 C99.3709,225.7861 99.4159,227.2021 99.6029,228.6051 L103.7079,266.3281 L120.8489,266.3281 L122.5999,184.9901 C122.5999,179.9101 119.2799,175.6101 114.6939,174.1281" id="Fill-21" fill="#3A4751"></path>
                <path d="M99.4664,224.3752 L100.9704,202.4502 L100.9704,202.4492 L98.9784,202.4492 L98.9784,202.4502 L95.9604,224.3752 C95.7674,225.7862 95.7144,227.2022 95.8064,228.6042 L98.0714,266.3282 L103.7074,266.3282 L99.6034,228.6042 C99.4154,227.2022 99.3704,225.7862 99.4664,224.3752" id="Fill-22" fill="#002020"></path>
                <path d="M93.3307,121.0627 C92.6267,121.0007 91.9437,120.7017 91.3667,120.2127 L91.3667,135.7947 L127.5927,139.0247 L127.5927,124.1177 L93.3307,121.0627 Z" id="Fill-23" fill="#CA6128"></path>
                <path d="M118.1041,138.2785 L127.5911,139.0245 L127.5911,123.1005 C127.5911,122.2155 126.8741,121.4395 125.9881,121.3705 L118.1041,120.7505 C117.2181,120.6795 116.5001,121.3415 116.5001,122.2275 L116.5001,136.5485 C116.5001,137.4335 117.2181,138.2085 118.1041,138.2785" id="Fill-24" fill="#CA6128"></path>
                <path d="M71.7926,85.4816 L71.7926,85.4816 C61.1896,85.4816 52.5956,76.8866 52.5956,66.2846 L52.5956,47.9396 C52.5956,37.3366 61.1896,28.7426 71.7926,28.7426 C82.3956,28.7426 90.9896,37.3366 90.9896,47.9396 L90.9896,66.2846 C90.9896,76.8866 82.3956,85.4816 71.7926,85.4816" id="Fill-25" fill="#FCCB96"></path>
                <path d="M52.6099,62.1252 L52.6099,62.1252 L52.6099,47.2972 L50.2509,47.2972 C48.2469,47.2972 46.6229,48.9212 46.6229,50.9252 L46.6229,56.1382 C46.6229,59.4442 49.3029,62.1252 52.6099,62.1252" id="Fill-26" fill="#FCCB96"></path>
                <path d="M90.941,46.6369 C90.934,46.5399 90.927,46.4449 90.92,46.3479 C90.883,45.9229 90.839,45.4999 90.777,45.0829 L90.777,58.4279 C90.777,62.3299 89.248,65.8749 86.754,68.4949 C86.165,69.1159 85.152,68.9949 84.662,68.2939 C83.095,66.0479 80.498,64.5769 77.551,64.5769 L75.277,64.5769 C71.376,64.5769 68.081,67.1549 66.992,70.6989 C66.749,71.4879 65.855,71.8979 65.114,71.5329 C60.271,69.1569 56.933,64.1879 56.933,58.4279 L56.933,35.7869 C56.608,36.1849 56.3,36.5969 56.006,37.0199 C55.998,37.0329 55.987,37.0469 55.977,37.0619 C55.969,37.0729 55.961,37.0839 55.953,37.0949 C55.675,37.4999 55.415,37.9179 55.169,38.3439 C55.135,38.4019 55.102,38.4579 55.07,38.5159 C54.832,38.9379 54.608,39.3679 54.402,39.8089 C54.4,39.8119 54.399,39.8159 54.397,39.8199 C54.373,39.8709 54.35,39.9239 54.326,39.9759 C54.117,40.4339 53.921,40.8989 53.749,41.3739 C53.748,41.3749 53.748,41.3749 53.748,41.3759 C53.748,41.3769 53.747,41.3789 53.747,41.3799 C53.575,41.8529 53.424,42.3359 53.29,42.8249 L53.278,42.8659 C53.265,42.9109 53.252,42.9559 53.24,43.0019 C53.115,43.4699 53.01,43.9469 52.921,44.4279 C52.919,44.4449 52.916,44.4609 52.913,44.4769 C52.9,44.5479 52.887,44.6179 52.875,44.6899 C52.793,45.1699 52.727,45.6559 52.681,46.1469 C52.68,46.1599 52.679,46.1729 52.678,46.1859 C52.673,46.2489 52.67,46.3129 52.664,46.3749 C52.623,46.8919 52.595,47.4119 52.595,47.9399 L52.595,66.2839 C52.595,66.3699 52.6,66.4539 52.602,66.5389 C52.607,66.9539 52.628,67.3679 52.659,67.7829 C52.664,67.8489 52.669,67.9159 52.674,67.9829 L52.677,68.0269 C52.719,68.4929 52.778,68.9549 52.853,69.4119 C52.863,69.4729 52.875,69.5329 52.885,69.5939 C52.89,69.6179 52.894,69.6419 52.898,69.6659 C52.982,70.1349 53.077,70.6009 53.194,71.0579 C53.195,71.0609 53.195,71.0639 53.196,71.0669 C53.315,71.5299 53.456,71.9849 53.608,72.4349 C53.633,72.5089 53.658,72.5839 53.683,72.6579 C53.837,73.0939 54.005,73.5239 54.189,73.9449 C54.215,74.0049 54.244,74.0649 54.27,74.1249 C54.664,75.0009 55.119,75.8429 55.633,76.6429 C55.664,76.6899 55.693,76.7369 55.723,76.7829 C55.984,77.1809 56.257,77.5689 56.546,77.9449 C56.546,77.9459 56.547,77.9459 56.547,77.9469 C57.183,78.7759 57.885,79.5509 58.645,80.2659 C59.008,80.6079 59.383,80.9359 59.773,81.2479 L59.774,81.2489 L60.124,81.5159 C60.821,82.0489 61.552,82.5359 62.312,82.9749 L62.313,82.9759 C63.651,83.7369 65.088,84.3409 66.602,84.7659 C67.414,84.9929 68.246,85.1679 69.096,85.2889 C69.144,85.2959 69.192,85.3009 69.24,85.3079 C69.586,85.3539 69.935,85.3899 70.287,85.4169 C70.382,85.4249 70.477,85.4329 70.573,85.4389 C70.976,85.4649 71.382,85.4819 71.793,85.4819 C72.139,85.4819 72.483,85.4709 72.825,85.4529 C72.934,85.4479 73.042,85.4359 73.151,85.4279 C73.383,85.4119 73.616,85.3959 73.846,85.3709 C73.971,85.3579 74.095,85.3389 74.219,85.3239 C74.431,85.2969 74.643,85.2699 74.853,85.2359 C74.98,85.2149 75.105,85.1919 75.231,85.1679 C75.438,85.1309 75.644,85.0919 75.849,85.0479 C75.971,85.0219 76.092,84.9919 76.213,84.9639 C76.42,84.9149 76.626,84.8649 76.83,84.8089 C76.945,84.7789 77.059,84.7449 77.173,84.7109 C77.383,84.6509 77.591,84.5859 77.798,84.5179 C77.902,84.4839 78.005,84.4489 78.109,84.4129 C78.327,84.3369 78.542,84.2569 78.755,84.1739 C78.845,84.1389 78.934,84.1049 79.023,84.0689 C79.254,83.9739 79.483,83.8749 79.71,83.7719 C79.777,83.7409 79.845,83.7119 79.912,83.6799 C80.17,83.5599 80.423,83.4339 80.675,83.3019 C80.709,83.2839 80.744,83.2679 80.778,83.2489 C82.847,82.1499 84.693,80.6819 86.226,78.9339 C87.693,77.2619 88.872,75.3329 89.691,73.2249 C89.706,73.1879 89.72,73.1519 89.734,73.1149 C89.92,72.6259 90.087,72.1269 90.233,71.6189 C90.251,71.5569 90.269,71.4939 90.286,71.4319 C90.424,70.9349 90.544,70.4289 90.642,69.9159 C90.656,69.8459 90.668,69.7769 90.679,69.7059 C90.773,69.1889 90.848,68.6639 90.899,68.1329 C90.905,68.0779 90.907,68.0239 90.912,67.9689 C90.961,67.4129 90.99,66.8529 90.99,66.2839 L90.99,47.9399 C90.99,47.5009 90.97,47.0679 90.941,46.6369" id="Fill-27" fill="#5F4A3B"></path>
                <path d="M72.9781,52.883 C72.9781,54.013 72.0621,54.929 70.9321,54.929 C69.8021,54.929 68.8861,54.013 68.8861,52.883 C68.8861,51.753 69.8021,50.837 70.9321,50.837 C72.0621,50.837 72.9781,51.753 72.9781,52.883" id="Fill-28" fill="#5F4A3B"></path>
                <path d="M73.1978,45.7258 C71.3868,44.1938 68.7078,44.1938 66.8958,45.7258 C66.5708,45.9978 66.1088,46.0858 65.8168,45.8538 C65.5278,45.6218 65.5958,45.0608 66.0278,44.6958 C68.3388,42.7418 71.7558,42.7408 74.0658,44.6958 C74.4988,45.0608 74.5668,45.6218 74.2768,45.8538 C73.9848,46.0868 73.5228,45.9978 73.1978,45.7258" id="Fill-29" fill="#5F4A3B"></path>
                <path d="M89.5152,52.883 C89.5152,54.013 88.5992,54.929 87.4692,54.929 C86.3392,54.929 85.4232,54.013 85.4232,52.883 C85.4232,51.753 86.3392,50.837 87.4692,50.837 C88.5992,50.837 89.5152,51.753 89.5152,52.883" id="Fill-30" fill="#5F4A3B"></path>
                <path d="M89.735,45.7258 C87.924,44.1938 85.245,44.1938 83.433,45.7258 C83.109,45.9978 82.646,46.0858 82.354,45.8538 C82.066,45.6218 82.133,45.0608 82.565,44.6958 C84.877,42.7418 88.293,42.7408 90.603,44.6958 C91.037,45.0608 91.104,45.6218 90.814,45.8538 C90.522,46.0868 90.06,45.9978 89.735,45.7258" id="Fill-31" fill="#5F4A3B"></path>
                <path d="M60.8922,31.9601 L49.6162,24.1561 C47.1102,23.7121 44.8102,25.6391 44.8102,28.1851 L44.8102,47.6731 C44.8102,49.2981 45.3512,50.8761 46.3472,52.1581 L46.6222,52.5131 L46.6222,50.9251 C46.6222,48.9211 48.2462,47.2971 50.2502,47.2971 L52.6102,47.2971 C60.3922,45.4821 64.0722,41.5391 62.9192,35.0891 C62.6932,33.8191 61.9532,32.6941 60.8922,31.9601" id="Fill-32" fill="#574336"></path>
                <path d="M70.8687,16.5129 C49.3957,16.5129 49.6157,24.1569 49.6157,24.1569 L61.0197,32.0489 C64.0927,29.9629 67.7997,28.7419 71.7927,28.7419 C82.3947,28.7419 90.9897,37.3369 90.9897,47.9399 C90.9897,47.9399 95.1847,43.0339 95.1847,33.1509 C95.1847,29.1689 92.3407,16.5129 70.8687,16.5129" id="Fill-33" fill="#5F4A3B"></path>
                <path d="M74.8531,85.2355 C74.6431,85.2695 74.4311,85.2975 74.2191,85.3235 C74.0951,85.3395 73.9711,85.3575 73.8461,85.3715 C73.6161,85.3955 73.3831,85.4125 73.1511,85.4275 C73.0411,85.4355 72.9341,85.4475 72.8251,85.4535 C72.4831,85.4705 72.1391,85.4815 71.7921,85.4815 C71.3821,85.4815 70.9761,85.4645 70.5731,85.4385 C70.4771,85.4325 70.3821,85.4245 70.2871,85.4175 C69.9351,85.3885 69.5851,85.3535 69.2401,85.3075 C69.1921,85.3005 69.1441,85.2965 69.0961,85.2895 C68.2461,85.1685 67.4141,84.9935 66.6021,84.7655 C65.0881,84.3405 63.6511,83.7365 62.3131,82.9755 L62.3131,82.9745 C61.5521,82.5365 60.8211,82.0485 60.1231,81.5155 L59.7741,81.2495 L59.7731,81.2485 C59.3831,80.9355 59.0081,80.6065 58.6451,80.2655 C57.8851,79.5505 57.1831,78.7755 56.5471,77.9465 C56.5471,77.9455 56.5461,77.9455 56.5461,77.9445 C56.2571,77.5685 55.9841,77.1805 55.7231,76.7835 C55.6931,76.7365 55.6641,76.6895 55.6331,76.6425 C55.1191,75.8425 54.6641,75.0015 54.2701,74.1255 C54.2441,74.0645 54.2151,74.0055 54.1891,73.9445 C54.0051,73.5235 53.8371,73.0935 53.6831,72.6585 C53.6581,72.5845 53.6331,72.5085 53.6081,72.4345 C53.4561,71.9845 53.3151,71.5295 53.1961,71.0665 C53.1951,71.0635 53.1951,71.0605 53.1941,71.0575 C53.0771,70.6005 52.9821,70.1345 52.8981,69.6665 C52.8941,69.6415 52.8901,69.6175 52.8851,69.5935 C52.8741,69.5335 52.8631,69.4725 52.8531,69.4125 C52.7781,68.9555 52.7191,68.4935 52.6771,68.0265 L52.6741,67.9825 C52.6681,67.9165 52.6651,67.8485 52.6591,67.7825 C52.6281,67.3685 52.6071,66.9545 52.6021,66.5395 C52.6001,66.4545 52.5951,66.3695 52.5951,66.2845 L52.5951,62.1245 C52.0281,62.1225 51.4801,62.0385 50.9591,61.8885 L50.9591,64.3045 C51.2161,64.3395 51.4761,64.3635 51.7421,64.3635 L51.7421,68.5235 C51.7421,68.6095 51.7481,68.6935 51.7481,68.7795 C51.7531,69.1945 51.7761,69.6085 51.8061,70.0215 C51.8111,70.0895 51.8151,70.1555 51.8211,70.2215 C51.8221,70.2365 51.8231,70.2525 51.8251,70.2665 C51.8671,70.7335 51.9241,71.1955 51.9991,71.6515 C52.0091,71.7135 52.0221,71.7725 52.0321,71.8335 C52.0371,71.8575 52.0401,71.8815 52.0451,71.9055 C52.1281,72.3755 52.2241,72.8395 52.3401,73.2975 C52.3411,73.2995 52.3421,73.3025 52.3421,73.3055 C52.4611,73.7695 52.6021,74.2245 52.7541,74.6735 C52.7801,74.7485 52.8041,74.8235 52.8311,74.8975 C52.9841,75.3345 53.1521,75.7625 53.3351,76.1835 C53.3621,76.2445 53.3901,76.3045 53.4171,76.3655 C53.8101,77.2415 54.2661,78.0825 54.7811,78.8825 C54.8101,78.9285 54.8391,78.9765 54.8711,79.0225 C55.1301,79.4205 55.4051,79.8075 55.6931,80.1835 C55.6931,80.1845 55.6941,80.1855 55.6941,80.1855 C56.3301,81.0155 57.0321,81.7905 57.7911,82.5055 C58.1551,82.8465 58.5311,83.1745 58.9191,83.4875 C58.9191,83.4885 58.9201,83.4885 58.9201,83.4885 L59.2701,83.7565 C59.9671,84.2895 60.6991,84.7765 61.4591,85.2145 C62.7971,85.9755 64.2361,86.5815 65.7491,87.0055 C66.5601,87.2325 67.3931,87.4075 68.2431,87.5285 C68.2911,87.5355 68.3381,87.5415 68.3861,87.5475 C68.7321,87.5935 69.0821,87.6295 69.4331,87.6565 C69.5291,87.6645 69.6241,87.6735 69.7191,87.6785 C70.1231,87.7045 70.5291,87.7205 70.9391,87.7205 C71.2861,87.7205 71.6301,87.7115 71.9721,87.6925 C72.0821,87.6865 72.1891,87.6755 72.2971,87.6685 C72.5301,87.6515 72.7621,87.6345 72.9931,87.6105 C73.1181,87.5965 73.2421,87.5795 73.3661,87.5625 C73.5791,87.5365 73.7911,87.5085 74.0001,87.4755 C74.1261,87.4555 74.2511,87.4305 74.3771,87.4085 C74.5841,87.3705 74.7911,87.3325 74.9961,87.2885 C75.1191,87.2615 75.2391,87.2325 75.3611,87.2035 C75.4281,87.1875 75.4941,87.1705 75.5611,87.1535 L75.5611,85.1045 C75.4511,85.1255 75.3411,85.1485 75.2311,85.1685 C75.1051,85.1915 74.9801,85.2145 74.8531,85.2355" id="Fill-34" fill="#FCCB96"></path>
                <path d="M93.2008,53.2697 C93.2008,56.3867 90.6648,58.9227 87.5478,58.9227 L85.5208,58.9227 C82.4038,58.9227 79.8678,56.3867 79.8678,53.2697 L79.8678,48.6827 L93.2008,48.6827 L93.2008,53.2697 Z M75.5288,53.2697 C75.5288,56.3867 72.9928,58.9227 69.8758,58.9227 L67.8488,58.9227 C64.7318,58.9227 62.1958,56.3867 62.1958,53.2697 L62.1958,48.6827 L75.5288,48.6827 L75.5288,53.2697 Z M79.1758,47.2977 L78.4828,47.2977 L76.9148,47.2977 L76.2218,47.2977 L61.5038,47.2977 L60.8108,47.2977 L52.5448,47.2977 L52.5448,48.6827 L60.8108,48.6827 L60.8108,53.2697 C60.8108,57.1507 63.9688,60.3077 67.8488,60.3077 L69.8758,60.3077 C73.7568,60.3077 76.9148,57.1507 76.9148,53.2697 L76.9148,48.6827 L78.4828,48.6827 L78.4828,53.2697 C78.4828,57.1507 81.6398,60.3077 85.5208,60.3077 L87.5478,60.3077 C91.4288,60.3077 94.5858,57.1507 94.5858,53.2697 L94.5858,47.2977 L79.1758,47.2977 Z" id="Fill-35" fill="#3A4751"></path>
                <path d="M78.0846,75.1721 L75.4546,75.1721 C73.7856,75.1721 72.4326,73.8181 72.4326,72.1501 L72.4326,70.4791 L81.1066,70.4791 L81.1066,72.1501 C81.1066,73.8181 79.7536,75.1721 78.0846,75.1721" id="Fill-36" fill="#FEFEFE"></path>
                <path d="M70.4322,88.0617 L50.7872,88.0617 C46.9072,88.0617 43.7602,91.2077 43.7602,95.0887 L43.7602,173.5717 L91.3682,173.5717 L91.3682,108.9967 C91.3682,97.4337 81.9952,88.0617 70.4322,88.0617" id="Fill-37" fill="#E6761E"></path>
                <path d="M95.4771,124.1174 C94.4151,124.1174 93.3961,123.6954 92.6451,122.9444 L62.7891,93.0894 C58.6731,88.9724 51.9981,88.9724 47.8821,93.0894 C43.7661,97.2054 43.7661,103.8804 47.8821,107.9964 L75.5031,135.6174 C77.6851,137.7994 80.6441,139.0244 83.7291,139.0244 L134.2891,139.0244 L134.2891,124.1174 L95.4771,124.1174 Z" id="Fill-38" fill="#E6761E"></path>
                <path d="M124.8023,139.0246 L134.2893,139.0246 L134.2893,123.1006 C134.2893,122.2146 133.5723,121.4966 132.6863,121.4966 L124.8023,121.4966 C123.9163,121.4966 123.1983,122.2146 123.1983,123.1006 L123.1983,137.4206 C123.1983,138.3066 123.9163,139.0246 124.8023,139.0246" id="Fill-39" fill="#CA6128"></path>
                <path d="M150.2252,139.0246 L133.9862,139.0246 L133.9862,128.0026 L150.2252,128.0026 C151.7722,128.0026 153.0262,129.2556 153.0262,130.8026 L153.0262,136.2246 C153.0262,137.7716 151.7722,139.0246 150.2252,139.0246" id="Fill-40" fill="#ECD0A2"></path>
                <path d="M146.9586,125.8068 L139.9036,125.8068 C138.6906,125.8068 137.7076,126.7888 137.7076,128.0018 L148.1936,128.0018 L148.1936,127.0418 C148.1936,126.3598 147.6416,125.8068 146.9586,125.8068" id="Fill-41" fill="#ECD0A2"></path>
                <polygon id="Fill-42" fill="#002020" points="91.3678 173.5715 47.2738 173.5715 47.2738 179.5555"></polygon>
                <polygon id="Fill-43" fill="#002020" points="100.9703 202.4494 108.0503 202.4494 100.7553 205.5824"></polygon>
                <polygon id="Fill-44" fill="#82645D" points="36.075 285.791 38.49 285.791 38.49 109.006 36.075 109.006"></polygon>
                <path d="M145.2193,282.4142 L104.5923,282.4142 L104.5923,269.7872 L122.5993,269.7872 L142.0743,276.1792 C143.9343,276.7002 145.2193,278.3952 145.2193,280.3272 L145.2193,282.4142 Z" id="Fill-45" fill="#3A4751"></path>
                <polygon id="Fill-46" fill="#002020" points="122.5992 269.7873 104.5922 272.0383 104.5922 269.7873"></polygon>
                <path d="M145.2027,280.3556 L104.6087,280.3556 C104.6027,280.3556 104.5977,280.3566 104.5927,280.3576 L104.5927,285.7916 L145.2197,285.7916 L145.2197,280.3576 C145.2137,280.3566 145.2087,280.3556 145.2027,280.3556" id="Fill-47" fill="#002020"></path>
                <path d="M125.7623,274.2346 L125.7623,274.2346 C125.3703,274.1136 125.1523,273.6986 125.2733,273.3076 L126.0293,270.8666 C126.1503,270.4746 126.5653,270.2556 126.9553,270.3776 C127.3473,270.4986 127.5663,270.9136 127.4453,271.3046 L126.6893,273.7456 C126.5683,274.1366 126.1533,274.3556 125.7623,274.2346" id="Fill-48" fill="#D1D2D3"></path>
                <path d="M129.6353,275.4338 L129.6353,275.4338 C129.2433,275.3128 129.0253,274.8978 129.1463,274.5058 L129.8783,272.1418 C129.9993,271.7508 130.4143,271.5318 130.8053,271.6528 C131.1973,271.7738 131.4153,272.1898 131.2943,272.5798 L130.5623,274.9448 C130.4413,275.3358 130.0263,275.5548 129.6353,275.4338" id="Fill-49" fill="#D1D2D3"></path>
                <path d="M133.5084,276.633 L133.5084,276.633 C133.1174,276.512 132.8984,276.097 133.0194,275.705 L133.7484,273.351 C133.8694,272.96 134.2844,272.741 134.6754,272.862 C135.0674,272.984 135.2854,273.399 135.1644,273.789 L134.4354,276.144 C134.3154,276.535 133.8994,276.754 133.5084,276.633" id="Fill-50" fill="#D1D2D3"></path>
                <path d="M83.7291,139.0246 C80.6441,139.0246 77.6851,137.7986 75.5031,135.6176 L47.8821,107.9966 C43.8531,103.9676 43.7791,97.4956 47.6361,93.3616 C47.5881,93.4066 47.5371,93.4446 47.4911,93.4906 L47.4901,93.4906 C43.8961,97.0716 43.8961,103.7466 47.4901,108.3976 L71.6021,139.6116 C73.5061,142.0766 76.0891,143.6876 78.7831,144.0876 L91.3671,145.9626 L91.3671,139.0246 L83.7291,139.0246 Z" id="Fill-51" fill="#CA6128"></path>
                <polygon id="Fill-52" fill="#752081" points="36.074 285.791 43.76 285.791 43.76 109.006 36.074 109.006"></polygon>
                <polygon id="Fill-53" fill="#752081" points="89.073 285.791 96.76 285.791 96.76 217.712 89.073 217.712"></polygon>
                <polygon id="Fill-54" fill="#752081" points="43.76 217.712 99.321 217.712 99.321 207.72 43.76 207.72"></polygon>
                <path d="M47.9605,202.4494 L92.9255,202.4494 C95.2445,202.4494 97.1255,204.3304 97.1255,206.6494 L97.1255,207.7204 L43.7605,207.7204 L43.7605,206.6494 C43.7605,204.3304 45.6415,202.4494 47.9605,202.4494" id="Fill-55" fill="#002020"></path>
                <polygon id="Fill-56" fill="#D1D2D3" points="95.863 144.144 193.863 144.144 193.863 139.025 95.863 139.025"></polygon>
                <polygon id="Fill-57" fill="#F1F1F1" points="95.863 140.191 193.863 140.191 193.863 139.025 95.863 139.025"></polygon>
                <polygon id="Fill-58" fill="#BCBDBF" points="101.683 153.587 188.043 153.587 188.043 144.144 101.683 144.144"></polygon>
                <polygon id="Fill-59" fill="#A7A9AC" points="101.683 146.56 188.043 146.56 188.043 144.144 101.683 144.144"></polygon>
                <polygon id="Fill-60" fill="#939597" points="109.153 285.791 116.174 285.791 116.174 153.587 109.153 153.587"></polygon>
                <polygon id="Fill-61" fill="#808285" points="109.153 158.858 116.174 158.858 116.174 153.587 109.153 153.587"></polygon>
                <polygon id="Fill-62" fill="#939597" points="173.551 285.791 180.572 285.791 180.572 153.587 173.551 153.587"></polygon>
                <polygon id="Fill-63" fill="#808285" points="173.551 158.858 180.572 158.858 180.572 153.587 173.551 153.587"></polygon>
            </g>
        </g>
    </g>
</svg>